<?xml version="1.0" standalone="no"?>
<!DOCTYPE svg PUBLIC "-//W3C//DTD SVG 20010904//EN"
 "http://www.w3.org/TR/2001/REC-SVG-20010904/DTD/svg10.dtd">
<svg version="1.0" xmlns="http://www.w3.org/2000/svg"
 width="700.000000pt" height="700.000000pt" viewBox="0 0 700.000000 700.000000"
 preserveAspectRatio="xMidYMid meet">
<metadata>
Created by potrace 1.11, written by Peter Selinger 2001-2013
</metadata>
<g transform="translate(0.000000,700.000000) scale(0.100000,-0.100000)"
fill="#000000" stroke="none">
<path d="M4879 6934 c-1 -26 -5 -72 -19 -194 -17 -160 -18 -170 -25 -245 -4
-38 -9 -83 -11 -100 -2 -16 -6 -55 -9 -85 -3 -30 -8 -70 -10 -89 -3 -18 -8
-63 -10 -100 -3 -36 -7 -77 -10 -91 -2 -14 -7 -52 -10 -85 -3 -33 -8 -80 -10
-105 -3 -25 -7 -70 -10 -100 -3 -30 -8 -71 -10 -90 -3 -19 -7 -60 -10 -90 -5
-58 -13 -131 -20 -190 -2 -19 -7 -64 -11 -100 -3 -36 -7 -76 -9 -90 -1 -14 -5
-54 -9 -90 -4 -36 -9 -81 -11 -100 -3 -19 -7 -59 -10 -87 -11 -112 -15 -159
-20 -193 -2 -19 -7 -62 -10 -95 -8 -80 -14 -140 -21 -200 -3 -27 -7 -66 -9
-85 -2 -19 -6 -60 -9 -90 -22 -197 -26 -238 -28 -267 -2 -32 -18 -36 -18 -5 0
9 -18 100 -40 202 -22 102 -42 195 -45 208 -2 12 -6 30 -9 40 -3 9 -7 28 -10
42 -5 31 -46 224 -81 385 -15 66 -28 129 -30 140 -3 11 -9 40 -15 65 -9 43
-78 366 -85 403 -2 10 -6 26 -9 35 -3 9 -8 33 -11 52 -3 19 -8 42 -10 50 -2 8
-7 31 -10 50 -3 19 -12 60 -20 90 -8 30 -17 71 -20 90 -3 19 -10 51 -15 70 -5
19 -11 49 -14 65 -3 17 -15 73 -26 125 -11 52 -25 115 -30 140 -15 78 -50 234
-55 247 -3 8 -26 6 -87 -7 -46 -11 -94 -21 -108 -24 -14 -2 -68 -13 -120 -25
-52 -11 -322 -68 -600 -126 -278 -58 -523 -110 -545 -115 -22 -5 -88 -19 -147
-31 l-107 -22 5 -36 c3 -20 7 -43 10 -51 3 -8 20 -87 39 -175 18 -88 68 -320
110 -515 42 -195 80 -375 85 -400 5 -25 12 -56 15 -70 3 -14 10 -45 15 -70 9
-42 36 -171 80 -370 10 -47 30 -141 44 -210 40 -189 85 -398 101 -465 8 -33
17 -76 20 -95 3 -19 10 -49 14 -65 l8 -31 -126 -27 c-69 -15 -138 -30 -152
-32 -15 -3 -111 -23 -215 -46 -104 -22 -200 -43 -214 -45 -52 -11 -410 -86
-520 -110 -97 -21 -242 -51 -340 -70 -14 -3 -45 -10 -70 -15 -25 -6 -52 -12
-60 -14 -195 -41 -298 -63 -455 -96 -104 -22 -194 -42 -200 -43 -5 -2 -32 -6
-60 -11 -27 -4 -53 -9 -56 -11 -4 -2 9 -75 27 -161 47 -219 55 -254 60 -283 2
-14 11 -54 19 -90 21 -95 75 -341 79 -366 3 -12 14 -66 26 -120 12 -55 24
-110 26 -124 3 -14 10 -45 15 -70 6 -25 13 -56 15 -70 3 -14 16 -77 30 -140
14 -63 28 -128 31 -145 2 -16 11 -55 18 -85 8 -30 16 -66 18 -80 3 -14 15 -72
27 -130 12 -58 24 -113 26 -123 11 -57 5 -54 139 -83 80 -17 171 -35 202 -40
21 -3 41 -8 44 -10 3 -2 19 -5 35 -8 16 -3 72 -15 124 -26 100 -22 109 -24
180 -39 81 -16 255 -52 270 -56 73 -17 109 -25 135 -29 17 -3 39 -8 50 -10 60
-12 324 -67 345 -72 14 -3 36 -8 49 -10 12 -3 51 -11 85 -19 33 -8 76 -17 95
-20 19 -3 37 -7 40 -9 3 -2 22 -7 41 -10 19 -3 44 -8 55 -10 96 -21 233 -49
295 -61 41 -9 93 -20 115 -25 54 -12 224 -49 255 -54 14 -2 57 -11 95 -20 39
-9 81 -18 95 -20 14 -2 176 -37 360 -76 184 -39 398 -84 475 -100 77 -16 205
-43 285 -60 166 -36 373 -79 410 -86 14 -3 39 -9 56 -13 l32 -9 133 297 c73
163 148 330 167 371 19 41 61 136 94 210 33 74 77 172 99 218 21 46 39 85 39
87 0 2 15 36 34 77 40 86 69 151 70 158 1 3 9 21 18 40 9 19 28 60 41 90 14
30 36 80 50 110 146 321 249 559 252 584 3 17 7 56 10 86 8 74 14 128 20 170
2 19 7 62 10 95 10 111 25 247 40 380 3 22 7 65 10 95 3 30 10 96 15 145 5 50
12 117 15 150 3 33 10 96 15 140 9 77 14 123 25 238 3 28 7 63 10 77 2 14 7
61 10 105 3 44 8 87 10 95 2 8 7 51 10 94 4 43 8 87 10 98 2 10 7 51 10 91 3
39 8 83 10 97 2 14 6 54 10 90 3 36 8 81 10 100 4 37 12 105 20 193 3 28 8 75
12 102 6 56 8 70 17 175 4 41 9 82 11 90 2 8 7 50 10 93 4 43 8 86 10 95 1 9
6 51 10 92 3 41 8 89 10 105 2 17 7 57 10 90 4 33 8 71 10 85 2 14 6 59 10
100 4 41 8 86 10 100 2 14 7 54 10 90 7 79 14 144 21 190 4 35 7 60 19 195 3
39 8 81 10 95 2 14 6 54 10 90 4 36 8 77 11 92 4 29 -3 32 -131 43 -33 3 -76
8 -95 10 -19 2 -82 9 -140 15 -58 6 -123 13 -145 16 -22 2 -60 6 -85 9 -99 8
-186 17 -210 20 -23 3 -126 14 -190 20 -23 2 -107 11 -190 20 -19 2 -62 7 -95
10 -33 3 -73 8 -90 10 -16 2 -61 7 -100 11 -38 3 -81 8 -95 9 -14 2 -60 7
-102 11 -72 6 -78 5 -79 -12z m-1437 -3908 c119 -58 170 -141 163 -266 -4 -71
-30 -127 -83 -183 -78 -81 -180 -99 -317 -57 -121 38 -175 113 -178 249 -2
103 17 165 65 212 81 78 240 99 350 45z m1221 -158 c149 -70 206 -214 143
-367 -54 -134 -112 -175 -241 -174 -130 1 -243 52 -282 126 -24 47 -30 183 -9
243 22 65 71 126 136 169 52 35 58 37 125 33 49 -3 87 -12 128 -30z"/>
</g>
</svg>
