<svg xmlns="http://www.w3.org/2000/svg" width="600" height="371" aria-label="A chart." style="overflow: hidden;"><defs id="defs"><clipPath id="_ABSTRACT_RENDERER_ID_964"><rect x="115" y="71" width="371" height="229"></rect></clipPath></defs><rect x="0" y="0" width="600" height="371" stroke="none" stroke-width="0" fill="#ffffff"></rect><g><text text-anchor="start" x="115" y="49.6" font-family="Arial" font-size="16" font-weight="bold" stroke="none" stroke-width="0" fill="#000000">req/s, 50 concurrent requests</text><rect x="115" y="36" width="371" height="16" stroke="none" stroke-width="0" fill-opacity="0" fill="#ffffff"></rect></g><g><rect x="498" y="71" width="90" height="101" stroke="none" stroke-width="0" fill-opacity="0" fill="#ffffff"></rect><g><rect x="498" y="71" width="90" height="12" stroke="none" stroke-width="0" fill-opacity="0" fill="#ffffff"></rect><g><text text-anchor="start" x="527" y="81.2" font-family="Arial" font-size="12" stroke="none" stroke-width="0" fill="#222222">puma x4:5</text></g><rect x="498" y="71" width="24" height="12" stroke="none" stroke-width="0" fill="#3366cc"></rect></g><g><rect x="498" y="90" width="90" height="28" stroke="none" stroke-width="0" fill-opacity="0" fill="#ffffff"></rect><g><text text-anchor="start" x="527" y="100.2" font-family="Arial" font-size="12" stroke="none" stroke-width="0" fill="#222222">puma</text><text text-anchor="start" x="527" y="116.2" font-family="Arial" font-size="12" stroke="none" stroke-width="0" fill="#222222">x4:10</text></g><rect x="498" y="90" width="24" height="12" stroke="none" stroke-width="0" fill="#dc3912"></rect></g><g><rect x="498" y="125" width="90" height="12" stroke="none" stroke-width="0" fill-opacity="0" fill="#ffffff"></rect><g><text text-anchor="start" x="527" y="135.2" font-family="Arial" font-size="12" stroke="none" stroke-width="0" fill="#222222">puma x8:5</text></g><rect x="498" y="125" width="24" height="12" stroke="none" stroke-width="0" fill="#ff9900"></rect></g><g><rect x="498" y="144" width="90" height="28" stroke="none" stroke-width="0" fill-opacity="0" fill="#ffffff"></rect><g><text text-anchor="start" x="527" y="154.2" font-family="Arial" font-size="12" stroke="none" stroke-width="0" fill="#222222">puma</text><text text-anchor="start" x="527" y="170.2" font-family="Arial" font-size="12" stroke="none" stroke-width="0" fill="#222222">x8:10</text></g><rect x="498" y="144" width="24" height="12" stroke="none" stroke-width="0" fill="#109618"></rect></g></g><g><rect x="115" y="71" width="371" height="229" stroke="none" stroke-width="0" fill-opacity="0" fill="#ffffff"></rect><g clip-path="url(https://docs.google.com/spreadsheets/d/1QBKLAMgJuyzMsOVaBJ7J00NFR2OdGBEI_2cdokBZ3ag/edit#_ABSTRACT_RENDERER_ID_964)"><g><rect x="115" y="299" width="371" height="1" stroke="none" stroke-width="0" fill="#cccccc"></rect><rect x="115" y="242" width="371" height="1" stroke="none" stroke-width="0" fill="#cccccc"></rect><rect x="115" y="185" width="371" height="1" stroke="none" stroke-width="0" fill="#cccccc"></rect><rect x="115" y="128" width="371" height="1" stroke="none" stroke-width="0" fill="#cccccc"></rect><rect x="115" y="71" width="371" height="1" stroke="none" stroke-width="0" fill="#cccccc"></rect></g><g><rect x="127" y="266" width="9" height="33" stroke="none" stroke-width="0" fill="#3366cc"></rect><rect x="189" y="167" width="9" height="132" stroke="none" stroke-width="0" fill="#3366cc"></rect><rect x="251" y="276" width="8" height="23" stroke="none" stroke-width="0" fill="#3366cc"></rect><rect x="312" y="275" width="9" height="24" stroke="none" stroke-width="0" fill="#3366cc"></rect><rect x="374" y="223" width="9" height="76" stroke="none" stroke-width="0" fill="#3366cc"></rect><rect x="436" y="219" width="8" height="80" stroke="none" stroke-width="0" fill="#3366cc"></rect><rect x="137" y="268" width="9" height="31" stroke="none" stroke-width="0" fill="#dc3912"></rect><rect x="199" y="167" width="9" height="132" stroke="none" stroke-width="0" fill="#dc3912"></rect><rect x="260" y="249" width="9" height="50" stroke="none" stroke-width="0" fill="#dc3912"></rect><rect x="322" y="254" width="9" height="45" stroke="none" stroke-width="0" fill="#dc3912"></rect><rect x="384" y="131" width="9" height="168" stroke="none" stroke-width="0" fill="#dc3912"></rect><rect x="445" y="151" width="9" height="148" stroke="none" stroke-width="0" fill="#dc3912"></rect><rect x="147" y="262" width="9" height="37" stroke="none" stroke-width="0" fill="#ff9900"></rect><rect x="209" y="126" width="8" height="173" stroke="none" stroke-width="0" fill="#ff9900"></rect><rect x="270" y="251" width="9" height="48" stroke="none" stroke-width="0" fill="#ff9900"></rect><rect x="332" y="257" width="9" height="42" stroke="none" stroke-width="0" fill="#ff9900"></rect><rect x="394" y="173" width="8" height="126" stroke="none" stroke-width="0" fill="#ff9900"></rect><rect x="455" y="159" width="9" height="140" stroke="none" stroke-width="0" fill="#ff9900"></rect><rect x="157" y="262" width="8" height="37" stroke="none" stroke-width="0" fill="#109618"></rect><rect x="218" y="132" width="9" height="167" stroke="none" stroke-width="0" fill="#109618"></rect><rect x="280" y="234" width="9" height="65" stroke="none" stroke-width="0" fill="#109618"></rect><rect x="342" y="238" width="8" height="61" stroke="none" stroke-width="0" fill="#109618"></rect><rect x="403" y="95" width="9" height="204" stroke="none" stroke-width="0" fill="#109618"></rect><rect x="465" y="115" width="9" height="184" stroke="none" stroke-width="0" fill="#109618"></rect></g><g><rect x="115" y="299" width="371" height="1" stroke="none" stroke-width="0" fill="#333333"></rect></g></g><g></g><g><g><text text-anchor="middle" x="146.33333333333334" y="314.5" font-family="Arial" font-size="10" stroke="none" stroke-width="0" fill="#222222">/fibonacci/</text><text text-anchor="middle" x="146.33333333333334" y="327.5" font-family="Arial" font-size="10" stroke="none" stroke-width="0" fill="#222222">32</text></g><g><text text-anchor="middle" x="208" y="314.5" font-family="Arial" font-size="10" stroke="none" stroke-width="0" fill="#222222">/template-</text><text text-anchor="middle" x="208" y="327.5" font-family="Arial" font-size="10" stroke="none" stroke-width="0" fill="#222222">render</text></g><g><text text-anchor="middle" x="269.66666666666663" y="314.5" font-family="Arial" font-size="10" stroke="none" stroke-width="0" fill="#222222">/pause/2</text></g><g><text text-anchor="middle" x="331.3333333333333" y="314.5" font-family="Arial" font-size="10" stroke="none" stroke-width="0" fill="#222222">/pause-</text><text text-anchor="middle" x="331.3333333333333" y="327.5" font-family="Arial" font-size="10" stroke="none" stroke-width="0" fill="#222222">and-</text><text text-anchor="middle" x="331.3333333333333" y="340.5" font-family="Arial" font-size="10" stroke="none" stroke-width="0" fill="#222222">render/2</text></g><g><text text-anchor="middle" x="393" y="314.5" font-family="Arial" font-size="10" stroke="none" stroke-width="0" fill="#222222">/network-io</text></g><g><text text-anchor="middle" x="454.66666666666663" y="314.5" font-family="Arial" font-size="10" stroke="none" stroke-width="0" fill="#222222">/network-</text><text text-anchor="middle" x="454.66666666666663" y="327.5" font-family="Arial" font-size="10" stroke="none" stroke-width="0" fill="#222222">io-and-</text><text text-anchor="middle" x="454.66666666666663" y="340.5" font-family="Arial" font-size="10" stroke="none" stroke-width="0" fill="#222222">render</text></g><g><text text-anchor="end" x="103" y="303.7" font-family="Arial" font-size="12" stroke="none" stroke-width="0" fill="#444444">0</text></g><g><text text-anchor="end" x="103" y="246.7" font-family="Arial" font-size="12" stroke="none" stroke-width="0" fill="#444444">20</text></g><g><text text-anchor="end" x="103" y="189.7" font-family="Arial" font-size="12" stroke="none" stroke-width="0" fill="#444444">40</text></g><g><text text-anchor="end" x="103" y="132.7" font-family="Arial" font-size="12" stroke="none" stroke-width="0" fill="#444444">60</text></g><g><text text-anchor="end" x="103" y="75.7" font-family="Arial" font-size="12" stroke="none" stroke-width="0" fill="#444444">80</text></g></g></g><g><g><text text-anchor="middle" x="300.5" y="360.7" font-family="Arial" font-size="12" font-style="italic" stroke="none" stroke-width="0" fill="#222222">server</text><rect x="115" y="350.5" width="371" height="12" stroke="none" stroke-width="0" fill-opacity="0" fill="#ffffff"></rect></g><g><text text-anchor="middle" x="49.2" y="185.5" font-family="Arial" font-size="12" font-style="italic" transform="rotate(-90 49.2 185.5)" stroke="none" stroke-width="0" fill="#222222">req/s</text><path d="M38.99999999999999,300L39.00000000000001,71L51.00000000000001,71L50.99999999999999,300Z" stroke="none" stroke-width="0" fill-opacity="0" fill="#ffffff"></path></g></g><g></g></svg>
