<svg xmlns="http://www.w3.org/2000/svg" width="600" height="371" aria-label="A chart." style="overflow: hidden;"><defs id="defs"><clipPath id="_ABSTRACT_RENDERER_ID_962"><rect x="115" y="71" width="371" height="229"></rect></clipPath></defs><rect x="0" y="0" width="600" height="371" stroke="none" stroke-width="0" fill="#ffffff"></rect><g><text text-anchor="start" x="115" y="49.6" font-family="Arial" font-size="16" font-weight="bold" stroke="none" stroke-width="0" fill="#000000">avg resp time (ms), 50 concurrent requests</text><rect x="115" y="36" width="371" height="16" stroke="none" stroke-width="0" fill-opacity="0" fill="#ffffff"></rect></g><g><rect x="498" y="71" width="90" height="101" stroke="none" stroke-width="0" fill-opacity="0" fill="#ffffff"></rect><g><rect x="498" y="71" width="90" height="12" stroke="none" stroke-width="0" fill-opacity="0" fill="#ffffff"></rect><g><text text-anchor="start" x="527" y="81.2" font-family="Arial" font-size="12" stroke="none" stroke-width="0" fill="#222222">puma x4:5</text></g><rect x="498" y="71" width="24" height="12" stroke="none" stroke-width="0" fill="#3366cc"></rect></g><g><rect x="498" y="90" width="90" height="28" stroke="none" stroke-width="0" fill-opacity="0" fill="#ffffff"></rect><g><text text-anchor="start" x="527" y="100.2" font-family="Arial" font-size="12" stroke="none" stroke-width="0" fill="#222222">puma</text><text text-anchor="start" x="527" y="116.2" font-family="Arial" font-size="12" stroke="none" stroke-width="0" fill="#222222">x4:10</text></g><rect x="498" y="90" width="24" height="12" stroke="none" stroke-width="0" fill="#dc3912"></rect></g><g><rect x="498" y="125" width="90" height="12" stroke="none" stroke-width="0" fill-opacity="0" fill="#ffffff"></rect><g><text text-anchor="start" x="527" y="135.2" font-family="Arial" font-size="12" stroke="none" stroke-width="0" fill="#222222">puma x8:5</text></g><rect x="498" y="125" width="24" height="12" stroke="none" stroke-width="0" fill="#ff9900"></rect></g><g><rect x="498" y="144" width="90" height="28" stroke="none" stroke-width="0" fill-opacity="0" fill="#ffffff"></rect><g><text text-anchor="start" x="527" y="154.2" font-family="Arial" font-size="12" stroke="none" stroke-width="0" fill="#222222">puma</text><text text-anchor="start" x="527" y="170.2" font-family="Arial" font-size="12" stroke="none" stroke-width="0" fill="#222222">x8:10</text></g><rect x="498" y="144" width="24" height="12" stroke="none" stroke-width="0" fill="#109618"></rect></g></g><g><rect x="115" y="71" width="371" height="229" stroke="none" stroke-width="0" fill-opacity="0" fill="#ffffff"></rect><g clip-path="url(https://docs.google.com/spreadsheets/d/1QBKLAMgJuyzMsOVaBJ7J00NFR2OdGBEI_2cdokBZ3ag/edit#_ABSTRACT_RENDERER_ID_962)"><g><rect x="115" y="299" width="371" height="1" stroke="none" stroke-width="0" fill="#cccccc"></rect><rect x="115" y="242" width="371" height="1" stroke="none" stroke-width="0" fill="#cccccc"></rect><rect x="115" y="185" width="371" height="1" stroke="none" stroke-width="0" fill="#cccccc"></rect><rect x="115" y="128" width="371" height="1" stroke="none" stroke-width="0" fill="#cccccc"></rect><rect x="115" y="71" width="371" height="1" stroke="none" stroke-width="0" fill="#cccccc"></rect></g><g><rect x="127" y="139" width="9" height="160" stroke="none" stroke-width="0" fill="#3366cc"></rect><rect x="189" y="259" width="9" height="40" stroke="none" stroke-width="0" fill="#3366cc"></rect><rect x="251" y="78" width="8" height="221" stroke="none" stroke-width="0" fill="#3366cc"></rect><rect x="312" y="80" width="9" height="219" stroke="none" stroke-width="0" fill="#3366cc"></rect><rect x="374" y="230" width="9" height="69" stroke="none" stroke-width="0" fill="#3366cc"></rect><rect x="436" y="233" width="8" height="66" stroke="none" stroke-width="0" fill="#3366cc"></rect><rect x="137" y="133" width="9" height="166" stroke="none" stroke-width="0" fill="#dc3912"></rect><rect x="199" y="259" width="9" height="40" stroke="none" stroke-width="0" fill="#dc3912"></rect><rect x="260" y="194" width="9" height="105" stroke="none" stroke-width="0" fill="#dc3912"></rect><rect x="322" y="183" width="9" height="116" stroke="none" stroke-width="0" fill="#dc3912"></rect><rect x="384" y="268" width="9" height="31" stroke="none" stroke-width="0" fill="#dc3912"></rect><rect x="445" y="264" width="9" height="35" stroke="none" stroke-width="0" fill="#dc3912"></rect><rect x="147" y="157" width="9" height="142" stroke="none" stroke-width="0" fill="#ff9900"></rect><rect x="209" y="269" width="8" height="30" stroke="none" stroke-width="0" fill="#ff9900"></rect><rect x="270" y="189" width="9" height="110" stroke="none" stroke-width="0" fill="#ff9900"></rect><rect x="332" y="175" width="9" height="124" stroke="none" stroke-width="0" fill="#ff9900"></rect><rect x="394" y="257" width="8" height="42" stroke="none" stroke-width="0" fill="#ff9900"></rect><rect x="455" y="262" width="9" height="37" stroke="none" stroke-width="0" fill="#ff9900"></rect><rect x="157" y="156" width="8" height="143" stroke="none" stroke-width="0" fill="#109618"></rect><rect x="218" y="268" width="9" height="31" stroke="none" stroke-width="0" fill="#109618"></rect><rect x="280" y="218" width="9" height="81" stroke="none" stroke-width="0" fill="#109618"></rect><rect x="342" y="212" width="8" height="87" stroke="none" stroke-width="0" fill="#109618"></rect><rect x="403" y="274" width="9" height="25" stroke="none" stroke-width="0" fill="#109618"></rect><rect x="465" y="271" width="9" height="28" stroke="none" stroke-width="0" fill="#109618"></rect></g><g><rect x="115" y="299" width="371" height="1" stroke="none" stroke-width="0" fill="#333333"></rect></g></g><g></g><g><g><text text-anchor="middle" x="146.33333333333334" y="314.5" font-family="Arial" font-size="10" stroke="none" stroke-width="0" fill="#222222">/fibonacci/</text><text text-anchor="middle" x="146.33333333333334" y="327.5" font-family="Arial" font-size="10" stroke="none" stroke-width="0" fill="#222222">32</text></g><g><text text-anchor="middle" x="208" y="314.5" font-family="Arial" font-size="10" stroke="none" stroke-width="0" fill="#222222">/template-</text><text text-anchor="middle" x="208" y="327.5" font-family="Arial" font-size="10" stroke="none" stroke-width="0" fill="#222222">render</text></g><g><text text-anchor="middle" x="269.66666666666663" y="314.5" font-family="Arial" font-size="10" stroke="none" stroke-width="0" fill="#222222">/pause/2</text></g><g><text text-anchor="middle" x="331.3333333333333" y="314.5" font-family="Arial" font-size="10" stroke="none" stroke-width="0" fill="#222222">/pause-</text><text text-anchor="middle" x="331.3333333333333" y="327.5" font-family="Arial" font-size="10" stroke="none" stroke-width="0" fill="#222222">and-</text><text text-anchor="middle" x="331.3333333333333" y="340.5" font-family="Arial" font-size="10" stroke="none" stroke-width="0" fill="#222222">render/2</text></g><g><text text-anchor="middle" x="393" y="314.5" font-family="Arial" font-size="10" stroke="none" stroke-width="0" fill="#222222">/network-io</text></g><g><text text-anchor="middle" x="454.66666666666663" y="314.5" font-family="Arial" font-size="10" stroke="none" stroke-width="0" fill="#222222">/network-</text><text text-anchor="middle" x="454.66666666666663" y="327.5" font-family="Arial" font-size="10" stroke="none" stroke-width="0" fill="#222222">io-and-</text><text text-anchor="middle" x="454.66666666666663" y="340.5" font-family="Arial" font-size="10" stroke="none" stroke-width="0" fill="#222222">render</text></g><g><text text-anchor="end" x="103" y="303.7" font-family="Arial" font-size="12" stroke="none" stroke-width="0" fill="#444444">0</text></g><g><text text-anchor="end" x="103" y="246.7" font-family="Arial" font-size="12" stroke="none" stroke-width="0" fill="#444444">1500</text></g><g><text text-anchor="end" x="103" y="189.7" font-family="Arial" font-size="12" stroke="none" stroke-width="0" fill="#444444">3000</text></g><g><text text-anchor="end" x="103" y="132.7" font-family="Arial" font-size="12" stroke="none" stroke-width="0" fill="#444444">4500</text></g><g><text text-anchor="end" x="103" y="75.7" font-family="Arial" font-size="12" stroke="none" stroke-width="0" fill="#444444">6000</text></g></g></g><g><g><text text-anchor="middle" x="300.5" y="360.7" font-family="Arial" font-size="12" font-style="italic" stroke="none" stroke-width="0" fill="#222222">endpoint</text><rect x="115" y="350.5" width="371" height="12" stroke="none" stroke-width="0" fill-opacity="0" fill="#ffffff"></rect></g><g><text text-anchor="middle" x="42.2" y="185.5" font-family="Arial" font-size="12" font-style="italic" transform="rotate(-90 42.2 185.5)" stroke="none" stroke-width="0" fill="#222222">avg resp time (ms)</text><path d="M31.999999999999996,300L32.00000000000001,71L44.00000000000001,71L43.99999999999999,300Z" stroke="none" stroke-width="0" fill-opacity="0" fill="#ffffff"></path></g></g><g></g></svg>
