<svg xmlns="http://www.w3.org/2000/svg" width="600" height="371" aria-label="A chart." style="overflow: hidden;"><defs id="defs"><clipPath id="_ABSTRACT_RENDERER_ID_5"><rect x="115" y="71" width="371" height="229"></rect></clipPath></defs><rect x="0" y="0" width="600" height="371" stroke="none" stroke-width="0" fill="#ffffff"></rect><g><text text-anchor="start" x="115" y="49.6" font-family="Arial" font-size="16" font-weight="bold" stroke="none" stroke-width="0" fill="#000000">fibonacci(32), req/s</text><rect x="115" y="36" width="371" height="16" stroke="none" stroke-width="0" fill-opacity="0" fill="#ffffff"></rect></g><g><rect x="498" y="71" width="90" height="139" stroke="none" stroke-width="0" fill-opacity="0" fill="#ffffff"></rect><g><rect x="498" y="71" width="90" height="28" stroke="none" stroke-width="0" fill-opacity="0" fill="#ffffff"></rect><g><text text-anchor="start" x="527" y="81.2" font-family="Arial" font-size="12" stroke="none" stroke-width="0" fill="#222222">puma</text><text text-anchor="start" x="527" y="97.2" font-family="Arial" font-size="12" stroke="none" stroke-width="0" fill="#222222">x4:10</text></g><path d="M498,77L522,77" stroke="#3366cc" stroke-width="2" fill-opacity="1" fill="none"></path></g><g><rect x="498" y="106" width="90" height="12" stroke="none" stroke-width="0" fill-opacity="0" fill="#ffffff"></rect><g><text text-anchor="start" x="527" y="116.2" font-family="Arial" font-size="12" stroke="none" stroke-width="0" fill="#222222">puma x4:5</text></g><path d="M498,112L522,112" stroke="#dc3912" stroke-width="2" fill-opacity="1" fill="none"></path></g><g><rect x="498" y="125" width="90" height="28" stroke="none" stroke-width="0" fill-opacity="0" fill="#ffffff"></rect><g><text text-anchor="start" x="527" y="135.2" font-family="Arial" font-size="12" stroke="none" stroke-width="0" fill="#222222">puma</text><text text-anchor="start" x="527" y="151.2" font-family="Arial" font-size="12" stroke="none" stroke-width="0" fill="#222222">x8:10</text></g><path d="M498,131L522,131" stroke="#ff9900" stroke-width="2" fill-opacity="1" fill="none"></path></g><g><rect x="498" y="160" width="90" height="12" stroke="none" stroke-width="0" fill-opacity="0" fill="#ffffff"></rect><g><text text-anchor="start" x="527" y="170.2" font-family="Arial" font-size="12" stroke="none" stroke-width="0" fill="#222222">puma x8:5</text></g><path d="M498,166L522,166" stroke="#109618" stroke-width="2" fill-opacity="1" fill="none"></path></g><g><rect x="498" y="179" width="90" height="12" stroke="none" stroke-width="0" fill-opacity="0" fill="#ffffff"></rect><g><text text-anchor="start" x="527" y="189.2" font-family="Arial" font-size="12" stroke="none" stroke-width="0" fill="#222222">unicorn x4</text></g><path d="M498,185L522,185" stroke="#990099" stroke-width="2" fill-opacity="1" fill="none"></path><path d="M513.1819805153394,181.81801948466054L513.1819805153394,188.18198051533946L506.8180194846605,188.18198051533946L506.8180194846605,181.81801948466054Z" stroke="none" stroke-width="0" fill="#990099"></path></g><g><rect x="498" y="198" width="90" height="12" stroke="none" stroke-width="0" fill-opacity="0" fill="#ffffff"></rect><g><text text-anchor="start" x="527" y="208.2" font-family="Arial" font-size="12" stroke="none" stroke-width="0" fill="#222222">unicorn x8</text></g><path d="M498,204L522,204" stroke="#0099c6" stroke-width="2" fill-opacity="1" fill="none"></path><path d="M513.1819805153394,200.81801948466054L513.1819805153394,207.18198051533946L506.8180194846605,207.18198051533946L506.8180194846605,200.81801948466054Z" stroke="none" stroke-width="0" fill="#0099c6"></path></g></g><g><rect x="115" y="71" width="371" height="229" stroke="none" stroke-width="0" fill-opacity="0" fill="#ffffff"></rect><g clip-path="url(https://docs.google.com/spreadsheets/d/1QBKLAMgJuyzMsOVaBJ7J00NFR2OdGBEI_2cdokBZ3ag/edit#_ABSTRACT_RENDERER_ID_5)"><g><rect x="115" y="299" width="371" height="1" stroke="none" stroke-width="0" fill="#cccccc"></rect><rect x="115" y="242" width="371" height="1" stroke="none" stroke-width="0" fill="#cccccc"></rect><rect x="115" y="185" width="371" height="1" stroke="none" stroke-width="0" fill="#cccccc"></rect><rect x="115" y="128" width="371" height="1" stroke="none" stroke-width="0" fill="#cccccc"></rect><rect x="115" y="71" width="371" height="1" stroke="none" stroke-width="0" fill="#cccccc"></rect></g><g><rect x="115" y="299" width="371" height="1" stroke="none" stroke-width="0" fill="#333333"></rect></g><g><path d="M146.33333333333334,253.4725L208,127.93L269.66666666666663,131.63500000000002L331.3333333333333,131.7775L393,129.7825L454.66666666666663,137.33499999999998" stroke="#3366cc" stroke-width="2" fill-opacity="1" fill="none"></path><path d="M146.33333333333334,253.7575L208,128.64249999999998L269.66666666666663,129.64000000000001L331.3333333333333,129.64000000000001L393,129.2125L454.66666666666663,131.63500000000002" stroke="#dc3912" stroke-width="2" fill-opacity="1" fill="none"></path><path d="M146.33333333333334,253.615L208,102.42249999999999L269.66666666666663,105.41500000000002L331.3333333333333,106.98250000000002L393,107.98000000000002L454.66666666666663,111.97" stroke="#ff9900" stroke-width="2" fill-opacity="1" fill="none"></path><path d="M146.33333333333334,254.04250000000002L208,104.56L269.66666666666663,105.5575L331.3333333333333,106.84L393,106.98250000000002L454.66666666666663,109.975" stroke="#109618" stroke-width="2" fill-opacity="1" fill="none"></path><path d="M146.33333333333334,253.9L208,126.79000000000002L269.66666666666663,126.505L331.3333333333333,126.505L393,126.36249999999998L454.66666666666663,126.36249999999998" stroke="#990099" stroke-width="2" fill-opacity="1" fill="none"></path><path d="M146.33333333333334,253.9L208,103.13500000000002L269.66666666666663,102.70749999999998L331.3333333333333,102.28L393,103.8475L454.66666666666663,102.70749999999998" stroke="#0099c6" stroke-width="2" fill-opacity="1" fill="none"></path></g></g><g><path d="M149.5153138486728,250.71801948466054L149.5153138486728,257.08198051533947L143.15135281799388,257.08198051533947L143.15135281799388,250.71801948466054Z" stroke="none" stroke-width="0" fill="#990099"></path><path d="M211.18198051533946,123.60801948466056L211.18198051533946,129.97198051533948L204.81801948466054,129.97198051533948L204.81801948466054,123.60801948466056Z" stroke="none" stroke-width="0" fill="#990099"></path><path d="M272.8486471820061,123.32301948466053L272.8486471820061,129.68698051533946L266.48468615132714,129.68698051533946L266.48468615132714,123.32301948466053Z" stroke="none" stroke-width="0" fill="#990099"></path><path d="M334.5153138486728,123.32301948466053L334.5153138486728,129.68698051533946L328.1513528179938,129.68698051533946L328.1513528179938,123.32301948466053Z" stroke="none" stroke-width="0" fill="#990099"></path><path d="M396.1819805153395,123.18051948466052L396.1819805153395,129.54448051533944L389.8180194846605,129.54448051533944L389.8180194846605,123.18051948466052Z" stroke="none" stroke-width="0" fill="#990099"></path><path d="M457.8486471820061,123.18051948466052L457.8486471820061,129.54448051533944L451.48468615132714,129.54448051533944L451.48468615132714,123.18051948466052Z" stroke="none" stroke-width="0" fill="#990099"></path><path d="M149.5153138486728,250.71801948466054L149.5153138486728,257.08198051533947L143.15135281799388,257.08198051533947L143.15135281799388,250.71801948466054Z" stroke="none" stroke-width="0" fill="#0099c6"></path><path d="M211.18198051533946,99.95301948466056L211.18198051533946,106.31698051533948L204.81801948466054,106.31698051533948L204.81801948466054,99.95301948466056Z" stroke="none" stroke-width="0" fill="#0099c6"></path><path d="M272.8486471820061,99.52551948466052L272.8486471820061,105.88948051533944L266.48468615132714,105.88948051533944L266.48468615132714,99.52551948466052Z" stroke="none" stroke-width="0" fill="#0099c6"></path><path d="M334.5153138486728,99.09801948466054L334.5153138486728,105.46198051533946L328.1513528179938,105.46198051533946L328.1513528179938,99.09801948466054Z" stroke="none" stroke-width="0" fill="#0099c6"></path><path d="M396.1819805153395,100.66551948466054L396.1819805153395,107.02948051533946L389.8180194846605,107.02948051533946L389.8180194846605,100.66551948466054Z" stroke="none" stroke-width="0" fill="#0099c6"></path><path d="M457.8486471820061,99.52551948466052L457.8486471820061,105.88948051533944L451.48468615132714,105.88948051533944L451.48468615132714,99.52551948466052Z" stroke="none" stroke-width="0" fill="#0099c6"></path></g><g><g><text text-anchor="middle" x="146.33333333333334" y="317.2" font-family="Arial" font-size="12" stroke="none" stroke-width="0" fill="#222222">1</text></g><g><text text-anchor="middle" x="208" y="317.2" font-family="Arial" font-size="12" stroke="none" stroke-width="0" fill="#222222">10</text></g><g><text text-anchor="middle" x="269.66666666666663" y="317.2" font-family="Arial" font-size="12" stroke="none" stroke-width="0" fill="#222222">20</text></g><g><text text-anchor="middle" x="331.3333333333333" y="317.2" font-family="Arial" font-size="12" stroke="none" stroke-width="0" fill="#222222">30</text></g><g><text text-anchor="middle" x="393" y="317.2" font-family="Arial" font-size="12" stroke="none" stroke-width="0" fill="#222222">40</text></g><g><text text-anchor="middle" x="454.66666666666663" y="317.2" font-family="Arial" font-size="12" stroke="none" stroke-width="0" fill="#222222">50</text></g><g><text text-anchor="end" x="103" y="303.7" font-family="Arial" font-size="12" stroke="none" stroke-width="0" fill="#444444">0</text></g><g><text text-anchor="end" x="103" y="246.7" font-family="Arial" font-size="12" stroke="none" stroke-width="0" fill="#444444">4</text></g><g><text text-anchor="end" x="103" y="189.7" font-family="Arial" font-size="12" stroke="none" stroke-width="0" fill="#444444">8</text></g><g><text text-anchor="end" x="103" y="132.7" font-family="Arial" font-size="12" stroke="none" stroke-width="0" fill="#444444">12</text></g><g><text text-anchor="end" x="103" y="75.7" font-family="Arial" font-size="12" stroke="none" stroke-width="0" fill="#444444">16</text></g></g></g><g><g><text text-anchor="middle" x="300.5" y="349.2" font-family="Arial" font-size="12" font-style="italic" stroke="none" stroke-width="0" fill="#222222">concurrent requests</text><rect x="115" y="339" width="371" height="12" stroke="none" stroke-width="0" fill-opacity="0" fill="#ffffff"></rect></g><g><text text-anchor="middle" x="49.2" y="185.5" font-family="Arial" font-size="12" font-style="italic" transform="rotate(-90 49.2 185.5)" stroke="none" stroke-width="0" fill="#222222">req/s</text><path d="M38.99999999999999,300L39.00000000000001,71L51.00000000000001,71L50.99999999999999,300Z" stroke="none" stroke-width="0" fill-opacity="0" fill="#ffffff"></path></g></g><g></g></svg>
