<svg xmlns="http://www.w3.org/2000/svg" width="600" height="371" aria-label="A chart." style="overflow: hidden;"><defs id="defs"><clipPath id="_ABSTRACT_RENDERER_ID_0"><rect x="115" y="71" width="371" height="229"></rect></clipPath></defs><rect x="0" y="0" width="600" height="371" stroke="none" stroke-width="0" fill="#ffffff"></rect><g><text text-anchor="start" x="115" y="49.6" font-family="Arial" font-size="16" font-weight="bold" stroke="none" stroke-width="0" fill="#000000">fibonacci(32), avg resp time (ms)</text><rect x="115" y="36" width="371" height="16" stroke="none" stroke-width="0" fill-opacity="0" fill="#ffffff"></rect></g><g><rect x="498" y="71" width="90" height="139" stroke="none" stroke-width="0" fill-opacity="0" fill="#ffffff"></rect><g><rect x="498" y="71" width="90" height="28" stroke="none" stroke-width="0" fill-opacity="0" fill="#ffffff"></rect><g><text text-anchor="start" x="527" y="81.2" font-family="Arial" font-size="12" stroke="none" stroke-width="0" fill="#222222">puma</text><text text-anchor="start" x="527" y="97.2" font-family="Arial" font-size="12" stroke="none" stroke-width="0" fill="#222222">x4:10</text></g><path d="M498,77L522,77" stroke="#3366cc" stroke-width="2" fill-opacity="1" fill="none"></path></g><g><rect x="498" y="106" width="90" height="12" stroke="none" stroke-width="0" fill-opacity="0" fill="#ffffff"></rect><g><text text-anchor="start" x="527" y="116.2" font-family="Arial" font-size="12" stroke="none" stroke-width="0" fill="#222222">puma x4:5</text></g><path d="M498,112L522,112" stroke="#dc3912" stroke-width="2" fill-opacity="1" fill="none"></path></g><g><rect x="498" y="125" width="90" height="28" stroke="none" stroke-width="0" fill-opacity="0" fill="#ffffff"></rect><g><text text-anchor="start" x="527" y="135.2" font-family="Arial" font-size="12" stroke="none" stroke-width="0" fill="#222222">puma</text><text text-anchor="start" x="527" y="151.2" font-family="Arial" font-size="12" stroke="none" stroke-width="0" fill="#222222">x8:10</text></g><path d="M498,131L522,131" stroke="#ff9900" stroke-width="2" fill-opacity="1" fill="none"></path></g><g><rect x="498" y="160" width="90" height="12" stroke="none" stroke-width="0" fill-opacity="0" fill="#ffffff"></rect><g><text text-anchor="start" x="527" y="170.2" font-family="Arial" font-size="12" stroke="none" stroke-width="0" fill="#222222">puma x8:5</text></g><path d="M498,166L522,166" stroke="#109618" stroke-width="2" fill-opacity="1" fill="none"></path></g><g><rect x="498" y="179" width="90" height="12" stroke="none" stroke-width="0" fill-opacity="0" fill="#ffffff"></rect><g><text text-anchor="start" x="527" y="189.2" font-family="Arial" font-size="12" stroke="none" stroke-width="0" fill="#222222">unicorn x4</text></g><path d="M498,185L522,185" stroke="#990099" stroke-width="2" fill-opacity="1" fill="none"></path><path d="M513.1819805153394,181.81801948466054L513.1819805153394,188.18198051533946L506.8180194846605,188.18198051533946L506.8180194846605,181.81801948466054Z" stroke="none" stroke-width="0" fill="#990099"></path></g><g><rect x="498" y="198" width="90" height="12" stroke="none" stroke-width="0" fill-opacity="0" fill="#ffffff"></rect><g><text text-anchor="start" x="527" y="208.2" font-family="Arial" font-size="12" stroke="none" stroke-width="0" fill="#222222">unicorn x8</text></g><path d="M498,204L522,204" stroke="#0099c6" stroke-width="2" fill-opacity="1" fill="none"></path><path d="M513.1819805153394,200.81801948466054L513.1819805153394,207.18198051533946L506.8180194846605,207.18198051533946L506.8180194846605,200.81801948466054Z" stroke="none" stroke-width="0" fill="#0099c6"></path></g></g><g><rect x="115" y="71" width="371" height="229" stroke="none" stroke-width="0" fill-opacity="0" fill="#ffffff"></rect><g clip-path="url(https://docs.google.com/spreadsheets/d/1QBKLAMgJuyzMsOVaBJ7J00NFR2OdGBEI_2cdokBZ3ag/edit#_ABSTRACT_RENDERER_ID_0)"><g><rect x="115" y="299" width="371" height="1" stroke="none" stroke-width="0" fill="#cccccc"></rect><rect x="115" y="242" width="371" height="1" stroke="none" stroke-width="0" fill="#cccccc"></rect><rect x="115" y="185" width="371" height="1" stroke="none" stroke-width="0" fill="#cccccc"></rect><rect x="115" y="128" width="371" height="1" stroke="none" stroke-width="0" fill="#cccccc"></rect><rect x="115" y="71" width="371" height="1" stroke="none" stroke-width="0" fill="#cccccc"></rect></g><g><rect x="115" y="299" width="371" height="1" stroke="none" stroke-width="0" fill="#333333"></rect></g><g><path d="M146.33333333333334,285.3720256L208,261.626692L269.66666666666663,222.0955048L331.3333333333333,183.24106719999997L393,146.3121808L454.66666666666663,99.06825519999998" stroke="#3366cc" stroke-width="2" fill-opacity="1" fill="none"></path><path d="M146.33333333333334,285.3018472L208,261.468232L269.66666666666663,223.01466399999998L331.3333333333333,184.74062320000002L393,146.8659928L454.66666666666663,105.9399928" stroke="#dc3912" stroke-width="2" fill-opacity="1" fill="none"></path><path d="M146.33333333333334,285.3206344L208,266.5186144L269.66666666666663,232.538908L331.3333333333333,198.24939519999998L393,163.8054352L454.66666666666663,126.1884904" stroke="#ff9900" stroke-width="2" fill-opacity="1" fill="none"></path><path d="M146.33333333333334,285.187756L208,266.1689536L269.66666666666663,232.4880184L331.3333333333333,198.3537736L393,164.5052128L454.66666666666663,128.02311519999998" stroke="#109618" stroke-width="2" fill-opacity="1" fill="none"></path><path d="M146.33333333333334,285.2685592L208,261.8786776L269.66666666666663,224.3953864L331.3333333333333,186.8108176L393,149.32789119999998L454.66666666666663,111.88750959999999" stroke="#990099" stroke-width="2" fill-opacity="1" fill="none"></path><path d="M146.33333333333334,285.2364568L208,266.4040672L269.66666666666663,233.447488L331.3333333333333,200.6260216L393,166.633684L454.66666666666663,134.36789919999998" stroke="#0099c6" stroke-width="2" fill-opacity="1" fill="none"></path></g></g><g><path d="M149.5153138486728,282.08657868466054L149.5153138486728,288.4505397153395L143.15135281799388,288.4505397153395L143.15135281799388,282.08657868466054Z" stroke="none" stroke-width="0" fill="#990099"></path><path d="M211.18198051533946,258.6966970846605L211.18198051533946,265.0606581153395L204.81801948466054,265.0606581153395L204.81801948466054,258.6966970846605Z" stroke="none" stroke-width="0" fill="#990099"></path><path d="M272.8486471820061,221.21340588466055L272.8486471820061,227.57736691533947L266.48468615132714,227.57736691533947L266.48468615132714,221.21340588466055Z" stroke="none" stroke-width="0" fill="#990099"></path><path d="M334.5153138486728,183.62883708466055L334.5153138486728,189.99279811533947L328.1513528179938,189.99279811533947L328.1513528179938,183.62883708466055Z" stroke="none" stroke-width="0" fill="#990099"></path><path d="M396.1819805153395,146.14591068466052L396.1819805153395,152.50987171533944L389.8180194846605,152.50987171533944L389.8180194846605,146.14591068466052Z" stroke="none" stroke-width="0" fill="#990099"></path><path d="M457.8486471820061,108.70552908466053L457.8486471820061,115.06949011533945L451.48468615132714,115.06949011533945L451.48468615132714,108.70552908466053Z" stroke="none" stroke-width="0" fill="#990099"></path><path d="M149.5153138486728,282.0544762846605L149.5153138486728,288.4184373153395L143.15135281799388,288.4184373153395L143.15135281799388,282.0544762846605Z" stroke="none" stroke-width="0" fill="#0099c6"></path><path d="M211.18198051533946,263.2220866846605L211.18198051533946,269.5860477153395L204.81801948466054,269.5860477153395L204.81801948466054,263.2220866846605Z" stroke="none" stroke-width="0" fill="#0099c6"></path><path d="M272.8486471820061,230.26550748466053L272.8486471820061,236.62946851533945L266.48468615132714,236.62946851533945L266.48468615132714,230.26550748466053Z" stroke="none" stroke-width="0" fill="#0099c6"></path><path d="M334.5153138486728,197.44404108466054L334.5153138486728,203.80800211533946L328.1513528179938,203.80800211533946L328.1513528179938,197.44404108466054Z" stroke="none" stroke-width="0" fill="#0099c6"></path><path d="M396.1819805153395,163.45170348466053L396.1819805153395,169.81566451533945L389.8180194846605,169.81566451533945L389.8180194846605,163.45170348466053Z" stroke="none" stroke-width="0" fill="#0099c6"></path><path d="M457.8486471820061,131.18591868466052L457.8486471820061,137.54987971533944L451.48468615132714,137.54987971533944L451.48468615132714,131.18591868466052Z" stroke="none" stroke-width="0" fill="#0099c6"></path></g><g><g><text text-anchor="middle" x="146.33333333333334" y="317.2" font-family="Arial" font-size="12" stroke="none" stroke-width="0" fill="#222222">1</text></g><g><text text-anchor="middle" x="208" y="317.2" font-family="Arial" font-size="12" stroke="none" stroke-width="0" fill="#222222">10</text></g><g><text text-anchor="middle" x="269.66666666666663" y="317.2" font-family="Arial" font-size="12" stroke="none" stroke-width="0" fill="#222222">20</text></g><g><text text-anchor="middle" x="331.3333333333333" y="317.2" font-family="Arial" font-size="12" stroke="none" stroke-width="0" fill="#222222">30</text></g><g><text text-anchor="middle" x="393" y="317.2" font-family="Arial" font-size="12" stroke="none" stroke-width="0" fill="#222222">40</text></g><g><text text-anchor="middle" x="454.66666666666663" y="317.2" font-family="Arial" font-size="12" stroke="none" stroke-width="0" fill="#222222">50</text></g><g><text text-anchor="end" x="103" y="303.7" font-family="Arial" font-size="12" stroke="none" stroke-width="0" fill="#444444">0</text></g><g><text text-anchor="end" x="103" y="246.7" font-family="Arial" font-size="12" stroke="none" stroke-width="0" fill="#444444">1250</text></g><g><text text-anchor="end" x="103" y="189.7" font-family="Arial" font-size="12" stroke="none" stroke-width="0" fill="#444444">2500</text></g><g><text text-anchor="end" x="103" y="132.7" font-family="Arial" font-size="12" stroke="none" stroke-width="0" fill="#444444">3750</text></g><g><text text-anchor="end" x="103" y="75.7" font-family="Arial" font-size="12" stroke="none" stroke-width="0" fill="#444444">5000</text></g></g></g><g><g><text text-anchor="middle" x="300.5" y="349.2" font-family="Arial" font-size="12" font-style="italic" stroke="none" stroke-width="0" fill="#222222">concurrent requests</text><rect x="115" y="339" width="371" height="12" stroke="none" stroke-width="0" fill-opacity="0" fill="#ffffff"></rect></g><g><text text-anchor="middle" x="42.2" y="185.5" font-family="Arial" font-size="12" font-style="italic" transform="rotate(-90 42.2 185.5)" stroke="none" stroke-width="0" fill="#222222">avg resp time (ms)</text><path d="M31.999999999999996,300L32.00000000000001,71L44.00000000000001,71L43.99999999999999,300Z" stroke="none" stroke-width="0" fill-opacity="0" fill="#ffffff"></path></g></g><g></g></svg>
