<svg xmlns="http://www.w3.org/2000/svg" width="600" height="371" aria-label="A chart." style="overflow: hidden;"><defs id="defs"><clipPath id="_ABSTRACT_RENDERER_ID_7"><rect x="115" y="71" width="371" height="229"></rect></clipPath></defs><rect x="0" y="0" width="600" height="371" stroke="none" stroke-width="0" fill="#ffffff"></rect><g><text text-anchor="start" x="115" y="49.6" font-family="Arial" font-size="16" font-weight="bold" stroke="none" stroke-width="0" fill="#000000">Network IO, req/s</text><rect x="115" y="36" width="371" height="16" stroke="none" stroke-width="0" fill-opacity="0" fill="#ffffff"></rect></g><g><rect x="498" y="71" width="90" height="139" stroke="none" stroke-width="0" fill-opacity="0" fill="#ffffff"></rect><g><rect x="498" y="71" width="90" height="28" stroke="none" stroke-width="0" fill-opacity="0" fill="#ffffff"></rect><g><text text-anchor="start" x="527" y="81.2" font-family="Arial" font-size="12" stroke="none" stroke-width="0" fill="#222222">puma</text><text text-anchor="start" x="527" y="97.2" font-family="Arial" font-size="12" stroke="none" stroke-width="0" fill="#222222">x4:10</text></g><path d="M498,77L522,77" stroke="#3366cc" stroke-width="2" fill-opacity="1" fill="none"></path></g><g><rect x="498" y="106" width="90" height="12" stroke="none" stroke-width="0" fill-opacity="0" fill="#ffffff"></rect><g><text text-anchor="start" x="527" y="116.2" font-family="Arial" font-size="12" stroke="none" stroke-width="0" fill="#222222">puma x4:5</text></g><path d="M498,112L522,112" stroke="#dc3912" stroke-width="2" fill-opacity="1" fill="none"></path></g><g><rect x="498" y="125" width="90" height="28" stroke="none" stroke-width="0" fill-opacity="0" fill="#ffffff"></rect><g><text text-anchor="start" x="527" y="135.2" font-family="Arial" font-size="12" stroke="none" stroke-width="0" fill="#222222">puma</text><text text-anchor="start" x="527" y="151.2" font-family="Arial" font-size="12" stroke="none" stroke-width="0" fill="#222222">x8:10</text></g><path d="M498,131L522,131" stroke="#ff9900" stroke-width="2" fill-opacity="1" fill="none"></path></g><g><rect x="498" y="160" width="90" height="12" stroke="none" stroke-width="0" fill-opacity="0" fill="#ffffff"></rect><g><text text-anchor="start" x="527" y="170.2" font-family="Arial" font-size="12" stroke="none" stroke-width="0" fill="#222222">puma x8:5</text></g><path d="M498,166L522,166" stroke="#109618" stroke-width="2" fill-opacity="1" fill="none"></path></g><g><rect x="498" y="179" width="90" height="12" stroke="none" stroke-width="0" fill-opacity="0" fill="#ffffff"></rect><g><text text-anchor="start" x="527" y="189.2" font-family="Arial" font-size="12" stroke="none" stroke-width="0" fill="#222222">unicorn x4</text></g><path d="M498,185L522,185" stroke="#990099" stroke-width="2" fill-opacity="1" fill="none"></path></g><g><rect x="498" y="198" width="90" height="12" stroke="none" stroke-width="0" fill-opacity="0" fill="#ffffff"></rect><g><text text-anchor="start" x="527" y="208.2" font-family="Arial" font-size="12" stroke="none" stroke-width="0" fill="#222222">unicorn x8</text></g><path d="M498,204L522,204" stroke="#0099c6" stroke-width="2" fill-opacity="1" fill="none"></path></g></g><g><rect x="115" y="71" width="371" height="229" stroke="none" stroke-width="0" fill-opacity="0" fill="#ffffff"></rect><g clip-path="url(https://docs.google.com/spreadsheets/d/1QBKLAMgJuyzMsOVaBJ7J00NFR2OdGBEI_2cdokBZ3ag/edit#_ABSTRACT_RENDERER_ID_7)"><g><rect x="115" y="299" width="371" height="1" stroke="none" stroke-width="0" fill="#cccccc"></rect><rect x="115" y="242" width="371" height="1" stroke="none" stroke-width="0" fill="#cccccc"></rect><rect x="115" y="185" width="371" height="1" stroke="none" stroke-width="0" fill="#cccccc"></rect><rect x="115" y="128" width="371" height="1" stroke="none" stroke-width="0" fill="#cccccc"></rect><rect x="115" y="71" width="371" height="1" stroke="none" stroke-width="0" fill="#cccccc"></rect></g><g><rect x="115" y="299" width="371" height="1" stroke="none" stroke-width="0" fill="#333333"></rect></g><g><path d="M146.33333333333334,294.9685L208,254.812L269.66666666666663,210.8365L331.3333333333333,170.0815L393,144.0895L454.66666666666663,130.6945" stroke="#3366cc" stroke-width="2" fill-opacity="1" fill="none"></path><path d="M146.33333333333334,294.94L208,256.2085L269.66666666666663,223.63299999999998L331.3333333333333,219.643L393,215.197L454.66666666666663,222.2935" stroke="#dc3912" stroke-width="2" fill-opacity="1" fill="none"></path><path d="M146.33333333333334,294.9685L208,255.89499999999998L269.66666666666663,210.75099999999998L331.3333333333333,168.742L393,126.049L454.66666666666663,94.10050000000001" stroke="#ff9900" stroke-width="2" fill-opacity="1" fill="none"></path><path d="M146.33333333333334,294.9685L208,255.04L269.66666666666663,216.565L331.3333333333333,192.1975L393,176.494L454.66666666666663,172.1335" stroke="#109618" stroke-width="2" fill-opacity="1" fill="none"></path><path d="M146.33333333333334,295.225L208,295.6525L269.66666666666663,285.022L331.3333333333333,283.3975L393,284.4235L454.66666666666663,285.535" stroke="#990099" stroke-width="2" fill-opacity="1" fill="none"></path><path d="M146.33333333333334,294.94L208,263.0485L269.66666666666663,263.7325L331.3333333333333,264.616L393,265.3L454.66666666666663,266.953" stroke="#0099c6" stroke-width="2" fill-opacity="1" fill="none"></path></g></g><g></g><g><g><text text-anchor="middle" x="146.33333333333334" y="317.2" font-family="Arial" font-size="12" stroke="none" stroke-width="0" fill="#222222">1</text></g><g><text text-anchor="middle" x="208" y="317.2" font-family="Arial" font-size="12" stroke="none" stroke-width="0" fill="#222222">10</text></g><g><text text-anchor="middle" x="269.66666666666663" y="317.2" font-family="Arial" font-size="12" stroke="none" stroke-width="0" fill="#222222">20</text></g><g><text text-anchor="middle" x="331.3333333333333" y="317.2" font-family="Arial" font-size="12" stroke="none" stroke-width="0" fill="#222222">30</text></g><g><text text-anchor="middle" x="393" y="317.2" font-family="Arial" font-size="12" stroke="none" stroke-width="0" fill="#222222">40</text></g><g><text text-anchor="middle" x="454.66666666666663" y="317.2" font-family="Arial" font-size="12" stroke="none" stroke-width="0" fill="#222222">50</text></g><g><text text-anchor="end" x="103" y="303.7" font-family="Arial" font-size="12" stroke="none" stroke-width="0" fill="#444444">0</text></g><g><text text-anchor="end" x="103" y="246.7" font-family="Arial" font-size="12" stroke="none" stroke-width="0" fill="#444444">20</text></g><g><text text-anchor="end" x="103" y="189.7" font-family="Arial" font-size="12" stroke="none" stroke-width="0" fill="#444444">40</text></g><g><text text-anchor="end" x="103" y="132.7" font-family="Arial" font-size="12" stroke="none" stroke-width="0" fill="#444444">60</text></g><g><text text-anchor="end" x="103" y="75.7" font-family="Arial" font-size="12" stroke="none" stroke-width="0" fill="#444444">80</text></g></g></g><g><g><text text-anchor="middle" x="300.5" y="349.2" font-family="Arial" font-size="12" font-style="italic" stroke="none" stroke-width="0" fill="#222222">concurrent requests</text><rect x="115" y="339" width="371" height="12" stroke="none" stroke-width="0" fill-opacity="0" fill="#ffffff"></rect></g><g><text text-anchor="middle" x="49.2" y="185.5" font-family="Arial" font-size="12" font-style="italic" transform="rotate(-90 49.2 185.5)" stroke="none" stroke-width="0" fill="#222222">req/s</text><path d="M38.99999999999999,300L39.00000000000001,71L51.00000000000001,71L50.99999999999999,300Z" stroke="none" stroke-width="0" fill-opacity="0" fill="#ffffff"></path></g></g><g></g></svg>
