<svg xmlns="http://www.w3.org/2000/svg" width="600" height="371" aria-label="A chart." style="overflow: hidden;"><defs id="defs"><clipPath id="_ABSTRACT_RENDERER_ID_13"><rect x="115" y="71" width="371" height="229"></rect></clipPath></defs><rect x="0" y="0" width="600" height="371" stroke="none" stroke-width="0" fill="#ffffff"></rect><g><text text-anchor="start" x="115" y="49.6" font-family="Arial" font-size="16" font-weight="bold" stroke="none" stroke-width="0" fill="#000000">Network IO + Render, req/s</text><rect x="115" y="36" width="371" height="16" stroke="none" stroke-width="0" fill-opacity="0" fill="#ffffff"></rect></g><g><rect x="498" y="71" width="90" height="139" stroke="none" stroke-width="0" fill-opacity="0" fill="#ffffff"></rect><g><rect x="498" y="71" width="90" height="28" stroke="none" stroke-width="0" fill-opacity="0" fill="#ffffff"></rect><g><text text-anchor="start" x="527" y="81.2" font-family="Arial" font-size="12" stroke="none" stroke-width="0" fill="#222222">puma</text><text text-anchor="start" x="527" y="97.2" font-family="Arial" font-size="12" stroke="none" stroke-width="0" fill="#222222">x4:10</text></g><path d="M498,77L522,77" stroke="#3366cc" stroke-width="2" fill-opacity="1" fill="none"></path></g><g><rect x="498" y="106" width="90" height="12" stroke="none" stroke-width="0" fill-opacity="0" fill="#ffffff"></rect><g><text text-anchor="start" x="527" y="116.2" font-family="Arial" font-size="12" stroke="none" stroke-width="0" fill="#222222">puma x4:5</text></g><path d="M498,112L522,112" stroke="#dc3912" stroke-width="2" fill-opacity="1" fill="none"></path></g><g><rect x="498" y="125" width="90" height="28" stroke="none" stroke-width="0" fill-opacity="0" fill="#ffffff"></rect><g><text text-anchor="start" x="527" y="135.2" font-family="Arial" font-size="12" stroke="none" stroke-width="0" fill="#222222">puma</text><text text-anchor="start" x="527" y="151.2" font-family="Arial" font-size="12" stroke="none" stroke-width="0" fill="#222222">x8:10</text></g><path d="M498,131L522,131" stroke="#ff9900" stroke-width="2" fill-opacity="1" fill="none"></path></g><g><rect x="498" y="160" width="90" height="12" stroke="none" stroke-width="0" fill-opacity="0" fill="#ffffff"></rect><g><text text-anchor="start" x="527" y="170.2" font-family="Arial" font-size="12" stroke="none" stroke-width="0" fill="#222222">puma x8:5</text></g><path d="M498,166L522,166" stroke="#109618" stroke-width="2" fill-opacity="1" fill="none"></path></g><g><rect x="498" y="179" width="90" height="12" stroke="none" stroke-width="0" fill-opacity="0" fill="#ffffff"></rect><g><text text-anchor="start" x="527" y="189.2" font-family="Arial" font-size="12" stroke="none" stroke-width="0" fill="#222222">unicorn x4</text></g><path d="M498,185L522,185" stroke="#990099" stroke-width="2" fill-opacity="1" fill="none"></path></g><g><rect x="498" y="198" width="90" height="12" stroke="none" stroke-width="0" fill-opacity="0" fill="#ffffff"></rect><g><text text-anchor="start" x="527" y="208.2" font-family="Arial" font-size="12" stroke="none" stroke-width="0" fill="#222222">unicorn x8</text></g><path d="M498,204L522,204" stroke="#0099c6" stroke-width="2" fill-opacity="1" fill="none"></path></g></g><g><rect x="115" y="71" width="371" height="229" stroke="none" stroke-width="0" fill-opacity="0" fill="#ffffff"></rect><g clip-path="url(https://docs.google.com/spreadsheets/d/1QBKLAMgJuyzMsOVaBJ7J00NFR2OdGBEI_2cdokBZ3ag/edit#_ABSTRACT_RENDERER_ID_13)"><g><rect x="115" y="299" width="371" height="1" stroke="none" stroke-width="0" fill="#cccccc"></rect><rect x="115" y="242" width="371" height="1" stroke="none" stroke-width="0" fill="#cccccc"></rect><rect x="115" y="185" width="371" height="1" stroke="none" stroke-width="0" fill="#cccccc"></rect><rect x="115" y="128" width="371" height="1" stroke="none" stroke-width="0" fill="#cccccc"></rect><rect x="115" y="71" width="371" height="1" stroke="none" stroke-width="0" fill="#cccccc"></rect></g><g><rect x="115" y="299" width="371" height="1" stroke="none" stroke-width="0" fill="#333333"></rect></g><g><path d="M146.33333333333334,295.168L208,257.662L269.66666666666663,217.135L331.3333333333333,185.5855L393,155.5465L454.66666666666663,150.787" stroke="#3366cc" stroke-width="2" fill-opacity="1" fill="none"></path><path d="M146.33333333333334,295.282L208,257.43399999999997L269.66666666666663,226.7395L331.3333333333333,217.3345L393,218.10399999999998L454.66666666666663,218.5315" stroke="#dc3912" stroke-width="2" fill-opacity="1" fill="none"></path><path d="M146.33333333333334,295.396L208,259.1155L269.66666666666663,218.27499999999998L331.3333333333333,179.8285L393,142.8355L454.66666666666663,114.82" stroke="#ff9900" stroke-width="2" fill-opacity="1" fill="none"></path><path d="M146.33333333333334,295.3105L208,257.9755L269.66666666666663,217.90449999999998L331.3333333333333,187.438L393,164.695L454.66666666666663,158.0545" stroke="#109618" stroke-width="2" fill-opacity="1" fill="none"></path><path d="M146.33333333333334,295.2535L208,282.799L269.66666666666663,282.7135L331.3333333333333,282.77049999999997L393,282.7135L454.66666666666663,283.141" stroke="#990099" stroke-width="2" fill-opacity="1" fill="none"></path><path d="M146.33333333333334,295.1395L208,265.585L269.66666666666663,265.414L331.3333333333333,266.2975L393,265.528L454.66666666666663,265.642" stroke="#0099c6" stroke-width="2" fill-opacity="1" fill="none"></path></g></g><g></g><g><g><text text-anchor="middle" x="146.33333333333334" y="317.2" font-family="Arial" font-size="12" stroke="none" stroke-width="0" fill="#222222">1</text></g><g><text text-anchor="middle" x="208" y="317.2" font-family="Arial" font-size="12" stroke="none" stroke-width="0" fill="#222222">10</text></g><g><text text-anchor="middle" x="269.66666666666663" y="317.2" font-family="Arial" font-size="12" stroke="none" stroke-width="0" fill="#222222">20</text></g><g><text text-anchor="middle" x="331.3333333333333" y="317.2" font-family="Arial" font-size="12" stroke="none" stroke-width="0" fill="#222222">30</text></g><g><text text-anchor="middle" x="393" y="317.2" font-family="Arial" font-size="12" stroke="none" stroke-width="0" fill="#222222">40</text></g><g><text text-anchor="middle" x="454.66666666666663" y="317.2" font-family="Arial" font-size="12" stroke="none" stroke-width="0" fill="#222222">50</text></g><g><text text-anchor="end" x="103" y="303.7" font-family="Arial" font-size="12" stroke="none" stroke-width="0" fill="#444444">0</text></g><g><text text-anchor="end" x="103" y="246.7" font-family="Arial" font-size="12" stroke="none" stroke-width="0" fill="#444444">20</text></g><g><text text-anchor="end" x="103" y="189.7" font-family="Arial" font-size="12" stroke="none" stroke-width="0" fill="#444444">40</text></g><g><text text-anchor="end" x="103" y="132.7" font-family="Arial" font-size="12" stroke="none" stroke-width="0" fill="#444444">60</text></g><g><text text-anchor="end" x="103" y="75.7" font-family="Arial" font-size="12" stroke="none" stroke-width="0" fill="#444444">80</text></g></g></g><g><g><text text-anchor="middle" x="300.5" y="349.2" font-family="Arial" font-size="12" font-style="italic" stroke="none" stroke-width="0" fill="#222222">concurrent requests</text><rect x="115" y="339" width="371" height="12" stroke="none" stroke-width="0" fill-opacity="0" fill="#ffffff"></rect></g><g><text text-anchor="middle" x="49.2" y="185.5" font-family="Arial" font-size="12" font-style="italic" transform="rotate(-90 49.2 185.5)" stroke="none" stroke-width="0" fill="#222222">req/s</text><path d="M38.99999999999999,300L39.00000000000001,71L51.00000000000001,71L50.99999999999999,300Z" stroke="none" stroke-width="0" fill-opacity="0" fill="#ffffff"></path></g></g><g></g></svg>
