<svg xmlns="http://www.w3.org/2000/svg" width="600" height="371" aria-label="A chart." style="overflow: hidden;"><defs id="defs"><clipPath id="_ABSTRACT_RENDERER_ID_958"><rect x="115" y="71" width="371" height="229"></rect></clipPath></defs><rect x="0" y="0" width="600" height="371" stroke="none" stroke-width="0" fill="#ffffff"></rect><g><text text-anchor="start" x="115" y="49.6" font-family="Arial" font-size="16" font-weight="bold" stroke="none" stroke-width="0" fill="#000000">req/s, 50 concurrent requests</text><rect x="115" y="36" width="371" height="16" stroke="none" stroke-width="0" fill-opacity="0" fill="#ffffff"></rect></g><g><rect x="498" y="71" width="90" height="203" stroke="none" stroke-width="0" fill-opacity="0" fill="#ffffff"></rect><g><rect x="498" y="71" width="90" height="28" stroke="none" stroke-width="0" fill-opacity="0" fill="#ffffff"></rect><g><text text-anchor="start" x="527" y="81.2" font-family="Arial" font-size="12" stroke="none" stroke-width="0" fill="#222222">/fibonacci/</text><text text-anchor="start" x="527" y="97.2" font-family="Arial" font-size="12" stroke="none" stroke-width="0" fill="#222222">32</text></g><path d="M498,77L522,77" stroke="#3366cc" stroke-width="2" fill-opacity="1" fill="none"></path><circle cx="510" cy="77" r="2.5" stroke="none" stroke-width="0" fill="#3366cc"></circle></g><g><rect x="498" y="106" width="90" height="28" stroke="none" stroke-width="0" fill-opacity="0" fill="#ffffff"></rect><g><text text-anchor="start" x="527" y="116.2" font-family="Arial" font-size="12" stroke="none" stroke-width="0" fill="#222222">/template-</text><text text-anchor="start" x="527" y="132.2" font-family="Arial" font-size="12" stroke="none" stroke-width="0" fill="#222222">render</text></g><path d="M498,112L522,112" stroke="#dc3912" stroke-width="2" fill-opacity="1" fill="none"></path><circle cx="510" cy="112" r="2.5" stroke="none" stroke-width="0" fill="#dc3912"></circle></g><g><rect x="498" y="141" width="90" height="12" stroke="none" stroke-width="0" fill-opacity="0" fill="#ffffff"></rect><g><text text-anchor="start" x="527" y="151.2" font-family="Arial" font-size="12" stroke="none" stroke-width="0" fill="#222222">/pause/2</text></g><path d="M498,147L522,147" stroke="#ff9900" stroke-width="2" fill-opacity="1" fill="none"></path><circle cx="510" cy="147" r="2.5" stroke="none" stroke-width="0" fill="#ff9900"></circle></g><g><rect x="498" y="160" width="90" height="44" stroke="none" stroke-width="0" fill-opacity="0" fill="#ffffff"></rect><g><text text-anchor="start" x="527" y="170.2" font-family="Arial" font-size="12" stroke="none" stroke-width="0" fill="#222222">/pause-</text><text text-anchor="start" x="527" y="186.2" font-family="Arial" font-size="12" stroke="none" stroke-width="0" fill="#222222">and-</text><text text-anchor="start" x="527" y="202.2" font-family="Arial" font-size="12" stroke="none" stroke-width="0" fill="#222222">render/2</text></g><path d="M498,166L522,166" stroke="#109618" stroke-width="2" fill-opacity="1" fill="none"></path><circle cx="510" cy="166" r="2.5" stroke="none" stroke-width="0" fill="#109618"></circle></g><g><rect x="498" y="211" width="90" height="12" stroke="none" stroke-width="0" fill-opacity="0" fill="#ffffff"></rect><g><text text-anchor="start" x="527" y="221.2" font-family="Arial" font-size="12" stroke="none" stroke-width="0" fill="#222222">/network-io</text></g><path d="M498,217L522,217" stroke="#990099" stroke-width="2" fill-opacity="1" fill="none"></path><circle cx="510" cy="217" r="2.5" stroke="none" stroke-width="0" fill="#990099"></circle></g><g><rect x="498" y="230" width="90" height="44" stroke="none" stroke-width="0" fill-opacity="0" fill="#ffffff"></rect><g><text text-anchor="start" x="527" y="240.2" font-family="Arial" font-size="12" stroke="none" stroke-width="0" fill="#222222">/network-</text><text text-anchor="start" x="527" y="256.2" font-family="Arial" font-size="12" stroke="none" stroke-width="0" fill="#222222">io-and-</text><text text-anchor="start" x="527" y="272.2" font-family="Arial" font-size="12" stroke="none" stroke-width="0" fill="#222222">render</text></g><path d="M498,236L522,236" stroke="#0099c6" stroke-width="2" fill-opacity="1" fill="none"></path><circle cx="510" cy="236" r="2.5" stroke="none" stroke-width="0" fill="#0099c6"></circle></g></g><g><rect x="115" y="71" width="371" height="229" stroke="none" stroke-width="0" fill-opacity="0" fill="#ffffff"></rect><g clip-path="url(https://docs.google.com/spreadsheets/d/1QBKLAMgJuyzMsOVaBJ7J00NFR2OdGBEI_2cdokBZ3ag/edit#_ABSTRACT_RENDERER_ID_958)"><g><rect x="115" y="299" width="371" height="1" stroke="none" stroke-width="0" fill="#cccccc"></rect><rect x="115" y="242" width="371" height="1" stroke="none" stroke-width="0" fill="#cccccc"></rect><rect x="115" y="185" width="371" height="1" stroke="none" stroke-width="0" fill="#cccccc"></rect><rect x="115" y="128" width="371" height="1" stroke="none" stroke-width="0" fill="#cccccc"></rect><rect x="115" y="71" width="371" height="1" stroke="none" stroke-width="0" fill="#cccccc"></rect></g><g><rect x="115" y="299" width="371" height="1" stroke="none" stroke-width="0" fill="#333333"></rect></g><g><path d="M161.75,265.927L254.25,267.067L346.75,261.595L439.25,261.994" stroke="#3366cc" stroke-width="2" fill-opacity="1" fill="none"></path><path d="M161.75,166.12L254.25,166.177L346.75,125.87799999999999L439.25,131.863" stroke="#dc3912" stroke-width="2" fill-opacity="1" fill="none"></path><path d="M161.75,275.0755L254.25,248.2L346.75,250.9075L439.25,233.4655" stroke="#ff9900" stroke-width="2" fill-opacity="1" fill="none"></path><path d="M161.75,274.9045L254.25,253.216L346.75,256.294L439.25,237.9685" stroke="#109618" stroke-width="2" fill-opacity="1" fill="none"></path><path d="M161.75,222.2935L254.25,130.6945L346.75,172.1335L439.25,94.10050000000001" stroke="#990099" stroke-width="2" fill-opacity="1" fill="none"></path><path d="M161.75,218.5315L254.25,150.787L346.75,158.0545L439.25,114.82" stroke="#0099c6" stroke-width="2" fill-opacity="1" fill="none"></path></g></g><g><circle cx="161.75" cy="265.927" r="2.5" stroke="none" stroke-width="0" fill="#3366cc"></circle><circle cx="254.25" cy="267.067" r="2.5" stroke="none" stroke-width="0" fill="#3366cc"></circle><circle cx="346.75" cy="261.595" r="2.5" stroke="none" stroke-width="0" fill="#3366cc"></circle><circle cx="439.25" cy="261.994" r="2.5" stroke="none" stroke-width="0" fill="#3366cc"></circle><circle cx="161.75" cy="166.12" r="2.5" stroke="none" stroke-width="0" fill="#dc3912"></circle><circle cx="254.25" cy="166.177" r="2.5" stroke="none" stroke-width="0" fill="#dc3912"></circle><circle cx="346.75" cy="125.87799999999999" r="2.5" stroke="none" stroke-width="0" fill="#dc3912"></circle><circle cx="439.25" cy="131.863" r="2.5" stroke="none" stroke-width="0" fill="#dc3912"></circle><circle cx="161.75" cy="275.0755" r="2.5" stroke="none" stroke-width="0" fill="#ff9900"></circle><circle cx="254.25" cy="248.2" r="2.5" stroke="none" stroke-width="0" fill="#ff9900"></circle><circle cx="346.75" cy="250.9075" r="2.5" stroke="none" stroke-width="0" fill="#ff9900"></circle><circle cx="439.25" cy="233.4655" r="2.5" stroke="none" stroke-width="0" fill="#ff9900"></circle><circle cx="161.75" cy="274.9045" r="2.5" stroke="none" stroke-width="0" fill="#109618"></circle><circle cx="254.25" cy="253.216" r="2.5" stroke="none" stroke-width="0" fill="#109618"></circle><circle cx="346.75" cy="256.294" r="2.5" stroke="none" stroke-width="0" fill="#109618"></circle><circle cx="439.25" cy="237.9685" r="2.5" stroke="none" stroke-width="0" fill="#109618"></circle><circle cx="161.75" cy="222.2935" r="2.5" stroke="none" stroke-width="0" fill="#990099"></circle><circle cx="254.25" cy="130.6945" r="2.5" stroke="none" stroke-width="0" fill="#990099"></circle><circle cx="346.75" cy="172.1335" r="2.5" stroke="none" stroke-width="0" fill="#990099"></circle><circle cx="439.25" cy="94.10050000000001" r="2.5" stroke="none" stroke-width="0" fill="#990099"></circle><circle cx="161.75" cy="218.5315" r="2.5" stroke="none" stroke-width="0" fill="#0099c6"></circle><circle cx="254.25" cy="150.787" r="2.5" stroke="none" stroke-width="0" fill="#0099c6"></circle><circle cx="346.75" cy="158.0545" r="2.5" stroke="none" stroke-width="0" fill="#0099c6"></circle><circle cx="439.25" cy="114.82" r="2.5" stroke="none" stroke-width="0" fill="#0099c6"></circle></g><g><g><text text-anchor="middle" x="161.75" y="317.2" font-family="Arial" font-size="12" stroke="none" stroke-width="0" fill="#222222">puma x4:5</text></g><g><text text-anchor="middle" x="254.25" y="317.2" font-family="Arial" font-size="12" stroke="none" stroke-width="0" fill="#222222">puma x4:10</text></g><g><text text-anchor="middle" x="346.75" y="317.2" font-family="Arial" font-size="12" stroke="none" stroke-width="0" fill="#222222">puma x8:5</text></g><g><text text-anchor="middle" x="439.25" y="317.2" font-family="Arial" font-size="12" stroke="none" stroke-width="0" fill="#222222">puma x8:10</text></g><g><text text-anchor="end" x="103" y="303.7" font-family="Arial" font-size="12" stroke="none" stroke-width="0" fill="#444444">0</text></g><g><text text-anchor="end" x="103" y="246.7" font-family="Arial" font-size="12" stroke="none" stroke-width="0" fill="#444444">20</text></g><g><text text-anchor="end" x="103" y="189.7" font-family="Arial" font-size="12" stroke="none" stroke-width="0" fill="#444444">40</text></g><g><text text-anchor="end" x="103" y="132.7" font-family="Arial" font-size="12" stroke="none" stroke-width="0" fill="#444444">60</text></g><g><text text-anchor="end" x="103" y="75.7" font-family="Arial" font-size="12" stroke="none" stroke-width="0" fill="#444444">80</text></g></g></g><g><g><text text-anchor="middle" x="300.5" y="349.2" font-family="Arial" font-size="12" font-style="italic" stroke="none" stroke-width="0" fill="#222222">server</text><rect x="115" y="339" width="371" height="12" stroke="none" stroke-width="0" fill-opacity="0" fill="#ffffff"></rect></g><g><text text-anchor="middle" x="49.2" y="185.5" font-family="Arial" font-size="12" font-style="italic" transform="rotate(-90 49.2 185.5)" stroke="none" stroke-width="0" fill="#222222">req/s</text><path d="M38.99999999999999,300L39.00000000000001,71L51.00000000000001,71L50.99999999999999,300Z" stroke="none" stroke-width="0" fill-opacity="0" fill="#ffffff"></path></g></g><g></g></svg>
