<svg xmlns="http://www.w3.org/2000/svg" width="600" height="371" aria-label="A chart." style="overflow: hidden;"><defs id="defs"><clipPath id="_ABSTRACT_RENDERER_ID_960"><rect x="115" y="71" width="371" height="229"></rect></clipPath></defs><rect x="0" y="0" width="600" height="371" stroke="none" stroke-width="0" fill="#ffffff"></rect><g><text text-anchor="start" x="115" y="49.6" font-family="Arial" font-size="16" font-weight="bold" stroke="none" stroke-width="0" fill="#000000">avg resp time (ms), 50 concurrent requests</text><rect x="115" y="36" width="371" height="16" stroke="none" stroke-width="0" fill-opacity="0" fill="#ffffff"></rect></g><g><rect x="498" y="71" width="90" height="203" stroke="none" stroke-width="0" fill-opacity="0" fill="#ffffff"></rect><g><rect x="498" y="71" width="90" height="28" stroke="none" stroke-width="0" fill-opacity="0" fill="#ffffff"></rect><g><text text-anchor="start" x="527" y="81.2" font-family="Arial" font-size="12" stroke="none" stroke-width="0" fill="#222222">/fibonacci/</text><text text-anchor="start" x="527" y="97.2" font-family="Arial" font-size="12" stroke="none" stroke-width="0" fill="#222222">32</text></g><path d="M498,77L522,77" stroke="#3366cc" stroke-width="2" fill-opacity="1" fill="none"></path><circle cx="510" cy="77" r="2.5" stroke="none" stroke-width="0" fill="#3366cc"></circle></g><g><rect x="498" y="106" width="90" height="28" stroke="none" stroke-width="0" fill-opacity="0" fill="#ffffff"></rect><g><text text-anchor="start" x="527" y="116.2" font-family="Arial" font-size="12" stroke="none" stroke-width="0" fill="#222222">/template-</text><text text-anchor="start" x="527" y="132.2" font-family="Arial" font-size="12" stroke="none" stroke-width="0" fill="#222222">render</text></g><path d="M498,112L522,112" stroke="#dc3912" stroke-width="2" fill-opacity="1" fill="none"></path><circle cx="510" cy="112" r="2.5" stroke="none" stroke-width="0" fill="#dc3912"></circle></g><g><rect x="498" y="141" width="90" height="12" stroke="none" stroke-width="0" fill-opacity="0" fill="#ffffff"></rect><g><text text-anchor="start" x="527" y="151.2" font-family="Arial" font-size="12" stroke="none" stroke-width="0" fill="#222222">/pause/2</text></g><path d="M498,147L522,147" stroke="#ff9900" stroke-width="2" fill-opacity="1" fill="none"></path><circle cx="510" cy="147" r="2.5" stroke="none" stroke-width="0" fill="#ff9900"></circle></g><g><rect x="498" y="160" width="90" height="44" stroke="none" stroke-width="0" fill-opacity="0" fill="#ffffff"></rect><g><text text-anchor="start" x="527" y="170.2" font-family="Arial" font-size="12" stroke="none" stroke-width="0" fill="#222222">/pause-</text><text text-anchor="start" x="527" y="186.2" font-family="Arial" font-size="12" stroke="none" stroke-width="0" fill="#222222">and-</text><text text-anchor="start" x="527" y="202.2" font-family="Arial" font-size="12" stroke="none" stroke-width="0" fill="#222222">render/2</text></g><path d="M498,166L522,166" stroke="#109618" stroke-width="2" fill-opacity="1" fill="none"></path><circle cx="510" cy="166" r="2.5" stroke="none" stroke-width="0" fill="#109618"></circle></g><g><rect x="498" y="211" width="90" height="12" stroke="none" stroke-width="0" fill-opacity="0" fill="#ffffff"></rect><g><text text-anchor="start" x="527" y="221.2" font-family="Arial" font-size="12" stroke="none" stroke-width="0" fill="#222222">/network-io</text></g><path d="M498,217L522,217" stroke="#990099" stroke-width="2" fill-opacity="1" fill="none"></path><circle cx="510" cy="217" r="2.5" stroke="none" stroke-width="0" fill="#990099"></circle></g><g><rect x="498" y="230" width="90" height="44" stroke="none" stroke-width="0" fill-opacity="0" fill="#ffffff"></rect><g><text text-anchor="start" x="527" y="240.2" font-family="Arial" font-size="12" stroke="none" stroke-width="0" fill="#222222">/network-</text><text text-anchor="start" x="527" y="256.2" font-family="Arial" font-size="12" stroke="none" stroke-width="0" fill="#222222">io-and-</text><text text-anchor="start" x="527" y="272.2" font-family="Arial" font-size="12" stroke="none" stroke-width="0" fill="#222222">render</text></g><path d="M498,236L522,236" stroke="#0099c6" stroke-width="2" fill-opacity="1" fill="none"></path><circle cx="510" cy="236" r="2.5" stroke="none" stroke-width="0" fill="#0099c6"></circle></g></g><g><rect x="115" y="71" width="371" height="229" stroke="none" stroke-width="0" fill-opacity="0" fill="#ffffff"></rect><g clip-path="url(https://docs.google.com/spreadsheets/d/1QBKLAMgJuyzMsOVaBJ7J00NFR2OdGBEI_2cdokBZ3ag/edit#_ABSTRACT_RENDERER_ID_960)"><g><rect x="115" y="299" width="371" height="1" stroke="none" stroke-width="0" fill="#cccccc"></rect><rect x="115" y="242" width="371" height="1" stroke="none" stroke-width="0" fill="#cccccc"></rect><rect x="115" y="185" width="371" height="1" stroke="none" stroke-width="0" fill="#cccccc"></rect><rect x="115" y="128" width="371" height="1" stroke="none" stroke-width="0" fill="#cccccc"></rect><rect x="115" y="71" width="371" height="1" stroke="none" stroke-width="0" fill="#cccccc"></rect></g><g><rect x="115" y="299" width="371" height="1" stroke="none" stroke-width="0" fill="#333333"></rect></g><g><path d="M161.75,138.199994L254.25,132.473546L346.75,156.602596L439.25,155.073742" stroke="#3366cc" stroke-width="2" fill-opacity="1" fill="none"></path><path d="M161.75,258.899736L254.25,258.885866L346.75,268.312754L439.25,267.199468" stroke="#dc3912" stroke-width="2" fill-opacity="1" fill="none"></path><path d="M161.75,77.91865600000003L254.25,193.93182000000002L346.75,188.06971199999998L439.25,217.506982" stroke="#ff9900" stroke-width="2" fill-opacity="1" fill="none"></path><path d="M161.75,79.28650400000001L254.25,182.477024L346.75,174.16213L439.25,211.48310800000002" stroke="#109618" stroke-width="2" fill-opacity="1" fill="none"></path><path d="M161.75,229.37168400000002L254.25,267.422262L346.75,256.987728L439.25,273.136322" stroke="#990099" stroke-width="2" fill-opacity="1" fill="none"></path><path d="M161.75,232.613616L254.25,263.089008L346.75,261.218572L439.25,270.18072" stroke="#0099c6" stroke-width="2" fill-opacity="1" fill="none"></path></g></g><g><circle cx="161.75" cy="138.199994" r="2.5" stroke="none" stroke-width="0" fill="#3366cc"></circle><circle cx="254.25" cy="132.473546" r="2.5" stroke="none" stroke-width="0" fill="#3366cc"></circle><circle cx="346.75" cy="156.602596" r="2.5" stroke="none" stroke-width="0" fill="#3366cc"></circle><circle cx="439.25" cy="155.073742" r="2.5" stroke="none" stroke-width="0" fill="#3366cc"></circle><circle cx="161.75" cy="258.899736" r="2.5" stroke="none" stroke-width="0" fill="#dc3912"></circle><circle cx="254.25" cy="258.885866" r="2.5" stroke="none" stroke-width="0" fill="#dc3912"></circle><circle cx="346.75" cy="268.312754" r="2.5" stroke="none" stroke-width="0" fill="#dc3912"></circle><circle cx="439.25" cy="267.199468" r="2.5" stroke="none" stroke-width="0" fill="#dc3912"></circle><circle cx="161.75" cy="77.91865600000003" r="2.5" stroke="none" stroke-width="0" fill="#ff9900"></circle><circle cx="254.25" cy="193.93182000000002" r="2.5" stroke="none" stroke-width="0" fill="#ff9900"></circle><circle cx="346.75" cy="188.06971199999998" r="2.5" stroke="none" stroke-width="0" fill="#ff9900"></circle><circle cx="439.25" cy="217.506982" r="2.5" stroke="none" stroke-width="0" fill="#ff9900"></circle><circle cx="161.75" cy="79.28650400000001" r="2.5" stroke="none" stroke-width="0" fill="#109618"></circle><circle cx="254.25" cy="182.477024" r="2.5" stroke="none" stroke-width="0" fill="#109618"></circle><circle cx="346.75" cy="174.16213" r="2.5" stroke="none" stroke-width="0" fill="#109618"></circle><circle cx="439.25" cy="211.48310800000002" r="2.5" stroke="none" stroke-width="0" fill="#109618"></circle><circle cx="161.75" cy="229.37168400000002" r="2.5" stroke="none" stroke-width="0" fill="#990099"></circle><circle cx="254.25" cy="267.422262" r="2.5" stroke="none" stroke-width="0" fill="#990099"></circle><circle cx="346.75" cy="256.987728" r="2.5" stroke="none" stroke-width="0" fill="#990099"></circle><circle cx="439.25" cy="273.136322" r="2.5" stroke="none" stroke-width="0" fill="#990099"></circle><circle cx="161.75" cy="232.613616" r="2.5" stroke="none" stroke-width="0" fill="#0099c6"></circle><circle cx="254.25" cy="263.089008" r="2.5" stroke="none" stroke-width="0" fill="#0099c6"></circle><circle cx="346.75" cy="261.218572" r="2.5" stroke="none" stroke-width="0" fill="#0099c6"></circle><circle cx="439.25" cy="270.18072" r="2.5" stroke="none" stroke-width="0" fill="#0099c6"></circle></g><g><g><text text-anchor="middle" x="161.75" y="317.2" font-family="Arial" font-size="12" stroke="none" stroke-width="0" fill="#222222">puma x4:5</text></g><g><text text-anchor="middle" x="254.25" y="317.2" font-family="Arial" font-size="12" stroke="none" stroke-width="0" fill="#222222">puma x4:10</text></g><g><text text-anchor="middle" x="346.75" y="317.2" font-family="Arial" font-size="12" stroke="none" stroke-width="0" fill="#222222">puma x8:5</text></g><g><text text-anchor="middle" x="439.25" y="317.2" font-family="Arial" font-size="12" stroke="none" stroke-width="0" fill="#222222">puma x8:10</text></g><g><text text-anchor="end" x="103" y="303.7" font-family="Arial" font-size="12" stroke="none" stroke-width="0" fill="#444444">0</text></g><g><text text-anchor="end" x="103" y="246.7" font-family="Arial" font-size="12" stroke="none" stroke-width="0" fill="#444444">1500</text></g><g><text text-anchor="end" x="103" y="189.7" font-family="Arial" font-size="12" stroke="none" stroke-width="0" fill="#444444">3000</text></g><g><text text-anchor="end" x="103" y="132.7" font-family="Arial" font-size="12" stroke="none" stroke-width="0" fill="#444444">4500</text></g><g><text text-anchor="end" x="103" y="75.7" font-family="Arial" font-size="12" stroke="none" stroke-width="0" fill="#444444">6000</text></g></g></g><g><g><text text-anchor="middle" x="300.5" y="349.2" font-family="Arial" font-size="12" font-style="italic" stroke="none" stroke-width="0" fill="#222222">server</text><rect x="115" y="339" width="371" height="12" stroke="none" stroke-width="0" fill-opacity="0" fill="#ffffff"></rect></g><g><text text-anchor="middle" x="42.2" y="185.5" font-family="Arial" font-size="12" font-style="italic" transform="rotate(-90 42.2 185.5)" stroke="none" stroke-width="0" fill="#222222">avg resp time (ms)</text><path d="M31.999999999999996,300L32.00000000000001,71L44.00000000000001,71L43.99999999999999,300Z" stroke="none" stroke-width="0" fill-opacity="0" fill="#ffffff"></path></g></g><g></g></svg>
