<svg xmlns="http://www.w3.org/2000/svg" width="600" height="371" aria-label="A chart." style="overflow: hidden;"><defs id="defs"><clipPath id="_ABSTRACT_RENDERER_ID_8"><rect x="115" y="71" width="371" height="229"></rect></clipPath></defs><rect x="0" y="0" width="600" height="371" stroke="none" stroke-width="0" fill="#ffffff"></rect><g><text text-anchor="start" x="115" y="49.6" font-family="Arial" font-size="16" font-weight="bold" stroke="none" stroke-width="0" fill="#000000">Template Render, req/s</text><rect x="115" y="36" width="371" height="16" stroke="none" stroke-width="0" fill-opacity="0" fill="#ffffff"></rect></g><g><rect x="498" y="71" width="90" height="139" stroke="none" stroke-width="0" fill-opacity="0" fill="#ffffff"></rect><g><rect x="498" y="71" width="90" height="28" stroke="none" stroke-width="0" fill-opacity="0" fill="#ffffff"></rect><g><text text-anchor="start" x="527" y="81.2" font-family="Arial" font-size="12" stroke="none" stroke-width="0" fill="#222222">puma</text><text text-anchor="start" x="527" y="97.2" font-family="Arial" font-size="12" stroke="none" stroke-width="0" fill="#222222">x4:10</text></g><path d="M498,77L522,77" stroke="#3366cc" stroke-width="2" fill-opacity="1" fill="none"></path></g><g><rect x="498" y="106" width="90" height="12" stroke="none" stroke-width="0" fill-opacity="0" fill="#ffffff"></rect><g><text text-anchor="start" x="527" y="116.2" font-family="Arial" font-size="12" stroke="none" stroke-width="0" fill="#222222">puma x4:5</text></g><path d="M498,112L522,112" stroke="#dc3912" stroke-width="2" fill-opacity="1" fill="none"></path></g><g><rect x="498" y="125" width="90" height="28" stroke="none" stroke-width="0" fill-opacity="0" fill="#ffffff"></rect><g><text text-anchor="start" x="527" y="135.2" font-family="Arial" font-size="12" stroke="none" stroke-width="0" fill="#222222">puma</text><text text-anchor="start" x="527" y="151.2" font-family="Arial" font-size="12" stroke="none" stroke-width="0" fill="#222222">x8:10</text></g><path d="M498,131L522,131" stroke="#ff9900" stroke-width="2" fill-opacity="1" fill="none"></path></g><g><rect x="498" y="160" width="90" height="12" stroke="none" stroke-width="0" fill-opacity="0" fill="#ffffff"></rect><g><text text-anchor="start" x="527" y="170.2" font-family="Arial" font-size="12" stroke="none" stroke-width="0" fill="#222222">puma x8:5</text></g><path d="M498,166L522,166" stroke="#109618" stroke-width="2" fill-opacity="1" fill="none"></path></g><g><rect x="498" y="179" width="90" height="12" stroke="none" stroke-width="0" fill-opacity="0" fill="#ffffff"></rect><g><text text-anchor="start" x="527" y="189.2" font-family="Arial" font-size="12" stroke="none" stroke-width="0" fill="#222222">unicorn x4</text></g><path d="M498,185L522,185" stroke="#990099" stroke-width="2" fill-opacity="1" fill="none"></path><path d="M513.1819805153394,181.81801948466054L513.1819805153394,188.18198051533946L506.8180194846605,188.18198051533946L506.8180194846605,181.81801948466054Z" stroke="none" stroke-width="0" fill="#990099"></path></g><g><rect x="498" y="198" width="90" height="12" stroke="none" stroke-width="0" fill-opacity="0" fill="#ffffff"></rect><g><text text-anchor="start" x="527" y="208.2" font-family="Arial" font-size="12" stroke="none" stroke-width="0" fill="#222222">unicorn x8</text></g><path d="M498,204L522,204" stroke="#0099c6" stroke-width="2" fill-opacity="1" fill="none"></path><path d="M513.1819805153394,200.81801948466054L513.1819805153394,207.18198051533946L506.8180194846605,207.18198051533946L506.8180194846605,200.81801948466054Z" stroke="none" stroke-width="0" fill="#0099c6"></path></g></g><g><rect x="115" y="71" width="371" height="229" stroke="none" stroke-width="0" fill-opacity="0" fill="#ffffff"></rect><g clip-path="url(https://docs.google.com/spreadsheets/d/1QBKLAMgJuyzMsOVaBJ7J00NFR2OdGBEI_2cdokBZ3ag/edit#_ABSTRACT_RENDERER_ID_8)"><g><rect x="115" y="299" width="371" height="1" stroke="none" stroke-width="0" fill="#cccccc"></rect><rect x="115" y="242" width="371" height="1" stroke="none" stroke-width="0" fill="#cccccc"></rect><rect x="115" y="185" width="371" height="1" stroke="none" stroke-width="0" fill="#cccccc"></rect><rect x="115" y="128" width="371" height="1" stroke="none" stroke-width="0" fill="#cccccc"></rect><rect x="115" y="71" width="371" height="1" stroke="none" stroke-width="0" fill="#cccccc"></rect></g><g><rect x="115" y="299" width="371" height="1" stroke="none" stroke-width="0" fill="#333333"></rect></g><g><path d="M146.33333333333334,253.3015L208,157.798L269.66666666666663,162.5575L331.3333333333333,164.125L393,164.0395L454.66666666666663,166.177" stroke="#3366cc" stroke-width="2" fill-opacity="1" fill="none"></path><path d="M146.33333333333334,267.72249999999997L208,159.5365L269.66666666666663,164.2105L331.3333333333333,165.5215L393,166.2625L454.66666666666663,166.12" stroke="#dc3912" stroke-width="2" fill-opacity="1" fill="none"></path><path d="M146.33333333333334,254.242L208,135.05499999999998L269.66666666666663,133.68699999999998L331.3333333333333,130.894L393,131.4355L454.66666666666663,131.863" stroke="#ff9900" stroke-width="2" fill-opacity="1" fill="none"></path><path d="M146.33333333333334,255.8095L208,132.88899999999998L269.66666666666663,126.1345L331.3333333333333,125.536L393,125.96349999999998L454.66666666666663,125.87799999999999" stroke="#109618" stroke-width="2" fill-opacity="1" fill="none"></path><path d="M146.33333333333334,287.7295L208,141.3535L269.66666666666663,141.41049999999998L331.3333333333333,141.21099999999998L393,143.2345L454.66666666666663,140.983" stroke="#990099" stroke-width="2" fill-opacity="1" fill="none"></path><path d="M146.33333333333334,269.575L208,118.7815L269.66666666666663,118.0975L331.3333333333333,118.35399999999998L393,118.126L454.66666666666663,118.012" stroke="#0099c6" stroke-width="2" fill-opacity="1" fill="none"></path></g></g><g><path d="M149.5153138486728,284.5475194846605L149.5153138486728,290.91148051533946L143.15135281799388,290.91148051533946L143.15135281799388,284.5475194846605Z" stroke="none" stroke-width="0" fill="#990099"></path><path d="M211.18198051533946,138.17151948466054L211.18198051533946,144.53548051533946L204.81801948466054,144.53548051533946L204.81801948466054,138.17151948466054Z" stroke="none" stroke-width="0" fill="#990099"></path><path d="M272.8486471820061,138.22851948466052L272.8486471820061,144.59248051533945L266.48468615132714,144.59248051533945L266.48468615132714,138.22851948466052Z" stroke="none" stroke-width="0" fill="#990099"></path><path d="M334.5153138486728,138.02901948466052L334.5153138486728,144.39298051533945L328.1513528179938,144.39298051533945L328.1513528179938,138.02901948466052Z" stroke="none" stroke-width="0" fill="#990099"></path><path d="M396.1819805153395,140.05251948466054L396.1819805153395,146.41648051533946L389.8180194846605,146.41648051533946L389.8180194846605,140.05251948466054Z" stroke="none" stroke-width="0" fill="#990099"></path><path d="M457.8486471820061,137.80101948466054L457.8486471820061,144.16498051533947L451.48468615132714,144.16498051533947L451.48468615132714,137.80101948466054Z" stroke="none" stroke-width="0" fill="#990099"></path><path d="M149.5153138486728,266.3930194846605L149.5153138486728,272.7569805153395L143.15135281799388,272.7569805153395L143.15135281799388,266.3930194846605Z" stroke="none" stroke-width="0" fill="#0099c6"></path><path d="M211.18198051533946,115.59951948466053L211.18198051533946,121.96348051533946L204.81801948466054,121.96348051533946L204.81801948466054,115.59951948466053Z" stroke="none" stroke-width="0" fill="#0099c6"></path><path d="M272.8486471820061,114.91551948466054L272.8486471820061,121.27948051533946L266.48468615132714,121.27948051533946L266.48468615132714,114.91551948466054Z" stroke="none" stroke-width="0" fill="#0099c6"></path><path d="M334.5153138486728,115.17201948466052L334.5153138486728,121.53598051533945L328.1513528179938,121.53598051533945L328.1513528179938,115.17201948466052Z" stroke="none" stroke-width="0" fill="#0099c6"></path><path d="M396.1819805153395,114.94401948466054L396.1819805153395,121.30798051533947L389.8180194846605,121.30798051533947L389.8180194846605,114.94401948466054Z" stroke="none" stroke-width="0" fill="#0099c6"></path><path d="M457.8486471820061,114.83001948466054L457.8486471820061,121.19398051533946L451.48468615132714,121.19398051533946L451.48468615132714,114.83001948466054Z" stroke="none" stroke-width="0" fill="#0099c6"></path></g><g><g><text text-anchor="middle" x="146.33333333333334" y="317.2" font-family="Arial" font-size="12" stroke="none" stroke-width="0" fill="#222222">1</text></g><g><text text-anchor="middle" x="208" y="317.2" font-family="Arial" font-size="12" stroke="none" stroke-width="0" fill="#222222">10</text></g><g><text text-anchor="middle" x="269.66666666666663" y="317.2" font-family="Arial" font-size="12" stroke="none" stroke-width="0" fill="#222222">20</text></g><g><text text-anchor="middle" x="331.3333333333333" y="317.2" font-family="Arial" font-size="12" stroke="none" stroke-width="0" fill="#222222">30</text></g><g><text text-anchor="middle" x="393" y="317.2" font-family="Arial" font-size="12" stroke="none" stroke-width="0" fill="#222222">40</text></g><g><text text-anchor="middle" x="454.66666666666663" y="317.2" font-family="Arial" font-size="12" stroke="none" stroke-width="0" fill="#222222">50</text></g><g><text text-anchor="end" x="103" y="303.7" font-family="Arial" font-size="12" stroke="none" stroke-width="0" fill="#444444">0</text></g><g><text text-anchor="end" x="103" y="246.7" font-family="Arial" font-size="12" stroke="none" stroke-width="0" fill="#444444">20</text></g><g><text text-anchor="end" x="103" y="189.7" font-family="Arial" font-size="12" stroke="none" stroke-width="0" fill="#444444">40</text></g><g><text text-anchor="end" x="103" y="132.7" font-family="Arial" font-size="12" stroke="none" stroke-width="0" fill="#444444">60</text></g><g><text text-anchor="end" x="103" y="75.7" font-family="Arial" font-size="12" stroke="none" stroke-width="0" fill="#444444">80</text></g></g></g><g><g><text text-anchor="middle" x="300.5" y="349.2" font-family="Arial" font-size="12" font-style="italic" stroke="none" stroke-width="0" fill="#222222">concurrent requests</text><rect x="115" y="339" width="371" height="12" stroke="none" stroke-width="0" fill-opacity="0" fill="#ffffff"></rect></g><g><text text-anchor="middle" x="49.2" y="185.5" font-family="Arial" font-size="12" font-style="italic" transform="rotate(-90 49.2 185.5)" stroke="none" stroke-width="0" fill="#222222">req/s</text><path d="M38.99999999999999,300L39.00000000000001,71L51.00000000000001,71L50.99999999999999,300Z" stroke="none" stroke-width="0" fill-opacity="0" fill="#ffffff"></path></g></g><g></g></svg>
