<svg xmlns="http://www.w3.org/2000/svg" width="600" height="371" aria-label="A chart." style="overflow: hidden;"><defs id="defs"><clipPath id="_ABSTRACT_RENDERER_ID_6"><rect x="115" y="71" width="371" height="229"></rect></clipPath></defs><rect x="0" y="0" width="600" height="371" stroke="none" stroke-width="0" fill="#ffffff"></rect><g><text text-anchor="start" x="115" y="49.6" font-family="Arial" font-size="16" font-weight="bold" stroke="none" stroke-width="0" fill="#000000">Template Render, avg resp time (ms)</text><rect x="115" y="36" width="371" height="16" stroke="none" stroke-width="0" fill-opacity="0" fill="#ffffff"></rect></g><g><rect x="498" y="71" width="90" height="139" stroke="none" stroke-width="0" fill-opacity="0" fill="#ffffff"></rect><g><rect x="498" y="71" width="90" height="28" stroke="none" stroke-width="0" fill-opacity="0" fill="#ffffff"></rect><g><text text-anchor="start" x="527" y="81.2" font-family="Arial" font-size="12" stroke="none" stroke-width="0" fill="#222222">puma</text><text text-anchor="start" x="527" y="97.2" font-family="Arial" font-size="12" stroke="none" stroke-width="0" fill="#222222">x4:10</text></g><path d="M498,77L522,77" stroke="#3366cc" stroke-width="2" fill-opacity="1" fill="none"></path></g><g><rect x="498" y="106" width="90" height="12" stroke="none" stroke-width="0" fill-opacity="0" fill="#ffffff"></rect><g><text text-anchor="start" x="527" y="116.2" font-family="Arial" font-size="12" stroke="none" stroke-width="0" fill="#222222">puma x4:5</text></g><path d="M498,112L522,112" stroke="#dc3912" stroke-width="2" fill-opacity="1" fill="none"></path></g><g><rect x="498" y="125" width="90" height="28" stroke="none" stroke-width="0" fill-opacity="0" fill="#ffffff"></rect><g><text text-anchor="start" x="527" y="135.2" font-family="Arial" font-size="12" stroke="none" stroke-width="0" fill="#222222">puma</text><text text-anchor="start" x="527" y="151.2" font-family="Arial" font-size="12" stroke="none" stroke-width="0" fill="#222222">x8:10</text></g><path d="M498,131L522,131" stroke="#ff9900" stroke-width="2" fill-opacity="1" fill="none"></path></g><g><rect x="498" y="160" width="90" height="12" stroke="none" stroke-width="0" fill-opacity="0" fill="#ffffff"></rect><g><text text-anchor="start" x="527" y="170.2" font-family="Arial" font-size="12" stroke="none" stroke-width="0" fill="#222222">puma x8:5</text></g><path d="M498,166L522,166" stroke="#109618" stroke-width="2" fill-opacity="1" fill="none"></path></g><g><rect x="498" y="179" width="90" height="12" stroke="none" stroke-width="0" fill-opacity="0" fill="#ffffff"></rect><g><text text-anchor="start" x="527" y="189.2" font-family="Arial" font-size="12" stroke="none" stroke-width="0" fill="#222222">unicorn x4</text></g><path d="M498,185L522,185" stroke="#990099" stroke-width="2" fill-opacity="1" fill="none"></path><path d="M513.1819805153394,181.81801948466054L513.1819805153394,188.18198051533946L506.8180194846605,188.18198051533946L506.8180194846605,181.81801948466054Z" stroke="none" stroke-width="0" fill="#990099"></path></g><g><rect x="498" y="198" width="90" height="12" stroke="none" stroke-width="0" fill-opacity="0" fill="#ffffff"></rect><g><text text-anchor="start" x="527" y="208.2" font-family="Arial" font-size="12" stroke="none" stroke-width="0" fill="#222222">unicorn x8</text></g><path d="M498,204L522,204" stroke="#0099c6" stroke-width="2" fill-opacity="1" fill="none"></path><path d="M513.1819805153394,200.81801948466054L513.1819805153394,207.18198051533946L506.8180194846605,207.18198051533946L506.8180194846605,200.81801948466054Z" stroke="none" stroke-width="0" fill="#0099c6"></path></g></g><g><rect x="115" y="71" width="371" height="229" stroke="none" stroke-width="0" fill-opacity="0" fill="#ffffff"></rect><g clip-path="url(https://docs.google.com/spreadsheets/d/1QBKLAMgJuyzMsOVaBJ7J00NFR2OdGBEI_2cdokBZ3ag/edit#_ABSTRACT_RENDERER_ID_6)"><g><rect x="115" y="299" width="371" height="1" stroke="none" stroke-width="0" fill="#cccccc"></rect><rect x="115" y="242" width="371" height="1" stroke="none" stroke-width="0" fill="#cccccc"></rect><rect x="115" y="185" width="371" height="1" stroke="none" stroke-width="0" fill="#cccccc"></rect><rect x="115" y="128" width="371" height="1" stroke="none" stroke-width="0" fill="#cccccc"></rect><rect x="115" y="71" width="371" height="1" stroke="none" stroke-width="0" fill="#cccccc"></rect></g><g><rect x="115" y="299" width="371" height="1" stroke="none" stroke-width="0" fill="#333333"></rect></g><g><path d="M146.33333333333334,287.77624L208,261.28264L269.66666666666663,220.41915L331.3333333333333,179.51176999999998L393,139.61006L454.66666666666663,96.42933000000002" stroke="#3366cc" stroke-width="2" fill-opacity="1" fill="none"></path><path d="M146.33333333333334,282.45871L208,260.81467L269.66666666666663,219.44407L331.3333333333333,178.25359L393,136.91889999999998L454.66666666666663,96.49867999999998" stroke="#dc3912" stroke-width="2" fill-opacity="1" fill="none"></path><path d="M146.33333333333334,287.53228L208,266.57091L269.66666666666663,234.18959L331.3333333333333,203.15651L393,170.62927L454.66666666666663,137.99734" stroke="#ff9900" stroke-width="2" fill-opacity="1" fill="none"></path><path d="M146.33333333333334,287.1063L208,266.99822L269.66666666666663,237.02933L331.3333333333333,206.12184000000002L393,174.68957L454.66666666666663,143.56377" stroke="#109618" stroke-width="2" fill-opacity="1" fill="none"></path><path d="M146.33333333333334,253.50974L208,265.25915L269.66666666666663,230.99626L331.3333333333333,196.87948L393,160.88569L454.66666666666663,128.6862" stroke="#990099" stroke-width="2" fill-opacity="1" fill="none"></path><path d="M146.33333333333334,281.40402L208,269.53738L269.66666666666663,239.79934L331.3333333333333,209.82152L393,180.08519L454.66666666666663,150.31713" stroke="#0099c6" stroke-width="2" fill-opacity="1" fill="none"></path></g></g><g><path d="M149.5153138486728,250.32775948466053L149.5153138486728,256.69172051533945L143.15135281799388,256.69172051533945L143.15135281799388,250.32775948466053Z" stroke="none" stroke-width="0" fill="#990099"></path><path d="M211.18198051533946,262.0771694846605L211.18198051533946,268.44113051533947L204.81801948466054,268.44113051533947L204.81801948466054,262.0771694846605Z" stroke="none" stroke-width="0" fill="#990099"></path><path d="M272.8486471820061,227.81427948466055L272.8486471820061,234.17824051533947L266.48468615132714,234.17824051533947L266.48468615132714,227.81427948466055Z" stroke="none" stroke-width="0" fill="#990099"></path><path d="M334.5153138486728,193.69749948466054L334.5153138486728,200.06146051533946L328.1513528179938,200.06146051533946L328.1513528179938,193.69749948466054Z" stroke="none" stroke-width="0" fill="#990099"></path><path d="M396.1819805153395,157.70370948466055L396.1819805153395,164.06767051533947L389.8180194846605,164.06767051533947L389.8180194846605,157.70370948466055Z" stroke="none" stroke-width="0" fill="#990099"></path><path d="M457.8486471820061,125.50421948466055L457.8486471820061,131.86818051533947L451.48468615132714,131.86818051533947L451.48468615132714,125.50421948466055Z" stroke="none" stroke-width="0" fill="#990099"></path><path d="M149.5153138486728,278.2220394846605L149.5153138486728,284.5860005153395L143.15135281799388,284.5860005153395L143.15135281799388,278.2220394846605Z" stroke="none" stroke-width="0" fill="#0099c6"></path><path d="M211.18198051533946,266.3553994846605L211.18198051533946,272.7193605153395L204.81801948466054,272.7193605153395L204.81801948466054,266.3553994846605Z" stroke="none" stroke-width="0" fill="#0099c6"></path><path d="M272.8486471820061,236.61735948466054L272.8486471820061,242.98132051533946L266.48468615132714,242.98132051533946L266.48468615132714,236.61735948466054Z" stroke="none" stroke-width="0" fill="#0099c6"></path><path d="M334.5153138486728,206.63953948466053L334.5153138486728,213.00350051533945L328.1513528179938,213.00350051533945L328.1513528179938,206.63953948466053Z" stroke="none" stroke-width="0" fill="#0099c6"></path><path d="M396.1819805153395,176.90320948466055L396.1819805153395,183.26717051533947L389.8180194846605,183.26717051533947L389.8180194846605,176.90320948466055Z" stroke="none" stroke-width="0" fill="#0099c6"></path><path d="M457.8486471820061,147.13514948466053L457.8486471820061,153.49911051533945L451.48468615132714,153.49911051533945L451.48468615132714,147.13514948466053Z" stroke="none" stroke-width="0" fill="#0099c6"></path></g><g><g><text text-anchor="middle" x="146.33333333333334" y="317.2" font-family="Arial" font-size="12" stroke="none" stroke-width="0" fill="#222222">1</text></g><g><text text-anchor="middle" x="208" y="317.2" font-family="Arial" font-size="12" stroke="none" stroke-width="0" fill="#222222">10</text></g><g><text text-anchor="middle" x="269.66666666666663" y="317.2" font-family="Arial" font-size="12" stroke="none" stroke-width="0" fill="#222222">20</text></g><g><text text-anchor="middle" x="331.3333333333333" y="317.2" font-family="Arial" font-size="12" stroke="none" stroke-width="0" fill="#222222">30</text></g><g><text text-anchor="middle" x="393" y="317.2" font-family="Arial" font-size="12" stroke="none" stroke-width="0" fill="#222222">40</text></g><g><text text-anchor="middle" x="454.66666666666663" y="317.2" font-family="Arial" font-size="12" stroke="none" stroke-width="0" fill="#222222">50</text></g><g><text text-anchor="end" x="103" y="303.7" font-family="Arial" font-size="12" stroke="none" stroke-width="0" fill="#444444">0</text></g><g><text text-anchor="end" x="103" y="246.7" font-family="Arial" font-size="12" stroke="none" stroke-width="0" fill="#444444">300</text></g><g><text text-anchor="end" x="103" y="189.7" font-family="Arial" font-size="12" stroke="none" stroke-width="0" fill="#444444">600</text></g><g><text text-anchor="end" x="103" y="132.7" font-family="Arial" font-size="12" stroke="none" stroke-width="0" fill="#444444">900</text></g><g><text text-anchor="end" x="103" y="75.7" font-family="Arial" font-size="12" stroke="none" stroke-width="0" fill="#444444">1200</text></g></g></g><g><g><text text-anchor="middle" x="300.5" y="349.2" font-family="Arial" font-size="12" font-style="italic" stroke="none" stroke-width="0" fill="#222222">concurrent requests</text><rect x="115" y="339" width="371" height="12" stroke="none" stroke-width="0" fill-opacity="0" fill="#ffffff"></rect></g><g><text text-anchor="middle" x="42.2" y="185.5" font-family="Arial" font-size="12" font-style="italic" transform="rotate(-90 42.2 185.5)" stroke="none" stroke-width="0" fill="#222222">avg resp time (ms)</text><path d="M31.999999999999996,300L32.00000000000001,71L44.00000000000001,71L43.99999999999999,300Z" stroke="none" stroke-width="0" fill-opacity="0" fill="#ffffff"></path></g></g><g></g></svg>
