<?xml version="1.0" encoding="UTF-8" standalone="no"?>
<svg
   xmlns:dc="http://purl.org/dc/elements/1.1/"
   xmlns:cc="http://creativecommons.org/ns#"
   xmlns:rdf="http://www.w3.org/1999/02/22-rdf-syntax-ns#"
   xmlns:svg="http://www.w3.org/2000/svg"
   xmlns="http://www.w3.org/2000/svg"
   viewBox="0 0 1732.5 567.5"
   height="567.5"
   width="1732.5"
   xml:space="preserve"
   version="1.1"
   id="svg2"><metadata
     id="metadata8"><rdf:RDF><cc:Work
         rdf:about=""><dc:format>image/svg+xml</dc:format><dc:type
           rdf:resource="http://purl.org/dc/dcmitype/StillImage" /></cc:Work></rdf:RDF></metadata><defs
     id="defs6"><clipPath
       id="clipPath18"
       clipPathUnits="userSpaceOnUse"><path
         id="path20"
         d="m 0,0 1386,0 0,454 L 0,454 0,0 Z" /></clipPath></defs><g
     transform="matrix(1.25,0,0,-1.25,0,567.5)"
     id="g10"><g
       id="g12" /><g
       id="g14"><g
         clip-path="url(#clipPath18)"
         id="g16"><g
           transform="matrix(1,0,0,-1,-64,887)"
           id="g22"><path
             id="path24"
             style="fill:none;stroke:#5e5e5e;stroke-width:3;stroke-linecap:round;stroke-linejoin:round;stroke-miterlimit:10;stroke-dasharray:3, 12;stroke-dashoffset:0;stroke-opacity:1"
             d="m 598.828,444.0035 346.3096,-0.5807 c 10.3132,0.1171 19.2109,8.5039 18.7875,20.5772 m 0.003,-2.9492 -0.4628,397.2691 c 1.2831,8.3506 -7.8639,18.072 -19.5406,17.6801 m 1.599,0.005 -346.4892,-1.0951 c -9.7911,0.4519 -17.7905,-7.5699 -18.1098,-18.91 m -6e-4,1.5184 0.1558,-395.6684 c -0.4117,-8.5033 9.3053,-17.3809 19.8448,-17.85 m -1.7222,-0.4152 345.0138,-0.5768 c 11.9841,-0.2181 20.8818,8.1687 20.4584,20.242 m -0.079,-2.5739 -0.4433,394.6987 c 1.346,10.5457 -7.801,20.2671 -19.4777,19.8752 m 1.2235,0.538 -345.4183,-0.9366 C 589.9934,874.6118 581.994,866.59 581.6747,855.2499 m -0.4231,1.8933 -0.002,-394.0145 c 0.1682,-10.5321 9.8852,-19.4097 20.4247,-19.8788" /></g><g
           transform="matrix(1,0,0,-1,708.4251,227)"
           id="g26"><text
             id="text28"
             style="font-variant:normal;font-weight:normal;font-size:16px;font-family:Chalkduster;-inkscape-font-specification:Chalkduster;writing-mode:lr-tb;fill:#212121;fill-opacity:1;fill-rule:nonzero;stroke:none"
             transform="translate(-45.02983,-191)"><tspan
               id="tspan30"
               y="0"
               x="0 12.4464 19.3248 31.819201 41.577599 50.007999 56.870399 69.156799 80.531197">Rider API</tspan></text>
</g><g
           transform="matrix(1,0,0,-1,307.9251,388.5)"
           id="g32"><text
             id="text34"
             style="font-variant:normal;font-weight:normal;font-size:16px;font-family:Chalkduster;-inkscape-font-specification:Chalkduster;writing-mode:lr-tb;fill:#212121;fill-opacity:1;fill-rule:nonzero;stroke:none"
             transform="translate(-44.57901,7.393921)"><tspan
               id="tspan36"
               y="0"
               x="0 12.4464 18.764799 31.259199 41.177601 49.608002 57.558399 69.380798 79.267197">Rider App</tspan></text>
</g><g
           transform="matrix(1,0,0,-1,-64,887)"
           id="g38"><path
             id="path40"
             style="fill:none;stroke:#5e5e5e;stroke-width:3;stroke-linecap:round;stroke-linejoin:round;stroke-miterlimit:10;stroke-dasharray:none;stroke-opacity:1"
             d="m 371.9251,516.5 0,334.2154" /></g><g
           transform="matrix(1,0,0,-1,563.041,388.5)"
           id="g42"><text
             id="text44"
             style="font-variant:normal;font-weight:normal;font-size:16px;font-family:Chalkduster;-inkscape-font-specification:Chalkduster;writing-mode:lr-tb;fill:#212121;fill-opacity:1;fill-rule:nonzero;stroke:none"
             transform="translate(-16.36243,7.393921)"><tspan
               id="tspan46"
               y="0"
               x="0 11.8272 23.190399">API</tspan></text>
</g><g
           transform="matrix(1,0,0,-1,-64,887)"
           id="g48"><path
             id="path50"
             style="fill:none;stroke:#5e5e5e;stroke-width:3;stroke-linecap:round;stroke-linejoin:round;stroke-miterlimit:10;stroke-dasharray:none;stroke-opacity:1"
             d="m 627.041,516.5 0,332.0655" /></g><path
           id="path52"
           style="fill:#ffffff;fill-opacity:1;fill-rule:nonzero;stroke:none"
           d="m 549.6242,301 30.8336,0 0,-225 -30.8336,0 0,225 z" /><g
           transform="matrix(1,0,0,-1,-64,887)"
           id="g54"><path
             id="path56"
             style="fill:none;stroke:#5e5e5e;stroke-width:3;stroke-linecap:round;stroke-linejoin:round;stroke-miterlimit:10;stroke-dasharray:none;stroke-opacity:1"
             d="m 610.8357,585.9196 33.9049,0.9777 m -1.4305,-1.4858 0.3671,227.2438 m 0.8035,-2.6483 -30.5468,1.8419 m 1.1315,1.4268 -1.4516,-228.9165 m -2.3945,0.8897 32.4684,1.2202 m 0.3457,-1.4332 0.1339,224.6446 m 0.7096,0.3036 -29.443,1.4709 m -0.1398,1.4466 -1.5323,-227.2751" /></g><path
           id="path58"
           style="fill:#ffffff;fill-opacity:1;fill-rule:nonzero;stroke:none"
           d="m 308.9693,296.0817 0,0 223.6919,2.4744 -0.0782,7.0637 27.6757,-6.7584 -27.5194,-7.3689 -0.0781,7.0636 -223.6919,-2.4744 z" /><g
           transform="matrix(1,0,0,-1,-64,887)"
           id="g60"><path
             id="path62"
             style="fill:none;stroke:#5e5e5e;stroke-width:3;stroke-linecap:round;stroke-linejoin:round;stroke-miterlimit:10;stroke-dasharray:none;stroke-opacity:1"
             d="m 373.5515,591.8845 -2.0911,-3.4704 m -0.9712,1.2544 229.7139,-1.0467 m -2.6371,1.8112 -0.9177,-9.3851 m -1.0796,1.4734 29.9957,5.4974 m -1.2618,-0.6427 -28.9206,9.136 m 2.7683,0.5692 -0.2425,-9.667 m 2.6522,1.2392 -228.8821,2.2777 m 2.1447,0.641 -1.4982,-2.1285 m -1.4607,-0.2655 226.9013,-0.9556 m -0.0344,1.856 -0.7235,-7.686 m -1.0275,-0.4425 27.8958,5.1914 m 0.8706,0.0762 -26.1663,8.3421 m -0.3618,1.1542 -0.2347,-8.4011 m 2.9522,0.005 -227.5883,2.5104" /></g><g
           transform="matrix(0.9999388,0.01106116,0.01106116,-0.9999388,434.614,297.4716)"
           id="g64"><text
             id="text66"
             style="font-variant:normal;font-weight:normal;font-size:16px;font-family:Chalkduster;-inkscape-font-specification:Chalkduster;writing-mode:lr-tb;fill:#000000;fill-opacity:1;fill-rule:nonzero;stroke:none"
             transform="translate(-115.6524,-6.734282)"><tspan
               id="tspan68"
               y="0"
               x="0 11.1552 20.9184 28.2176 36.172798 47.824001 56.355202 68.854401 78.617599 86.876801">get orders</tspan></text>
</g><path
           id="path70"
           style="fill:#ffffff;fill-opacity:1;fill-rule:nonzero;stroke:none"
           d="m 560.2587,74.93633 0,0 -223.6919,-2.47444 -0.0781,7.06367 -27.5194,-7.36895 27.6756,-6.75839 -0.0781,7.06367 223.6919,2.47444 z" /><g
           transform="matrix(1,0,0,-1,-64,887)"
           id="g72"><path
             id="path74"
             style="fill:none;stroke:#5e5e5e;stroke-width:3;stroke-linecap:round;stroke-linejoin:round;stroke-miterlimit:10;stroke-dasharray:none;stroke-opacity:1"
             d="m 625.4704,813.2795 -2.628,-2.6369 m 3.0457,1.0124 -226.8547,4.2233 m 0.8623,2.7889 -0.4459,-14.5298 m 0.93,2.0537 -29.5063,8.2699 m 0.25,-0.4679 32.344,7.1691 m -2.2694,0.4451 -1.9767,-7.3717 m -2.1041,1.1959 228.6245,-3.3898 m -0.1242,1.0899 -1.5135,-1.6555 m 2.1638,0.0613 -226.0771,4.2811 m 0.01,2.4759 -0.6233,-12.2276 m 1.2213,-0.095 -28.493,7.8736 m -0.7928,-0.2913 29.8031,6.6114 m -0.0815,1.1577 -1.6674,-6.2111 m -2.0774,-0.2464 227.1427,-3.2778" /></g><g
           transform="matrix(0.9999388,0.01106116,0.01106116,-0.9999388,434.614,73.54647)"
           id="g76"><text
             id="text78"
             style="font-variant:normal;font-weight:normal;font-size:16px;font-family:Chalkduster;-inkscape-font-specification:Chalkduster;writing-mode:lr-tb;fill:#000000;fill-opacity:1;fill-rule:nonzero;stroke:none"
             transform="translate(-115.6524,-6.734282)"><tspan
               id="tspan80"
               y="0"
               x="0 11.1728 23.625601 28.5744 36.5312 48.183998 56.716801 69.217598 78.982399 87.419197 95.375999 103.0608 109.3696 117.9504">ok, order list</tspan></text>
</g><g
           transform="matrix(1,0,0,-1,825.6914,388.5)"
           id="g82"><text
             id="text84"
             style="font-variant:normal;font-weight:normal;font-size:16px;font-family:Chalkduster;-inkscape-font-specification:Chalkduster;writing-mode:lr-tb;fill:#212121;fill-opacity:1;fill-rule:nonzero;stroke:none"
             transform="translate(-42.48398,7.393921)"><tspan
               id="tspan86"
               y="0"
               x="0 10.6784 21.6768 29.187201 41.625599 51.504002 61.414398 72.444801">Bulkhead</tspan></text>
</g><g
           transform="matrix(1,0,0,-1,-64,887)"
           id="g88"><path
             id="path90"
             style="fill:none;stroke:#5e5e5e;stroke-width:3;stroke-linecap:round;stroke-linejoin:round;stroke-miterlimit:10;stroke-dasharray:none;stroke-opacity:1"
             d="m 889.6914,516.5 0,336.9644" /></g><g
           transform="matrix(1,0,0,-1,1085.425,388.5)"
           id="g92"><text
             id="text94"
             style="font-variant:normal;font-weight:normal;font-size:16px;font-family:Chalkduster;-inkscape-font-specification:Chalkduster;writing-mode:lr-tb;fill:#212121;fill-opacity:1;fill-rule:nonzero;stroke:none"
             transform="translate(-37.17127,7.393921)"><tspan
               id="tspan96"
               y="0"
               x="0 9.5296001 22.0352 31.948799 43.686401 50.992001 57.305599 64.611198">Identity</tspan></text>
</g><g
           transform="matrix(1,0,0,-1,-64,887)"
           id="g98"><path
             id="path100"
             style="fill:none;stroke:#5e5e5e;stroke-width:3;stroke-linecap:round;stroke-linejoin:round;stroke-miterlimit:10;stroke-dasharray:none;stroke-opacity:1"
             d="m 1149.425,516.5 0,340.6648" /></g><path
           id="path102"
           style="fill:#ffffff;fill-opacity:1;fill-rule:nonzero;stroke:none"
           d="m 1074.925,235 30.834,0 0,-41 -30.834,0 0,41 z" /><g
           transform="matrix(1,0,0,-1,-64,887)"
           id="g104"><path
             id="path106"
             style="fill:none;stroke:#5e5e5e;stroke-width:3;stroke-linecap:round;stroke-linejoin:round;stroke-miterlimit:10;stroke-dasharray:none;stroke-opacity:1"
             d="m 1136.518,651.9132 33.422,1.2047 m -1.676,-1.1948 2.407,43.9181 m 0.941,-1.7734 -36.625,-2.3607 m 2.913,2.5024 1.056,-43.4817 m -2.056,0.6117 31.808,1.1503 m 0.149,-0.9536 2.381,42.0735 m 0.741,0.1966 -33.663,-2.0417 m -0.411,2.0609 1.048,-42.2089" /></g><path
           id="path108"
           style="fill:#ffffff;fill-opacity:1;fill-rule:nonzero;stroke:none"
           d="m 810.2746,256.073 30.8336,0 0,-90.073 -30.8336,0 0,90.073 z" /><g
           transform="matrix(1,0,0,-1,-64,887)"
           id="g110"><path
             id="path112"
             style="fill:none;stroke:#5e5e5e;stroke-width:3;stroke-linecap:round;stroke-linejoin:round;stroke-miterlimit:10;stroke-dasharray:none;stroke-opacity:1"
             d="m 871.2789,631.033 34.4251,-1.2181 m -1.6462,-1.3579 0.3846,93.7354 m 2.0325,-2.0811 -32.6802,0.391 m 1.3304,2.0913 -0.8588,-92.5652 m -2.6132,0.6053 32.7815,-1.2498 m 0.358,-1.3034 0.2269,91.6793 m 1.8346,0.3239 -31.3735,0.0293 m -0.3294,2.1089 -0.8111,-91.667" /></g><path
           id="path114"
           style="fill:#ffffff;fill-opacity:1;fill-rule:nonzero;stroke:none"
           d="m 572.0032,252.1566 0,0 223.6919,2.4745 -0.0782,7.0636 27.6757,-6.7584 -27.5194,-7.3689 -0.0781,7.0637 -223.6919,-2.4745 z" /><g
           transform="matrix(1,0,0,-1,-64,887)"
           id="g116"><path
             id="path118"
             style="fill:none;stroke:#5e5e5e;stroke-width:3;stroke-linecap:round;stroke-linejoin:round;stroke-miterlimit:10;stroke-dasharray:none;stroke-opacity:1"
             d="m 637.2977,635.1741 -3.5676,-0.9113 m -0.0775,0.4281 229.152,-2.0718 m -2.1323,0.7973 -1.7556,-9.9041 m -2.3422,1.125 33.4684,9.2989 m -0.0805,-1.3223 -32.2875,6.9685 m 0.019,2.5676 3.5401,-13.4695 m 0.2171,2.8856 -228.2736,3.3184 m 4.4396,0.1323 -1.9041,-0.6842 m -1.6865,-0.1436 226.8819,-2.0525 m -0.0641,0.9409 -1.3555,-8.0486 m -2.4666,-1.0283 30.7687,8.4944 m 2.5592,-0.1973 -31.5103,7.0032 m -1.0409,2.4032 2.926,-10.5308 m 1.103,0.1423 -225.4452,3.4622" /></g><g
           transform="matrix(0.9999388,0.01106116,0.01106116,-0.9999388,697.6479,253.5465)"
           id="g120"><text
             id="text122"
             style="font-variant:normal;font-weight:normal;font-size:16px;font-family:Chalkduster;-inkscape-font-specification:Chalkduster;writing-mode:lr-tb;fill:#000000;fill-opacity:1;fill-rule:nonzero;stroke:none"
             transform="translate(-115.6524,-6.734282)"><tspan
               id="tspan124"
               y="0"
               x="0 10.0768 19.959999 30.143999 39.5312 51.9776 59.9328 68.012802 78.302399 86.382401 94.462402 100.7744 112.672 124.4112 132.36639 138.96159 150.1344 162.2448 172.3392">check session token</tspan></text>
</g><path
           id="path126"
           style="fill:#ffffff;fill-opacity:1;fill-rule:nonzero;stroke:none"
           d="m 831.0032,232.1566 0,0 223.6918,2.4745 -0.078,7.0636 27.676,-6.7584 -27.52,-7.3689 -0.078,7.0637 -223.6918,-2.4745 z" /><g
           transform="matrix(1,0,0,-1,-64,887)"
           id="g128"><path
             id="path130"
             style="fill:none;stroke:#5e5e5e;stroke-width:3;stroke-linecap:round;stroke-linejoin:round;stroke-miterlimit:10;stroke-dasharray:none;stroke-opacity:1"
             d="m 895.679,653.0414 -1.5403,4.107 m -1.3762,-1.5708 227.7695,-1.8228 m -2.927,1.7506 3.059,-11.9423 m -2.933,1.7778 30.042,8.1337 m 0.875,-0.9755 -32.017,6.3103 m 2.354,1.8772 1.576,-11.3902 m 0.372,2.8968 -226.6975,2.6592 m 1.8655,-2.1684 -0.6859,2.6177 m -2.2797,-0.3681 225.2876,-1.5798 m -0.506,1.7605 2.243,-9.5883 m -1.993,-0.7858 28.331,7.6478 m 2.578,0.005 -29.379,5.5303 m -0.656,2.3446 1.347,-8.4603 m 0.924,0.2868 -225.9323,2.4994" /></g><g
           transform="matrix(0.9999388,0.01106116,0.01106116,-0.9999388,956.6479,233.5465)"
           id="g132"><text
             id="text134"
             style="font-variant:normal;font-weight:normal;font-size:16px;font-family:Chalkduster;-inkscape-font-specification:Chalkduster;writing-mode:lr-tb;fill:#000000;fill-opacity:1;fill-rule:nonzero;stroke:none"
             transform="translate(-115.6524,-6.734282)"><tspan
               id="tspan136"
               y="0"
               x="0 10.0768 19.959999 30.143999 39.5312 51.9776 59.9328 68.012802 78.302399 86.382401 94.462402 100.7744 112.672 124.4112 132.36639 138.96159 150.1344 162.2448 172.3392">check session token</tspan></text>
</g><path
           id="path138"
           style="fill:#ffffff;fill-opacity:1;fill-rule:nonzero;stroke:none"
           d="m 1082.293,194.9363 0,0 -223.6923,-2.4744 -0.0781,7.0637 -27.5194,-7.369 27.6757,-6.7584 -0.0782,7.0637 223.6923,2.4744 z" /><g
           transform="matrix(1,0,0,-1,-64,887)"
           id="g140"><path
             id="path142"
             style="fill:none;stroke:#5e5e5e;stroke-width:3;stroke-linecap:round;stroke-linejoin:round;stroke-miterlimit:10;stroke-dasharray:none;stroke-opacity:1"
             d="m 1146.081,694.5678 0.475,-5.6145 m 2.103,1.6806 -227.8876,3.4862 m 3.0649,2.7186 -1.1914,-8.9245 m 2.0771,0.3312 -33.1333,8.0803 m 0.3892,-1.3174 32.5585,7.8789 m -2.2991,1.4557 -0.6338,-12.2145 m -2.6702,2.9018 228.3187,-2.9791 m -1.046,2.1205 0.335,-3.8991 m 2.494,0.0224 -225.1869,3.7473 m 0.0673,2.461 -0.8174,-8.1486 m 2.0455,-0.2938 -30.2302,7.3633 m -2.5341,-0.8998 30.1636,7.2566 m -0.2958,2.206 -0.2881,-9.3598 m -2.6512,-0.0239 227.3553,-3.2299" /></g><g
           transform="matrix(0.9999388,0.01106116,0.01106116,-0.9999388,956.6479,193.5465)"
           id="g144"><text
             id="text146"
             style="font-variant:normal;font-weight:normal;font-size:16px;font-family:Chalkduster;-inkscape-font-specification:Chalkduster;writing-mode:lr-tb;fill:#000000;fill-opacity:1;fill-rule:nonzero;stroke:none"
             transform="translate(-115.6524,-6.734282)"><tspan
               id="tspan148"
               y="0"
               x="0 11.1728">ok</tspan></text>
</g><path
           id="path150"
           style="fill:#ffffff;fill-opacity:1;fill-rule:nonzero;stroke:none"
           d="m 823.2926,164.9164 0,0 -223.6919,-2.4744 -0.0781,7.0636 -27.5194,-7.3689 27.6757,-6.7584 -0.0782,7.0637 223.6919,2.4744 z" /><g
           transform="matrix(1,0,0,-1,-64,887)"
           id="g152"><path
             id="path154"
             style="fill:none;stroke:#5e5e5e;stroke-width:3;stroke-linecap:round;stroke-linejoin:round;stroke-miterlimit:10;stroke-dasharray:none;stroke-opacity:1"
             d="m 886.6925,722.6877 2.3376,-2.3532 m 1.2945,1.1988 -230.2527,3.7478 m 2.9835,1.483 -0.5698,-11.8333 m 1.6348,0.8792 -30.7511,10.2733 m -0.639,-1.0962 34.4797,6.6105 m -1.713,1.1703 -2.8348,-9.8269 m -1.8363,2.7357 227.6179,-3.6114 m -1.4302,0.1939 1.0426,-1.1761 m 2.6463,0.2533 -227.3416,3.7784 m -0.0876,1.2818 -0.5102,-10.43 m 1.7825,-0.3816 -28.9119,9.6173 m -2.4671,-0.9099 32.3022,6.2301 m 0.3704,1.8799 -2.207,-7.0896 m -2.4345,-0.2142 226.4678,-3.5209" /></g><g
           transform="matrix(0.9999388,0.01106116,0.01106116,-0.9999388,697.6479,163.5265)"
           id="g156"><text
             id="text158"
             style="font-variant:normal;font-weight:normal;font-size:16px;font-family:Chalkduster;-inkscape-font-specification:Chalkduster;writing-mode:lr-tb;fill:#000000;fill-opacity:1;fill-rule:nonzero;stroke:none"
             transform="translate(-115.6524,-6.734282)"><tspan
               id="tspan160"
               y="0"
               x="0 11.1728">ok</tspan></text>
</g></g></g></g></svg>