<?xml version="1.0" encoding="UTF-8" standalone="no"?>
<svg
   xmlns:dc="http://purl.org/dc/elements/1.1/"
   xmlns:cc="http://creativecommons.org/ns#"
   xmlns:rdf="http://www.w3.org/1999/02/22-rdf-syntax-ns#"
   xmlns:svg="http://www.w3.org/2000/svg"
   xmlns="http://www.w3.org/2000/svg"
   viewBox="0 0 1732.5 781.25"
   height="781.25"
   width="1732.5"
   xml:space="preserve"
   version="1.1"
   id="svg2"><metadata
     id="metadata8"><rdf:RDF><cc:Work
         rdf:about=""><dc:format>image/svg+xml</dc:format><dc:type
           rdf:resource="http://purl.org/dc/dcmitype/StillImage" /></cc:Work></rdf:RDF></metadata><defs
     id="defs6"><clipPath
       id="clipPath18"
       clipPathUnits="userSpaceOnUse"><path
         id="path20"
         d="m 0,0 1386,0 0,625 L 0,625 0,0 Z" /></clipPath></defs><g
     transform="matrix(1.25,0,0,-1.25,0,781.25)"
     id="g10"><g
       id="g12" /><g
       id="g14"><g
         clip-path="url(#clipPath18)"
         id="g16"><g
           transform="matrix(1,0,0,-1,-64,1542)"
           id="g22"><path
             id="path24"
             style="fill:none;stroke:#5e5e5e;stroke-width:3;stroke-linecap:round;stroke-linejoin:round;stroke-miterlimit:10;stroke-dasharray:3, 12;stroke-dashoffset:0;stroke-opacity:1"
             d="m 341.2961,927.9984 606.2401,0.3864 c 9.5854,-0.49 18.2687,7.8747 18.306,19.6152 m -0.003,-1.6012 1.1524,564.8602 c -2.1408,11.996 -10.8751,19.016 -21.1492,19.741 m 1.588,0 -605.5605,0.792 c -8.4035,-1.042 -17.5931,-10.305 -18.0275,-20.79 m -10e-4,2.639 0.2866,-565.3919 C 324.4593,936.2125 332.8246,928.007 343.8422,928 m 1.8382,0 -4.3911,0 m 0.3818,-0.4591 603.3856,0.1945 c 12.8149,-0.5906 21.4982,7.7741 21.5355,19.5146 m -0.1222,-1.2268 1.1262,563.4808 c -1.9956,13.001 -10.7299,20.021 -21.004,20.746 m 1.2131,0.436 -603.4402,1.006 c -10.1489,-1.694 -19.3385,-10.957 -19.7729,-21.442 m -0.422,3.014 0.3039,-564.3061 c 0.7352,-13.4954 9.1005,-21.7009 20.1181,-21.7079 m 1.4632,0.4408 -1.8382,-0.008" /></g><g
           transform="matrix(1,0,0,-1,580.8422,312.5)"
           id="g26"><text
             id="text28"
             style="font-variant:normal;font-weight:normal;font-size:16px;font-family:Chalkduster;-inkscape-font-specification:Chalkduster;writing-mode:lr-tb;fill:#212121;fill-opacity:1;fill-rule:nonzero;stroke:none"
             transform="translate(-45.02983,-276.5)"><tspan
               id="tspan30"
               y="0"
               x="0 12.4464 19.3248 31.819201 41.577599 50.007999 56.870399 69.156799 80.531197">Rider API</tspan></text>
</g><g
           transform="matrix(1,0,0,-1,50.84224,548.5365)"
           id="g32"><text
             id="text34"
             style="font-variant:normal;font-weight:normal;font-size:16px;font-family:Chalkduster;-inkscape-font-specification:Chalkduster;writing-mode:lr-tb;fill:#212121;fill-opacity:1;fill-rule:nonzero;stroke:none"
             transform="translate(-44.57901,7.393921)"><tspan
               id="tspan36"
               y="0"
               x="0 12.4464 18.764799 31.259199 41.177601 49.608002 57.558399 69.380798 79.267197">Rider App</tspan></text>
</g><g
           transform="matrix(1,0,0,-1,-64,1542)"
           id="g38"><path
             id="path40"
             style="fill:none;stroke:#5e5e5e;stroke-width:3;stroke-linecap:round;stroke-linejoin:round;stroke-miterlimit:10;stroke-dasharray:none;stroke-opacity:1"
             d="m 114.8422,1011.463 0,494.252" /></g><g
           transform="matrix(1,0,0,-1,305.9581,548.5365)"
           id="g42"><text
             id="text44"
             style="font-variant:normal;font-weight:normal;font-size:16px;font-family:Chalkduster;-inkscape-font-specification:Chalkduster;writing-mode:lr-tb;fill:#212121;fill-opacity:1;fill-rule:nonzero;stroke:none"
             transform="translate(-16.36243,7.393921)"><tspan
               id="tspan46"
               y="0"
               x="0 11.8272 23.190399">API</tspan></text>
</g><g
           transform="matrix(1,0,0,-1,-64,1542)"
           id="g48"><path
             id="path50"
             style="fill:none;stroke:#5e5e5e;stroke-width:3;stroke-linecap:round;stroke-linejoin:round;stroke-miterlimit:10;stroke-dasharray:none;stroke-opacity:1"
             d="m 369.9581,1011.463 0,492.103" /></g><path
           id="path52"
           style="fill:#ffffff;fill-opacity:1;fill-rule:nonzero;stroke:none"
           d="m 292.5413,301 30.8336,0 0,-225 -30.8336,0 0,225 z" /><g
           transform="matrix(1,0,0,-1,-64,1542)"
           id="g54"><path
             id="path56"
             style="fill:none;stroke:#5e5e5e;stroke-width:3;stroke-linecap:round;stroke-linejoin:round;stroke-miterlimit:10;stroke-dasharray:none;stroke-opacity:1"
             d="m 355.5534,1241.037 35.5843,-1.335 m -2.9772,-0.863 -1.9427,228.258 m 1.8802,-1.61 -33.5628,1.053 m 1.6369,2.265 0.3731,-230.17 m -0.6294,1.693 32.6023,-1.131 m 0.0472,-0.733 -1.9487,226.707 m 1.8651,0.217 -31.9216,1.022 m -0.3446,2.019 0.6042,-227.804" /></g><path
           id="path58"
           style="fill:#ffffff;fill-opacity:1;fill-rule:nonzero;stroke:none"
           d="m 51.88646,296.0817 0,0 223.69184,2.4744 -0.0781,7.0637 27.6757,-6.7584 -27.5194,-7.3689 -0.0782,7.0636 -223.69184,-2.4744 z" /><g
           transform="matrix(1,0,0,-1,-64,1542)"
           id="g60"><path
             id="path62"
             style="fill:none;stroke:#5e5e5e;stroke-width:3;stroke-linecap:round;stroke-linejoin:round;stroke-miterlimit:10;stroke-dasharray:none;stroke-opacity:1"
             d="m 114.359,1246.311 3.4324,-0.883 m -1.9931,0.199 225.9149,-1.514 m -2.1844,2.847 1.7317,-11.706 m -2.2575,1.719 30.534,7.659 m 0.131,-0.999 -33.1492,7.404 m 2.4158,1.855 2.6238,-13.275 m 0.633,2.873 -227.1093,3.44 m -0.388,-0.149 2.6919,-0.694 m -1.2138,-0.01 224.1489,-1.634 m -0.5508,3.119 1.4836,-9.491 m -1.8616,-0.533 28.4801,7.176 m 2.2363,-0.165 -30.2703,6.611 m -0.8287,2.295 2.2,-10.355 m 1.3603,0.245 -226.3054,3.402" /></g><g
           transform="matrix(0.9999388,0.01106116,0.01106116,-0.9999388,177.5312,297.4716)"
           id="g64"><text
             id="text66"
             style="font-variant:normal;font-weight:normal;font-size:16px;font-family:Chalkduster;-inkscape-font-specification:Chalkduster;writing-mode:lr-tb;fill:#000000;fill-opacity:1;fill-rule:nonzero;stroke:none"
             transform="translate(-115.6524,-6.734282)"><tspan
               id="tspan68"
               y="0"
               x="0 11.1552 20.9184 28.2176 36.172798 47.824001 56.355202 68.854401 78.617599 86.876801">get orders</tspan></text>
</g><path
           id="path70"
           style="fill:#ffffff;fill-opacity:1;fill-rule:nonzero;stroke:none"
           d="m 303.1759,74.93633 0,0 -223.69191,-2.47444 -0.07814,7.06367 -27.51939,-7.36895 27.67566,-6.75839 -0.07813,7.06367 223.69191,2.47444 z" /><g
           transform="matrix(1,0,0,-1,-64,1542)"
           id="g72"><path
             id="path74"
             style="fill:none;stroke:#5e5e5e;stroke-width:3;stroke-linecap:round;stroke-linejoin:round;stroke-miterlimit:10;stroke-dasharray:none;stroke-opacity:1"
             d="m 369.183,1466.25 -4.1876,1.697 m 2.2635,-0.302 -226.8697,0.715 m 1.6982,1.583 2.0414,-11.574 m 1.0411,2.246 -30.2552,10.384 m -1.131,-0.73 31.1358,5.545 m -2.7954,1.684 0.6143,-11.152 m -1.1581,2.888 226.5917,-2.18 m 1.5214,-0.845 -3.5598,1.141 m 1.5013,0.234 -224.8916,0.616 m -0.644,1.304 1.7277,-8.772 m 1.7247,-0.473 -29.1399,10.333 m -2.2286,-0.835 28.4858,4.92 m -0.5184,2.427 0.6282,-8.264 m -0.8235,0.011 225.5953,-2.185" /></g><g
           transform="matrix(0.9999388,0.01106116,0.01106116,-0.9999388,177.5312,73.54647)"
           id="g76"><text
             id="text78"
             style="font-variant:normal;font-weight:normal;font-size:16px;font-family:Chalkduster;-inkscape-font-specification:Chalkduster;writing-mode:lr-tb;fill:#000000;fill-opacity:1;fill-rule:nonzero;stroke:none"
             transform="translate(-115.6524,-6.734282)"><tspan
               id="tspan80"
               y="0"
               x="0 11.1728 23.625601 28.5744 36.5312 48.183998 56.716801 69.217598 78.982399 87.419197 95.375999 103.0608 109.3696 117.9504">ok, order list</tspan></text>
</g><g
           transform="matrix(1,0,0,-1,568.6086,536.0365)"
           id="g82"><text
             id="text84"
             style="font-variant:normal;font-weight:normal;font-size:16px;font-family:Chalkduster;-inkscape-font-specification:Chalkduster;writing-mode:lr-tb;fill:#212121;fill-opacity:1;fill-rule:nonzero;stroke:none"
             transform="translate(-62.23204,-5.212158)"><tspan
               id="tspan86"
               y="0"
               x="0 12.4464 22.364799 33.403198 45.897598 55.576 62.886398 72.772797 81.203201 92.689598 103.68 114.5904">Read-through</tspan></text>
</g><g
           transform="matrix(1,0,0,-1,568.6086,536.0365)"
           id="g88"><text
             id="text90"
             style="font-variant:normal;font-weight:normal;font-size:16px;font-family:Chalkduster;-inkscape-font-specification:Chalkduster;writing-mode:lr-tb;fill:#212121;fill-opacity:1;fill-rule:nonzero;stroke:none"
             transform="translate(-21.49894,20)"><tspan
               id="tspan92"
               y="0"
               x="0 10.0512 21.0784 31.129601 41.004799">cache</tspan></text>
</g><g
           transform="matrix(1,0,0,-1,-64,1542)"
           id="g94"><path
             id="path96"
             style="fill:none;stroke:#5e5e5e;stroke-width:3;stroke-linecap:round;stroke-linejoin:round;stroke-miterlimit:10;stroke-dasharray:none;stroke-opacity:1"
             d="m 632.6086,1036.463 0,472.001" /></g><g
           transform="matrix(1,0,0,-1,828.3422,548.5365)"
           id="g98"><text
             id="text100"
             style="font-variant:normal;font-weight:normal;font-size:16px;font-family:Chalkduster;-inkscape-font-specification:Chalkduster;writing-mode:lr-tb;fill:#212121;fill-opacity:1;fill-rule:nonzero;stroke:none"
             transform="translate(-58.94365,7.393921)"><tspan
               id="tspan102"
               y="0"
               x="0 9.5296001 21.2672 28.5728 38.486401 46.928001 58.6656 69.699203 77.212799 85.1744 97.008003 108.3776">Internal API</tspan></text>
</g><g
           transform="matrix(1,0,0,-1,-64,1542)"
           id="g104"><path
             id="path106"
             style="fill:none;stroke:#5e5e5e;stroke-width:3;stroke-linecap:round;stroke-linejoin:round;stroke-miterlimit:10;stroke-dasharray:none;stroke-opacity:1"
             d="m 892.3422,1011.463 0,500.702" /></g><path
           id="path108"
           style="fill:#ffffff;fill-opacity:1;fill-rule:nonzero;stroke:none"
           d="m 553.1918,256.073 30.8336,0 0,-90.073 -30.8336,0 0,90.073 z" /><g
           transform="matrix(1,0,0,-1,-64,1542)"
           id="g110"><path
             id="path112"
             style="fill:none;stroke:#5e5e5e;stroke-width:3;stroke-linecap:round;stroke-linejoin:round;stroke-miterlimit:10;stroke-dasharray:none;stroke-opacity:1"
             d="m 614.3351,1286.017 35.1039,-1.101 m -0.9221,-2.89 -0.0391,96.26 m 2.0935,-0.601 -34.383,-3.194 m 1.2396,0.998 -0.2414,-91.559 m -2.4839,1.474 34.1866,-0.885 m 0.277,-2.868 -0.1289,95.465 m 1.9055,0.231 -33.1529,-3.002 m -0.1678,0.77 -0.262,-89.562" /></g><path
           id="path114"
           style="fill:#ffffff;fill-opacity:1;fill-rule:nonzero;stroke:none"
           d="m 314.9204,252.1566 0,0 223.6919,2.4745 -0.0782,7.0636 27.6757,-6.7584 -27.5194,-7.3689 -0.0781,7.0637 -223.6919,-2.4745 z" /><g
           transform="matrix(1,0,0,-1,-64,1542)"
           id="g116"><path
             id="path118"
             style="fill:none;stroke:#5e5e5e;stroke-width:3;stroke-linecap:round;stroke-linejoin:round;stroke-miterlimit:10;stroke-dasharray:none;stroke-opacity:1"
             d="m 377.7308,1289.973 3.0122,-0.329 m -1.8912,0.115 223.7356,-2.777 m -1.0073,0.863 -0.015,-10.174 m -1.5743,1.443 33.1716,8.101 m 0.2341,-0.921 -30.6631,9.342 m 1.3549,1.731 -1.5808,-12.053 m 2.3429,2.455 -228.077,2.094 m 1.3256,-0.327 2.0369,-0.506 m -0.9096,0.313 222.7262,-2.825 m -0.2684,0.952 0.01,-8.345 m -1.2877,-0.55 31.6542,7.598 m 1.7976,0.029 -29.562,9.066 m -0.0645,1.754 -1.3253,-9.57 m 2.321,0.108 -225.9311,1.949" /></g><g
           transform="matrix(0.9999388,0.01106116,0.01106116,-0.9999388,440.5651,253.5465)"
           id="g120"><text
             id="text122"
             style="font-variant:normal;font-weight:normal;font-size:16px;font-family:Chalkduster;-inkscape-font-specification:Chalkduster;writing-mode:lr-tb;fill:#000000;fill-opacity:1;fill-rule:nonzero;stroke:none"
             transform="translate(-115.6524,-6.734282)"><tspan
               id="tspan124"
               y="0"
               x="0 10.0768 19.959999 30.143999 39.5312 51.9776 59.9328 68.012802 78.302399 86.382401 94.462402 100.7744 112.672 124.4112 132.36639 138.96159 150.1344 162.2448 172.3392">check session token</tspan></text>
</g><path
           id="path126"
           style="fill:#ffffff;fill-opacity:1;fill-rule:nonzero;stroke:none"
           d="m 825.2098,314.6764 0,0 -223.6919,-2.4745 -0.0781,7.0637 -27.5194,-7.369 27.6756,-6.7583 -0.0781,7.0636 223.6919,2.4745 z" /><g
           transform="matrix(1,0,0,-1,-64,1542)"
           id="g128"><path
             id="path130"
             style="fill:none;stroke:#5e5e5e;stroke-width:3;stroke-linecap:round;stroke-linejoin:round;stroke-miterlimit:10;stroke-dasharray:none;stroke-opacity:1"
             d="m 887.6956,1226.378 3.6083,2.253 m 0.3957,-0.53 -226.9234,2.471 m 1.1589,1.833 0.4207,-12.301 m 1.1253,2.094 -31.1415,8.223 m 0.9598,-1.171 29.1739,7.559 m -1.0727,1.456 1.3563,-9.834 m -2.1452,2.436 226.9367,-3.58 m -3.3382,-1.507 2.7798,1.735 m 1.0866,0.394 -225.7031,2.294 m -0.1929,1.823 0.4588,-9.884 m 1.2502,-0.192 -28.4039,7.602 m -1.7776,-0.807 28.3266,7.362 m -0.534,1.745 0.9775,-7.433 m -1.4966,-0.244 224.5995,-3.457" /></g><g
           transform="matrix(0.9999388,0.01106116,0.01106116,-0.9999388,699.5651,313.2865)"
           id="g132"><text
             id="text134"
             style="font-variant:normal;font-weight:normal;font-size:16px;font-family:Chalkduster;-inkscape-font-specification:Chalkduster;writing-mode:lr-tb;fill:#000000;fill-opacity:1;fill-rule:nonzero;stroke:none"
             transform="translate(-115.6524,-6.734282)"><tspan
               id="tspan136"
               y="0"
               x="0 9.4591999 19.996799 30.073601 39.956799 49.875198 57.830399 65.9104 76.199997 84.279999 92.360001 98.671997 110.5696 122.3088 130.26401 136.85921 148.032 160.1424 170.2368">cache session token</tspan></text>
</g><path
           id="path138"
           style="fill:#ffffff;fill-opacity:1;fill-rule:nonzero;stroke:none"
           d="m 566.2098,164.9164 0,0 -223.6919,-2.4744 -0.0781,7.0636 -27.5194,-7.3689 27.6756,-6.7584 -0.0781,7.0637 223.6919,2.4744 z" /><g
           transform="matrix(1,0,0,-1,-64,1542)"
           id="g140"><path
             id="path142"
             style="fill:none;stroke:#5e5e5e;stroke-width:3;stroke-linecap:round;stroke-linejoin:round;stroke-miterlimit:10;stroke-dasharray:none;stroke-opacity:1"
             d="m 631.9028,1378.747 -3.7556,-3.69 m 2.2176,0.685 -226.2881,2.729 m 1.1511,2.814 0.9203,-9.166 m 0.7753,0.538 -28.8611,7.055 m 0.004,-0.813 30.2565,6.947 m -2.7038,0.659 -0.6506,-10.646 m -1.464,2.37 229.2366,-1.158 m -0.5251,1.365 -3.1056,-2.921 m 1.6339,0.177 -224.8529,2.699 m -0.6495,2.483 1.064,-8.398 m 1.0152,-0.103 -27.128,6.701 m -1.6738,-0.889 27.451,6.405 m -0.2964,1.559 -0.5314,-8.283 m -1.2635,-0.106 226.7061,-1.098" /></g><g
           transform="matrix(0.9999388,0.01106116,0.01106116,-0.9999388,440.5651,163.5265)"
           id="g144"><text
             id="text146"
             style="font-variant:normal;font-weight:normal;font-size:16px;font-family:Chalkduster;-inkscape-font-specification:Chalkduster;writing-mode:lr-tb;fill:#000000;fill-opacity:1;fill-rule:nonzero;stroke:none"
             transform="translate(-115.6524,-6.734282)"><tspan
               id="tspan148"
               y="0"
               x="0 11.1728">ok</tspan></text>
</g><g
           transform="matrix(1,0,0,-1,1081.008,548.5365)"
           id="g150"><text
             id="text152"
             style="font-variant:normal;font-weight:normal;font-size:16px;font-family:Chalkduster;-inkscape-font-specification:Chalkduster;writing-mode:lr-tb;fill:#212121;fill-opacity:1;fill-rule:nonzero;stroke:none"
             transform="translate(-43.53591,7.393921)"><tspan
               id="tspan154"
               y="0"
               x="0 11.8272 21.7824 31.705601 43.436798 50.736 58.6912 67.990402 78.985603">Event bus</tspan></text>
</g><g
           transform="matrix(1,0,0,-1,-64,1542)"
           id="g156"><path
             id="path158"
             style="fill:none;stroke:#5e5e5e;stroke-width:3;stroke-linecap:round;stroke-linejoin:round;stroke-miterlimit:10;stroke-dasharray:none;stroke-opacity:1"
             d="m 1144.991,1011.463 -0.483,500.702" /></g><g
           transform="matrix(1,0,0,-1,1342.508,548.5365)"
           id="g160"><text
             id="text162"
             style="font-variant:normal;font-weight:normal;font-size:16px;font-family:Chalkduster;-inkscape-font-specification:Chalkduster;writing-mode:lr-tb;fill:#212121;fill-opacity:1;fill-rule:nonzero;stroke:none"
             transform="translate(-37.17127,7.393921)"><tspan
               id="tspan164"
               y="0"
               x="0 9.5296001 22.0352 31.948799 43.686401 50.992001 57.305599 64.611198">Identity</tspan></text>
</g><g
           transform="matrix(1,0,0,-1,-64,1542)"
           id="g166"><path
             id="path168"
             style="fill:none;stroke:#5e5e5e;stroke-width:3;stroke-linecap:round;stroke-linejoin:round;stroke-miterlimit:10;stroke-dasharray:none;stroke-opacity:1"
             d="m 1406.508,1011.463 0,500.702" /></g><path
           id="path170"
           style="fill:#ffffff;fill-opacity:1;fill-rule:nonzero;stroke:none"
           d="m 51.88646,479.1367 0,0 223.69184,2.4744 -0.0781,7.0637 27.6757,-6.7584 -27.5194,-7.369 -0.0782,7.0637 -223.69184,-2.4744 z" /><g
           transform="matrix(1,0,0,-1,-64,1542)"
           id="g172"><path
             id="path174"
             style="fill:none;stroke:#5e5e5e;stroke-width:3;stroke-linecap:round;stroke-linejoin:round;stroke-miterlimit:10;stroke-dasharray:none;stroke-opacity:1"
             d="m 115.0835,1062.717 2.5121,0.457 m -4.0079,-0.151 229.0559,-4.108 m -2.3002,1.11 -1.4764,-7.793 m -0.9687,1.18 29.8317,5.431 m 0.3805,-0.594 -30.4507,8.482 m 1.5969,1.188 -0.7982,-10.794 m 2.9827,1.989 -226.7943,3.77 m 0.8727,-0.877 1.3604,0.439 m -2.9224,-0.084 226.554,-4.053 m 0.1754,1.347 -1.2448,-6.382 m -1.1189,-0.511 28.7566,5.322 m 1.4835,0.069 -29.003,7.959 m -0.0907,1.443 -0.5624,-8.764 m 2.9106,0.047 -225.5523,3.898" /></g><g
           transform="matrix(0.9999388,0.01106116,0.01106116,-0.9999388,177.5312,480.5265)"
           id="g176"><text
             id="text178"
             style="font-variant:normal;font-weight:normal;font-size:16px;font-family:Chalkduster;-inkscape-font-specification:Chalkduster;writing-mode:lr-tb;fill:#000000;fill-opacity:1;fill-rule:nonzero;stroke:none"
             transform="translate(-115.6524,-6.734282)"><tspan
               id="tspan180"
               y="0"
               x="0 6.8944001 18.636801 30.107201 36.425598">login</tspan></text>
</g><path
           id="path182"
           style="fill:#ffffff;fill-opacity:1;fill-rule:nonzero;stroke:none"
           d="m 309.6617,455.2097 0,0 996.5813,0 0,7.0641 27.599,-7.0641 -27.599,-7.0641 0,7.0641 -996.5813,0 z" /><g
           transform="matrix(1,0,0,-1,-64,1542)"
           id="g184"><path
             id="path186"
             style="fill:none;stroke:#5e5e5e;stroke-width:3;stroke-linecap:round;stroke-linejoin:round;stroke-miterlimit:10;stroke-dasharray:none;stroke-opacity:1"
             d="m 372.6762,1085.79 2.7802,2.823 m -1.7339,-0.828 998.3135,-1.292 m -3.491,1.935 3.881,-9.673 m -1.595,1.619 28.427,8.464 m -0.795,-1.005 -28.063,7.054 m 1.47,0.881 -2.295,-11.523 m 3.013,1.938 -1000.3578,0.608 m 0.9396,-1.493 1.8969,2.061 m -0.9693,-10e-4 995.5976,-1.43 m -1.022,2.026 3.191,-7.778 m -0.589,-0.408 26.199,7.922 m 1.395,-0.107 -26.786,6.92 m -0.04,0.931 -1.803,-9.605 m 2.724,0.23 -998.9272,0.421" /></g><g
           transform="matrix(1,0,0,-1,821.752,455.2097)"
           id="g188"><text
             id="text190"
             style="font-variant:normal;font-weight:normal;font-size:16px;font-family:Chalkduster;-inkscape-font-specification:Chalkduster;writing-mode:lr-tb;fill:#000000;fill-opacity:1;fill-rule:nonzero;stroke:none"
             transform="translate(-502.0902,-6.734282)"><tspan
               id="tspan192"
               y="0"
               x="0 9.7231998 17.820801 27.739201 37.675201 44.8176 54.736 62.6912 70.771202 81.060799 89.1408 97.220802 103.5328 115.4304">create session</tspan></text>
</g><path
           id="path194"
           style="fill:#ffffff;fill-opacity:1;fill-rule:nonzero;stroke:none"
           d="m 1333.764,422.9363 0,0 -223.692,-2.4744 -0.078,7.0637 -27.519,-7.369 27.675,-6.7584 -0.078,7.0637 223.692,2.4744 z" /><g
           transform="matrix(1,0,0,-1,-64,1542)"
           id="g196"><path
             id="path198"
             style="fill:none;stroke:#5e5e5e;stroke-width:3;stroke-linecap:round;stroke-linejoin:round;stroke-miterlimit:10;stroke-dasharray:none;stroke-opacity:1"
             d="m 1396.223,1120.327 3.827,-3.137 m 0.276,0.73 -228.591,4.517 m 2.984,0.77 -0.669,-9.84 m 2.854,1.935 -32.696,8.063 m -0.154,-0.541 31.385,5.532 m -0.995,0.65 0.042,-9.364 m -2.43,1.939 227.331,-2.535 m -3.022,0.622 2.908,-2.382 m 1.432,0.454 -225.665,4.374 m -0.07,0.726 -0.704,-7.23 m 3.061,-0.486 -31.515,7.621 m -1.323,-0.633 30.346,5.624 m -0.265,0.894 0.163,-7.451 m -2.303,0 225.706,-2.745" /></g><g
           transform="matrix(0.9999388,0.01106116,0.01106116,-0.9999388,1208.119,421.5465)"
           id="g200"><text
             id="text202"
             style="font-variant:normal;font-weight:normal;font-size:16px;font-family:Chalkduster;-inkscape-font-specification:Chalkduster;writing-mode:lr-tb;fill:#000000;fill-opacity:1;fill-rule:nonzero;stroke:none"
             transform="translate(-115.6524,-6.734282)"><tspan
               id="tspan204"
               y="0"
               x="0 11.4032 22.312 29.7024 35.254398 43.7584 53.499199 61.454399 71.177597 79.2752 89.193604 99.129601 106.272 116.1904 124.1456 132.2256 142.5152 150.5952 158.6752 164.9872 176.8848">notify create session</tspan></text>
</g><path
           id="path206"
           style="fill:#ffffff;fill-opacity:1;fill-rule:nonzero;stroke:none"
           d="m 1074.21,386.3327 0,0 -223.6921,-2.4745 -0.0781,7.0637 -27.5194,-7.369 27.6756,-6.7583 -0.0781,7.0636 223.6921,2.4745 z" /><g
           transform="matrix(1,0,0,-1,-64,1542)"
           id="g208"><path
             id="path210"
             style="fill:none;stroke:#5e5e5e;stroke-width:3;stroke-linecap:round;stroke-linejoin:round;stroke-miterlimit:10;stroke-dasharray:none;stroke-opacity:1"
             d="m 1140.747,1156.143 -4.979,-0.934 m 2.669,0.214 -225.7069,1.701 m 0.9319,1.82 -0.2098,-9.727 m 2.2796,0.18 -32.4712,10.882 m 1.039,-1.111 32.4026,8.208 m -3.5034,1.882 2.8263,-12.279 m -2.6313,1.832 226.6312,-3.169 m 1.062,0.315 -3.801,-0.618 m 1.528,0.045 -224.8162,1.387 m -0.3187,1.806 0.0721,-8.796 m 2.4082,-0.603 -30.0729,10.288 m -1.3676,-0.848 29.508,7.448 m -0.9381,2.752 2.5598,-10.445 m -2.0823,-0.116 224.8177,-3.035" /></g><g
           transform="matrix(0.9999388,0.01106116,0.01106116,-0.9999388,948.5651,384.9428)"
           id="g212"><text
             id="text214"
             style="font-variant:normal;font-weight:normal;font-size:16px;font-family:Chalkduster;-inkscape-font-specification:Chalkduster;writing-mode:lr-tb;fill:#000000;fill-opacity:1;fill-rule:nonzero;stroke:none"
             transform="translate(-115.6524,-6.734282)"><tspan
               id="tspan216"
               y="0"
               x="0 11.4032 22.312 29.7024 35.254398 43.7584 53.499199 61.454399 71.177597 79.2752 89.193604 99.129601 106.272 116.1904 124.1456 132.2256 142.5152 150.5952 158.6752 164.9872 176.8848">notify create session</tspan></text>
</g><path
           id="path218"
           style="fill:#ffffff;fill-opacity:1;fill-rule:nonzero;stroke:none"
           d="m 830.9204,352.1566 0,0 482.4006,0 0,7.0641 27.599,-7.0641 -27.599,-7.0641 0,7.0641 -482.4006,0 z" /><g
           transform="matrix(1,0,0,-1,-64,1542)"
           id="g220"><path
             id="path222"
             style="fill:none;stroke:#5e5e5e;stroke-width:3;stroke-linecap:round;stroke-linejoin:round;stroke-miterlimit:10;stroke-dasharray:none;stroke-opacity:1"
             d="m 895.6529,1189.287 -2.5804,1.961 m -0.7616,-0.75 486.7351,-0.545 m -1.187,2.825 0.338,-11.857 m -1.971,0.956 31.464,9.245 m -0.115,-0.692 -31.799,7.386 m 3.479,1.528 -3.791,-9.906 m 2.649,1.671 -485.1996,-1.271 m 3.1253,-0.912 -1.4784,1.357 m -1.8745,-0.264 485.6282,-0.761 m -0.296,3.139 0.28,-10.335 m -1.661,-0.682 30.144,8.683 m 1.173,0.01 -29.068,7.084 m 0.431,1.932 -2.992,-8.303 m 2.162,0.277 -483.1923,-1.334" /></g><g
           transform="matrix(1,0,0,-1,1085.92,352.1566)"
           id="g224"><text
             id="text226"
             style="font-variant:normal;font-weight:normal;font-size:16px;font-family:Chalkduster;-inkscape-font-specification:Chalkduster;writing-mode:lr-tb;fill:#000000;fill-opacity:1;fill-rule:nonzero;stroke:none"
             transform="translate(-245,-6.734282)"><tspan
               id="tspan228"
               y="0"
               x="0 11.1552 20.913601 28.216 36.1712 44.251202 54.540798 62.6208 70.700798 77.012802 88.9104 100.6496 108.6048 115.2 126.3728 138.4832 148.57761">get session token</tspan></text>
</g></g></g></g></svg>