<?xml version="1.0" encoding="UTF-8" standalone="no"?>
<svg
   xmlns:dc="http://purl.org/dc/elements/1.1/"
   xmlns:cc="http://creativecommons.org/ns#"
   xmlns:rdf="http://www.w3.org/1999/02/22-rdf-syntax-ns#"
   xmlns:svg="http://www.w3.org/2000/svg"
   xmlns="http://www.w3.org/2000/svg"
   viewBox="0 0 1732.5 477.5"
   height="477.5"
   width="1732.5"
   xml:space="preserve"
   version="1.1"
   id="svg2"><metadata
     id="metadata8"><rdf:RDF><cc:Work
         rdf:about=""><dc:format>image/svg+xml</dc:format><dc:type
           rdf:resource="http://purl.org/dc/dcmitype/StillImage" /></cc:Work></rdf:RDF></metadata><defs
     id="defs6"><clipPath
       id="clipPath18"
       clipPathUnits="userSpaceOnUse"><path
         id="path20"
         d="m 0,0 1386,0 0,382 L 0,382 0,0 Z" /></clipPath></defs><g
     transform="matrix(1.25,0,0,-1.25,0,477.5)"
     id="g10"><g
       id="g12" /><g
       id="g14"><g
         clip-path="url(#clipPath18)"
         id="g16"><g
           transform="matrix(1,0,0,-1,441.5592,363.2212)"
           id="g22"><text
             id="text24"
             style="font-variant:normal;font-weight:normal;font-size:16px;font-family:Chalkduster;-inkscape-font-specification:Chalkduster;writing-mode:lr-tb;fill:#212121;fill-opacity:1;fill-rule:nonzero;stroke:none"
             transform="translate(-44.57901,7.393921)"><tspan
               id="tspan26"
               y="0"
               x="0 12.4464 18.764799 31.259199 41.177601 49.608002 57.558399 69.380798 79.267197">Rider App</tspan></text>
</g><g
           transform="matrix(1,0,0,-1,-64,416)"
           id="g28"><path
             id="path30"
             style="fill:none;stroke:#5e5e5e;stroke-width:3;stroke-linecap:round;stroke-linejoin:round;stroke-miterlimit:10;stroke-dasharray:none;stroke-opacity:1"
             d="m 505.5592,70.77877 0,334.21533" /></g><g
           transform="matrix(1,0,0,-1,696.6751,363.2212)"
           id="g32"><text
             id="text34"
             style="font-variant:normal;font-weight:normal;font-size:16px;font-family:Chalkduster;-inkscape-font-specification:Chalkduster;writing-mode:lr-tb;fill:#212121;fill-opacity:1;fill-rule:nonzero;stroke:none"
             transform="translate(-45.14475,7.393921)"><tspan
               id="tspan36"
               y="0"
               x="0 12.4464 18.764799 31.259199 41.177601 49.608002 57.558399 69.380798 80.755203">Rider API</tspan></text>
</g><g
           transform="matrix(1,0,0,-1,-64,416)"
           id="g38"><path
             id="path40"
             style="fill:none;stroke:#5e5e5e;stroke-width:3;stroke-linecap:round;stroke-linejoin:round;stroke-miterlimit:10;stroke-dasharray:none;stroke-opacity:1"
             d="m 760.6751,70.77877 0,332.06553" /></g><g
           transform="matrix(1,0,0,-1,951.791,363.2212)"
           id="g42"><text
             id="text44"
             style="font-variant:normal;font-weight:normal;font-size:16px;font-family:Chalkduster;-inkscape-font-specification:Chalkduster;writing-mode:lr-tb;fill:#212121;fill-opacity:1;fill-rule:nonzero;stroke:none"
             transform="translate(-37.17127,7.393921)"><tspan
               id="tspan46"
               y="0"
               x="0 9.5296001 22.0352 31.948799 43.686401 50.992001 57.305599 64.611198">Identity</tspan></text>
</g><g
           transform="matrix(1,0,0,-1,-64,416)"
           id="g48"><path
             id="path50"
             style="fill:none;stroke:#5e5e5e;stroke-width:3;stroke-linecap:round;stroke-linejoin:round;stroke-miterlimit:10;stroke-dasharray:none;stroke-opacity:1"
             d="m 1015.791,70.77877 0,340.66483" /></g><path
           id="path52"
           style="fill:#ffffff;fill-opacity:1;fill-rule:nonzero;stroke:none"
           d="m 683.2583,275.7212 30.8336,0 0,-224.99997 -30.8336,0 0,224.99997 z" /><g
           transform="matrix(1,0,0,-1,-64,416)"
           id="g54"><path
             id="path56"
             style="fill:none;stroke:#5e5e5e;stroke-width:3;stroke-linecap:round;stroke-linejoin:round;stroke-miterlimit:10;stroke-dasharray:none;stroke-opacity:1"
             d="m 746.1989,140.2592 34.4595,0.6365 m -1.9477,-2.5342 -1.1391,230.0402 m 2.7757,-2.3471 -33.2507,-0.2428 m 1.6034,1.9126 -1.4475,-228.3559 m -0.6753,0.3363 32.5011,0.5125 m 0.1969,-2.2298 -0.9696,227.6737 m 2.4156,0.1704 -31.6591,-0.2654 m -0.0774,1.7838 -1.5817,-227.4448" /></g><path
           id="path58"
           style="fill:#ffffff;fill-opacity:1;fill-rule:nonzero;stroke:none"
           d="m 442.6034,270.8029 0,0 223.6919,2.4745 -0.0782,7.0636 27.6757,-6.7583 -27.5194,-7.369 -0.0781,7.0637 -223.6919,-2.4745 z" /><g
           transform="matrix(1,0,0,-1,-64,416)"
           id="g60"><path
             id="path62"
             style="fill:none;stroke:#5e5e5e;stroke-width:3;stroke-linecap:round;stroke-linejoin:round;stroke-miterlimit:10;stroke-dasharray:none;stroke-opacity:1"
             d="m 505.6789,143.8328 3.0333,4.476 m -3.8896,-1.5822 229.0579,-5.1716 m -2.3163,1.5469 -1.4972,-8.4541 m -2.3663,1.6721 31.5408,5.4198 m 0.3554,-0.9686 -30.6541,10.9835 m 2.1624,1.9376 -0.9546,-12.5102 m 0.9365,2.2093 -227.3613,1.8289 m 2.3321,-1.7651 2.0688,2.7294 m -2.9366,-0.1644 226.4795,-5.0467 m 0.2591,1.7553 -1.3556,-6.2679 m -2.4648,-0.7056 29.9641,5.088 m 2.0249,-0.0968 -28.816,9.9377 m 0.1499,2.6369 -0.742,-10.2981 m 0.7734,0.0577 -224.4814,2.087" /></g><g
           transform="matrix(0.9999388,0.01106116,0.01106116,-0.9999388,568.2481,272.1928)"
           id="g64"><text
             id="text66"
             style="font-variant:normal;font-weight:normal;font-size:16px;font-family:Chalkduster;-inkscape-font-specification:Chalkduster;writing-mode:lr-tb;fill:#000000;fill-opacity:1;fill-rule:nonzero;stroke:none"
             transform="translate(-115.6524,-6.734282)"><tspan
               id="tspan68"
               y="0"
               x="0 11.1552 20.9184 28.2176 36.172798 47.824001 56.355202 68.854401 78.617599 86.876801">get orders</tspan></text>
</g><path
           id="path70"
           style="fill:#ffffff;fill-opacity:1;fill-rule:nonzero;stroke:none"
           d="m 951.6681,154.6576 0,0 -223.6919,-2.4745 -0.0781,7.0637 -27.5194,-7.369 27.6756,-6.7584 -0.0781,7.0637 223.6919,2.4745 z" /><g
           transform="matrix(1,0,0,-1,-64,416)"
           id="g72"><path
             id="path74"
             style="fill:none;stroke:#5e5e5e;stroke-width:3;stroke-linecap:round;stroke-linejoin:round;stroke-miterlimit:10;stroke-dasharray:none;stroke-opacity:1"
             d="m 1013.643,262.2907 5.23,-2.4489 m -1.02,0.8426 -229.1515,3.1971 m 2.9637,2.4648 -0.9247,-13.6289 m 2.5111,2.1105 -32.1028,8.9277 m 0.7877,-1.3156 31.303,9.0686 m -2.1964,1.7074 2.074,-10.2164 m -3.2411,2.1617 226.611,-3.8327 m -2.557,0.4012 3.45,-1.5045 m 0.849,0.1827 -226.3562,3.2421 m -0.0764,2.3377 -0.506,-10.8878 m 2.3776,-0.4982 -29.376,8.1999 m -1.9219,-0.9389 29.5372,8.6273 m -0.5799,2.3325 1.7093,-8.0892 m -2.7893,-0.1626 225.7926,-3.7644" /></g><g
           transform="matrix(0.9999388,0.01106116,0.01106116,-0.9999388,826.0234,153.2677)"
           id="g76"><text
             id="text78"
             style="font-variant:normal;font-weight:normal;font-size:16px;font-family:Chalkduster;-inkscape-font-specification:Chalkduster;writing-mode:lr-tb;fill:#000000;fill-opacity:1;fill-rule:nonzero;stroke:none"
             transform="translate(-115.6524,-6.734282)"><tspan
               id="tspan80"
               y="0"
               x="0 11.1728">ok</tspan></text>
</g><path
           id="path82"
           style="fill:#ffffff;fill-opacity:1;fill-rule:nonzero;stroke:none"
           d="m 938.6751,224.7212 30.8336,0 0,-70.98 -30.8336,0 0,70.98 z" /><g
           transform="matrix(1,0,0,-1,-64,416)"
           id="g84"><path
             id="path86"
             style="fill:none;stroke:#5e5e5e;stroke-width:3;stroke-linecap:round;stroke-linejoin:round;stroke-miterlimit:10;stroke-dasharray:none;stroke-opacity:1"
             d="m 999.8501,191.2559 34.4679,0.2787 m -2.074,-1.0969 2.321,73.7388 m 1.232,-0.6821 -33.39,-1.9919 m 1.113,1.3524 -0.869,-73.6142 m -2.426,1.6095 32.428,0.2687 m 0.206,-1.0637 2.158,72.9861 m 1.148,0.181 -32.294,-1.8827 m 0,1.1406 -0.936,-71.5751" /></g><path
           id="path88"
           style="fill:#ffffff;fill-opacity:1;fill-rule:nonzero;stroke:none"
           d="m 693.8928,49.65756 0,0 -223.6919,-2.47444 -0.0781,7.06367 -27.5194,-7.36895 27.6757,-6.75839 -0.0782,7.06367 223.6919,2.47444 z" /><g
           transform="matrix(1,0,0,-1,-64,416)"
           id="g90"><path
             id="path92"
             style="fill:none;stroke:#5e5e5e;stroke-width:3;stroke-linecap:round;stroke-linejoin:round;stroke-miterlimit:10;stroke-dasharray:none;stroke-opacity:1"
             d="m 758.5903,365.4112 -2.7797,3.711 m 2.5977,-1.6581 -225.6314,0.6512 m 0.9692,2.2522 0.007,-10.4019 m 1.6266,1.3384 -32.7635,6.9744 m 1.1117,-1.1922 32.0366,10.0137 m -1.0137,1.079 -1.7626,-11.827 m -2.1029,2.0273 228.2104,-2.0476 m 0.0545,-1.1568 -1.4709,2.1091 m 1.1039,-0.187 -224.6606,0.6585 m -0.3384,2.2369 0.0612,-8.717 m 1.9257,-0.2691 -29.8398,6.3194 m -1.7501,-0.865 30.738,9.8423 m 0.0293,1.5274 -1.3547,-9.8375 m -2.3348,-0.1316 227.0072,-2.0609" /></g><g
           transform="matrix(0.9999388,0.01106116,0.01106116,-0.9999388,568.2481,48.2677)"
           id="g94"><text
             id="text96"
             style="font-variant:normal;font-weight:normal;font-size:16px;font-family:Chalkduster;-inkscape-font-specification:Chalkduster;writing-mode:lr-tb;fill:#000000;fill-opacity:1;fill-rule:nonzero;stroke:none"
             transform="translate(-115.6524,-6.734282)"><tspan
               id="tspan98"
               y="0"
               x="0 11.1728 23.625601 28.5744 36.5312 48.183998 56.716801 69.217598 78.982399 87.419197 95.375999 103.0608 109.3696 117.9504">ok, order list</tspan></text>
</g><path
           id="path100"
           style="fill:#ffffff;fill-opacity:1;fill-rule:nonzero;stroke:none"
           d="m 700.3787,216.8778 0,0 223.6918,2.4745 -0.0781,7.0637 27.6757,-6.7584 -27.5194,-7.369 -0.0782,7.0637 -223.6918,-2.4745 z" /><g
           transform="matrix(1,0,0,-1,-64,416)"
           id="g102"><path
             id="path104"
             style="fill:none;stroke:#5e5e5e;stroke-width:3;stroke-linecap:round;stroke-linejoin:round;stroke-miterlimit:10;stroke-dasharray:none;stroke-opacity:1"
             d="m 765.1121,200.7133 -2.0653,-4.4803 m -0.7599,1.9087 228.0284,-1.0689 m -1.2257,1.0074 0.426,-10.2795 m -1.3276,1.8909 28.022,8.5844 m -0.059,-0.9558 -29.8454,6.2936 m 0.9164,0.8755 0.7807,-9.6356 m 2.0382,1.934 -227.0571,2.3489 m 2.452,1.2253 -1.3532,-2.5036 m -1.4214,-0.2414 226.8434,-1.224 m -0.2354,1.3042 0.4861,-8.0043 m -1.1803,-0.4154 26.242,7.7121 m 1.73,0.0545 -28.826,6.1533 m -0.3458,0.8991 0.7539,-7.6683 m 2.2898,0.2788 -225.6615,2.3979" /></g><g
           transform="matrix(0.9999388,0.01106116,0.01106116,-0.9999388,826.0234,218.2677)"
           id="g106"><text
             id="text108"
             style="font-variant:normal;font-weight:normal;font-size:16px;font-family:Chalkduster;-inkscape-font-specification:Chalkduster;writing-mode:lr-tb;fill:#000000;fill-opacity:1;fill-rule:nonzero;stroke:none"
             transform="translate(-115.6524,-6.734282)"><tspan
               id="tspan110"
               y="0"
               x="0 10.0768 19.959999 30.143999 39.5312 51.9776 59.9328 68.012802 78.302399 86.382401 94.462402 100.7744 112.672 124.4112 132.36639 138.96159 150.1344 162.2448 172.3392">check session token</tspan></text>
</g></g></g></g></svg>