<svg xmlns="http://www.w3.org/2000/svg"><path d="M51.075 19.225c1.525 0 2.525.825 2.825 2.4h-5.65c.3-1.575 1.3-2.4 2.825-2.4zM57.1 25.05h-3.675c-.35.825-1.1 1.225-2.25 1.225-1.65 0-2.65-.875-2.95-2.525h9.125c.025-.325.05-.65.05-1 0-3.825-2.65-6.5-6.325-6.5-3.675 0-6.325 2.675-6.325 6.5s2.65 6.5 6.325 6.5c3.075 0 5.25-1.45 6.025-4.2zm5.675-2.95c0-1.875.825-2.85 2.25-2.85s2.25.975 2.25 2.85V29H70.9v-7.725c0-3.35-1.95-5.025-4.55-5.025-1.55 0-2.875.725-3.625 2.025V16.5H59.15V29h3.625v-6.9zm15.5.575c-1.1 0-1.9-.75-1.9-1.85 0-1.125.775-1.875 1.9-1.875s1.9.75 1.9 1.875c0 1.1-.8 1.85-1.9 1.85zm6.725 8.7c0-2.425-1.425-4.125-5.325-4.125h-2.7c-1.05 0-1.575-.45-1.575-1.15 0-.525.35-.925.85-1.05.625.225 1.3.35 2.025.35 2.8 0 5.1-1.875 5.1-4.575 0-.45-.075-.9-.2-1.3h1.85V16.25H83.75c-.675 0-.925.175-1.25.65l-.5.75c-.925-.875-2.25-1.4-3.725-1.4-2.825 0-5.1 1.9-5.1 4.575 0 1.425.65 2.625 1.675 3.425-1.45.475-2.3 1.5-2.3 2.825 0 1.1.625 2 1.65 2.55-1.15.525-1.9 1.425-1.9 2.5 0 1.95 1.85 3.375 5.825 3.375H79c4.15 0 6-1.725 6-4.125zm-6.55 1.375c-2.325 0-2.95-.6-2.95-1.4 0-.725.7-1.225 2.5-1.225h1.3c1.775 0 2.475.5 2.475 1.225 0 .8-.65 1.4-2.85 1.4h-.475zm9.65-18.425c1.25 0 2.15-.925 2.15-2.1 0-1.2-.9-2.1-2.15-2.1s-2.175.9-2.175 2.1c0 1.175.925 2.1 2.175 2.1zM89.9 29V16.5h-3.625V29H89.9zm6.125-6.9c0-1.875.825-2.85 2.25-2.85s2.25.975 2.25 2.85V29h3.625v-7.725c0-3.35-1.95-5.025-4.55-5.025-1.55 0-2.875.725-3.625 2.025V16.5H92.4V29h3.625v-6.9zm16.075-2.875c1.525 0 2.525.825 2.825 2.4h-5.65c.3-1.575 1.3-2.4 2.825-2.4zm6.025 5.825h-3.675c-.35.825-1.1 1.225-2.25 1.225-1.65 0-2.65-.875-2.95-2.525h9.125c.025-.325.05-.65.05-1 0-3.825-2.65-6.5-6.325-6.5-3.675 0-6.325 2.675-6.325 6.5s2.65 6.5 6.325 6.5c3.075 0 5.25-1.45 6.025-4.2zm7.625-5.825c1.525 0 2.525.825 2.825 2.4h-5.65c.3-1.575 1.3-2.4 2.825-2.4zm6.025 5.825H128.1c-.35.825-1.1 1.225-2.25 1.225-1.65 0-2.65-.875-2.95-2.525h9.125c.025-.325.05-.65.05-1 0-3.825-2.65-6.5-6.325-6.5-3.675 0-6.325 2.675-6.325 6.5s2.65 6.5 6.325 6.5c3.075 0 5.25-1.45 6.025-4.2zm5.675-2.375c0-1.85 1.175-2.875 3.225-2.875.5 0 .95.075 1.3.2v-3.7c-.15-.05-.4-.05-.625-.05-1.775 0-3.2.875-4.025 2.425V16.5h-3.5V29h3.625v-6.325zm7.775-8.35c1.25 0 2.15-.925 2.15-2.1 0-1.2-.9-2.1-2.15-2.1s-2.175.9-2.175 2.1c0 1.175.925 2.1 2.175 2.1zm1.8 14.675V16.5H143.4V29h3.625zm6.125-6.9c0-1.875.825-2.85 2.25-2.85s2.25.975 2.25 2.85V29h3.625v-7.725c0-3.35-1.95-5.025-4.55-5.025-1.55 0-2.875.725-3.625 2.025V16.5h-3.575V29h3.625v-6.9zm15.5.575c-1.1 0-1.9-.75-1.9-1.85 0-1.125.775-1.875 1.9-1.875s1.9.75 1.9 1.875c0 1.1-.8 1.85-1.9 1.85zm6.725 8.7c0-2.425-1.425-4.125-5.325-4.125h-2.7c-1.05 0-1.575-.45-1.575-1.15 0-.525.35-.925.85-1.05.625.225 1.3.35 2.025.35 2.8 0 5.1-1.875 5.1-4.575 0-.45-.075-.9-.2-1.3h1.85V16.25h-1.275c-.675 0-.925.175-1.25.65l-.5.75c-.925-.875-2.25-1.4-3.725-1.4-2.825 0-5.1 1.9-5.1 4.575 0 1.425.65 2.625 1.675 3.425-1.45.475-2.3 1.5-2.3 2.825 0 1.1.625 2 1.65 2.55-1.15.525-1.9 1.425-1.9 2.5 0 1.95 1.85 3.375 5.825 3.375h.875c4.15 0 6-1.725 6-4.125zm-6.55 1.375c-2.325 0-2.95-.6-2.95-1.4 0-.725.7-1.225 2.5-1.225h1.3c1.775 0 2.475.5 2.475 1.225 0 .8-.65 1.4-2.85 1.4h-.475zM26.1.09l-1.856 17.57-3.166-14.81-9.93 2.099 3.166 14.812L0 22.786l2.529 11.831 25.17 5.32 5.757-12.857 2.74-25.934L26.102.091zm-7.953 25.49c-.52.472-1.206.429-1.933.188-.728-.24-1.051-1.115-.776-2.172.205-.785 1.171-.902 1.654-.91.184-.003.364.033.531.109.342.153.92.483 1.038.984.168.721.006 1.327-.514 1.8zm7.287.815c-.378.651-1.367.738-2.341.264-.657-.32-.653-1.135-.582-1.631a1.54 1.54 0 0 1 .318-.74c.235-.296.627-.681 1.079-.693.735-.02 1.367.309 1.725.902.358.592.179 1.245-.199 1.898z" fill="#440063" fill-rule="evenodd"/></svg>
