<?xml version="1.0" encoding="UTF-8" standalone="no"?>
<svg
   xmlns:dc="http://purl.org/dc/elements/1.1/"
   xmlns:cc="http://creativecommons.org/ns#"
   xmlns:rdf="http://www.w3.org/1999/02/22-rdf-syntax-ns#"
   xmlns:svg="http://www.w3.org/2000/svg"
   xmlns="http://www.w3.org/2000/svg"
   xmlns:sodipodi="http://sodipodi.sourceforge.net/DTD/sodipodi-0.dtd"
   xmlns:inkscape="http://www.inkscape.org/namespaces/inkscape"
   viewBox="0 0 756.25 521.25"
   height="521.25"
   width="756.25"
   xml:space="preserve"
   version="1.1"
   id="svg2"
   inkscape:version="0.91 r13725"
   sodipodi:docname="i-cas-hit.svg"><sodipodi:namedview
     pagecolor="#ffffff"
     bordercolor="#666666"
     borderopacity="1"
     objecttolerance="10"
     gridtolerance="10"
     guidetolerance="10"
     inkscape:pageopacity="0"
     inkscape:pageshadow="2"
     inkscape:window-width="1370"
     inkscape:window-height="984"
     id="namedview294"
     showgrid="false"
     inkscape:zoom="1.4964029"
     inkscape:cx="378.125"
     inkscape:cy="260.625"
     inkscape:window-x="0"
     inkscape:window-y="0"
     inkscape:window-maximized="0"
     inkscape:current-layer="svg2" /><metadata
     id="metadata8"><rdf:RDF><cc:Work
         rdf:about=""><dc:format>image/svg+xml</dc:format><dc:type
           rdf:resource="http://purl.org/dc/dcmitype/StillImage" /></cc:Work></rdf:RDF></metadata><defs
     id="defs6"><clipPath
       id="clipPath18"
       clipPathUnits="userSpaceOnUse"><path
         id="path20"
         d="M 0,0 605,0 605,417 0,417 0,0 Z" /></clipPath><clipPath
       id="clipPath30"
       clipPathUnits="userSpaceOnUse"><path
         id="path32"
         d="M 0,1 604,1 604,417 0,417 0,1 Z" /></clipPath><clipPath
       id="clipPath42"
       clipPathUnits="userSpaceOnUse"><path
         id="path44"
         d="M 0,1 604,1 604,417 0,417 0,1 Z" /></clipPath><clipPath
       id="clipPath54"
       clipPathUnits="userSpaceOnUse"><path
         id="path56"
         d="M 0,1 604,1 604,417 0,417 0,1 Z" /></clipPath><clipPath
       id="clipPath66"
       clipPathUnits="userSpaceOnUse"><path
         id="path68"
         d="M 0,1 604,1 604,417 0,417 0,1 Z" /></clipPath><clipPath
       id="clipPath78"
       clipPathUnits="userSpaceOnUse"><path
         id="path80"
         d="m 64,40 516,0 0,335 -516,0 0,-335 z" /></clipPath><clipPath
       id="clipPath90"
       clipPathUnits="userSpaceOnUse"><path
         id="path92"
         d="m 64,40 516,0 0,335 -516,0 0,-335 z" /></clipPath><clipPath
       id="clipPath102"
       clipPathUnits="userSpaceOnUse"><path
         id="path104"
         d="m 64,40 516,0 0,335 -516,0 0,-335 z" /></clipPath><clipPath
       id="clipPath114"
       clipPathUnits="userSpaceOnUse"><path
         id="path116"
         d="m 64,40 516,0 0,335 -516,0 0,-335 z" /></clipPath><clipPath
       id="clipPath126"
       clipPathUnits="userSpaceOnUse"><path
         id="path128"
         d="M 0,1 604,1 604,417 0,417 0,1 Z" /></clipPath><clipPath
       id="clipPath140"
       clipPathUnits="userSpaceOnUse"><path
         id="path142"
         d="M 0,1 604,1 604,417 0,417 0,1 Z" /></clipPath><clipPath
       id="clipPath154"
       clipPathUnits="userSpaceOnUse"><path
         id="path156"
         d="M 0,1 604,1 604,417 0,417 0,1 Z" /></clipPath><clipPath
       id="clipPath168"
       clipPathUnits="userSpaceOnUse"><path
         id="path170"
         d="M 0,1 604,1 604,417 0,417 0,1 Z" /></clipPath><clipPath
       id="clipPath182"
       clipPathUnits="userSpaceOnUse"><path
         id="path184"
         d="M 0,1 604,1 604,417 0,417 0,1 Z" /></clipPath><clipPath
       id="clipPath196"
       clipPathUnits="userSpaceOnUse"><path
         id="path198"
         d="M 0,1 604,1 604,417 0,417 0,1 Z" /></clipPath><clipPath
       id="clipPath210"
       clipPathUnits="userSpaceOnUse"><path
         id="path212"
         d="M 0,1 604,1 604,417 0,417 0,1 Z" /></clipPath><clipPath
       id="clipPath224"
       clipPathUnits="userSpaceOnUse"><path
         id="path226"
         d="M 0,1 604,1 604,417 0,417 0,1 Z" /></clipPath><clipPath
       id="clipPath238"
       clipPathUnits="userSpaceOnUse"><path
         id="path240"
         d="M 0,1 604,1 604,417 0,417 0,1 Z" /></clipPath><clipPath
       id="clipPath252"
       clipPathUnits="userSpaceOnUse"><path
         id="path254"
         d="M 0,1 604,1 604,417 0,417 0,1 Z" /></clipPath><clipPath
       id="clipPath266"
       clipPathUnits="userSpaceOnUse"><path
         id="path268"
         d="M 0,1 604,1 604,417 0,417 0,1 Z" /></clipPath><clipPath
       id="clipPath280"
       clipPathUnits="userSpaceOnUse"><path
         id="path282"
         d="M 0,1 604,1 604,417 0,417 0,1 Z" /></clipPath><clipPath
       id="clipPath294"
       clipPathUnits="userSpaceOnUse"><path
         id="path296"
         d="M 0,1 604,1 604,417 0,417 0,1 Z" /></clipPath><clipPath
       id="clipPath308"
       clipPathUnits="userSpaceOnUse"><path
         id="path310"
         d="M 0,1 604,1 604,417 0,417 0,1 Z" /></clipPath><clipPath
       id="clipPath322"
       clipPathUnits="userSpaceOnUse"><path
         id="path324"
         d="M 0,1 604,1 604,417 0,417 0,1 Z" /></clipPath><clipPath
       id="clipPath336"
       clipPathUnits="userSpaceOnUse"><path
         id="path338"
         d="M 0,1 604,1 604,417 0,417 0,1 Z" /></clipPath><clipPath
       id="clipPath350"
       clipPathUnits="userSpaceOnUse"><path
         id="path352"
         d="M 0,1 604,1 604,417 0,417 0,1 Z" /></clipPath><clipPath
       id="clipPath364"
       clipPathUnits="userSpaceOnUse"><path
         id="path366"
         d="M 0,1 604,1 604,417 0,417 0,1 Z" /></clipPath><clipPath
       id="clipPath378"
       clipPathUnits="userSpaceOnUse"><path
         id="path380"
         d="M 0,1 604,1 604,417 0,417 0,1 Z" /></clipPath><clipPath
       id="clipPath392"
       clipPathUnits="userSpaceOnUse"><path
         id="path394"
         d="M 0,1 604,1 604,417 0,417 0,1 Z" /></clipPath><clipPath
       id="clipPath406"
       clipPathUnits="userSpaceOnUse"><path
         id="path408"
         d="M 0,1 604,1 604,417 0,417 0,1 Z" /></clipPath><clipPath
       id="clipPath420"
       clipPathUnits="userSpaceOnUse"><path
         id="path422"
         d="M 0,1 604,1 604,417 0,417 0,1 Z" /></clipPath><clipPath
       id="clipPath434"
       clipPathUnits="userSpaceOnUse"><path
         id="path436"
         d="M 0,1 604,1 604,417 0,417 0,1 Z" /></clipPath><clipPath
       id="clipPath448"
       clipPathUnits="userSpaceOnUse"><path
         id="path450"
         d="M 0,1 604,1 604,417 0,417 0,1 Z" /></clipPath><clipPath
       id="clipPath462"
       clipPathUnits="userSpaceOnUse"><path
         id="path464"
         d="M 0,1 604,1 604,417 0,417 0,1 Z" /></clipPath><clipPath
       id="clipPath476"
       clipPathUnits="userSpaceOnUse"><path
         id="path478"
         d="M 0,1 604,1 604,417 0,417 0,1 Z" /></clipPath><clipPath
       id="clipPath488"
       clipPathUnits="userSpaceOnUse"><path
         id="path490"
         d="m 68.89827,51.83401 86.34528,0 0,18.8537 -86.34528,0 0,-18.8537 z" /></clipPath><clipPath
       id="clipPath502"
       clipPathUnits="userSpaceOnUse"><path
         id="path504"
         d="M 0,1 604,1 604,417 0,417 0,1 Z" /></clipPath><clipPath
       id="clipPath514"
       clipPathUnits="userSpaceOnUse"><path
         id="path516"
         d="m 90.74854,51.83401 135.4153,0 0,18.8537 -135.4153,0 0,-18.8537 z" /></clipPath><clipPath
       id="clipPath528"
       clipPathUnits="userSpaceOnUse"><path
         id="path530"
         d="M 0,1 604,1 604,417 0,417 0,1 Z" /></clipPath><clipPath
       id="clipPath540"
       clipPathUnits="userSpaceOnUse"><path
         id="path542"
         d="m 162.1639,51.83401 85.19,0 0,18.8537 -85.19,0 0,-18.8537 z" /></clipPath><clipPath
       id="clipPath554"
       clipPathUnits="userSpaceOnUse"><path
         id="path556"
         d="M 0,1 604,1 604,417 0,417 0,1 Z" /></clipPath><clipPath
       id="clipPath566"
       clipPathUnits="userSpaceOnUse"><path
         id="path568"
         d="m 191.9191,51.83401 115.43,0 0,18.8537 -115.43,0 0,-18.8537 z" /></clipPath><clipPath
       id="clipPath580"
       clipPathUnits="userSpaceOnUse"><path
         id="path582"
         d="M 0,0 605,0 605,417 0,417 0,0 Z" /></clipPath></defs><g
     transform="matrix(1.25,0,0,-1.25,0,521.25)"
     id="g10"><g
       id="g12" /><g
       id="g14"><g
         clip-path="url(#clipPath18)"
         id="g16"><path
           id="path22"
           style="fill:#ffffff;fill-opacity:0;fill-rule:nonzero;stroke:none"
           d="M 0,417 605,417 605,0 0,0 0,417 Z" /><path
           id="path24"
           style="fill:#ffffff;fill-opacity:1;fill-rule:nonzero;stroke:none"
           d="m 1,417 603,0 0,-416.0000061 -603,0 L 1,417 Z" /></g></g><g
       id="g26"><g
         clip-path="url(#clipPath30)"
         id="g28"><g
           transform="matrix(7.874016e-5,0,0,-7.874016e-5,64.5,374.5)"
           id="g34"><path
             id="path36"
             style="fill:none;stroke:#d9d9d9;stroke-width:12700;stroke-linecap:butt;stroke-linejoin:round;stroke-miterlimit:10;stroke-dasharray:none;stroke-opacity:1"
             d="m 0,3530600 6540500,0 M 0,2832100 l 6540500,0 M 0,2120900 l 6540500,0 M 0,1409700 l 6540500,0 M 0,698500 l 6540500,0 M 0,0 6540500,0" /></g></g></g><g
       id="g38"><g
         clip-path="url(#clipPath42)"
         id="g40"><g
           transform="matrix(7.874016e-5,0,0,-7.874016e-5,81.5,374.5)"
           id="g46"><path
             id="path48"
             style="fill:none;stroke:#d9d9d9;stroke-width:12700;stroke-linecap:butt;stroke-linejoin:round;stroke-miterlimit:10;stroke-dasharray:none;stroke-opacity:1"
             d="m 6324600,0 0,4241800 M 5880100,0 l 0,4241800 M 5422900,0 l 0,4241800 M 4978400,0 l 0,4241800 M 4521200,0 l 0,4241800 M 4064000,0 l 0,4241800 M 3619500,0 l 0,4241800 M 3162300,0 l 0,4241800 M 2717800,0 l 0,4241800 M 2260600,0 l 0,4241800 M 1816100,0 l 0,4241800 M 1358900,0 l 0,4241800 M 914400,0 l 0,4241800 M 457200,0 l 0,4241800 M 0,0 0,4241800" /></g></g></g><g
       id="g50"><g
         clip-path="url(#clipPath54)"
         id="g52"><g
           transform="matrix(7.874016e-5,0,0,-7.874016e-5,64.5,374.5)"
           id="g58"><path
             id="path60"
             style="fill:none;stroke:#bfbfbf;stroke-width:12700;stroke-linecap:butt;stroke-linejoin:round;stroke-miterlimit:10;stroke-dasharray:none;stroke-opacity:1"
             d="M 0,4241800 0.9689331,0" /></g></g></g><g
       id="g62"><g
         clip-path="url(#clipPath66)"
         id="g64"><g
           transform="matrix(7.874016e-5,0,0,-7.874016e-5,64.5,40.5)"
           id="g70"><path
             id="path72"
             style="fill:none;stroke:#bfbfbf;stroke-width:12700;stroke-linecap:butt;stroke-linejoin:round;stroke-miterlimit:10;stroke-dasharray:none;stroke-opacity:1"
             d="M 0,1.01738 6540500,0" /></g></g></g><g
       id="g74"><g
         clip-path="url(#clipPath78)"
         id="g76"><g
           transform="matrix(7.874016e-5,0,0,-7.874016e-5,77,343)"
           id="g82"><path
             id="path84"
             style="fill:none;stroke:#5b9bd5;stroke-width:25400;stroke-linecap:round;stroke-linejoin:round;stroke-miterlimit:10;stroke-dasharray:none;stroke-opacity:1"
             d="m 0,279400 228600,266700 228600,-254000 228600,-114300 228600,12700 215900,-63500 228600,203200 228600,-76200 228600,-241300 215900,139700 228600,50800 228600,12700 228600,-203200 228600,165100 215900,-63500 L 3390900,0 l 228600,393700 228600,-165100 215900,-38100 228600,0 228600,-88900 228600,88900 228600,-50800 L 5194300,0 l 228600,127000 228600,393700 228600,-152400 228600,-165100 215900,-12700" /></g></g></g><g
       id="g86"><g
         clip-path="url(#clipPath90)"
         id="g88"><g
           transform="matrix(7.874016e-5,0,0,-7.874016e-5,77,305)"
           id="g94"><path
             id="path96"
             style="fill:none;stroke:#ed7d31;stroke-width:25400;stroke-linecap:round;stroke-linejoin:round;stroke-miterlimit:10;stroke-dasharray:none;stroke-opacity:1"
             d="m 0,139700 228600,1333500 228600,-1282700 228600,406400 228600,368300 215900,-431800 228600,-431800 228600,50800 228600,127000 215900,1066800 228600,-965200 228600,76200 228600,-228600 228600,12700 215900,-139700 228600,685800 228600,-533400 228600,609600 215900,-215900 228600,-203200 228600,-203200 228600,63500 228600,723900 L 5194300,685800 5422900,0 l 228600,368300 228600,101600 228600,228600 215900,-12700" /></g></g></g><g
       id="g98"><g
         clip-path="url(#clipPath102)"
         id="g100"><g
           transform="matrix(7.874016e-5,0,0,-7.874016e-5,77,317)"
           id="g106"><path
             id="path108"
             style="fill:none;stroke:#a5a5a5;stroke-width:25400;stroke-linecap:round;stroke-linejoin:round;stroke-miterlimit:10;stroke-dasharray:none;stroke-opacity:1"
             d="m 0,520700 228600,-368300 228600,63500 228600,76200 228600,-139700 215900,-38100 228600,-101600 228600,660400 228600,-495300 215900,-88900 228600,38100 228600,215900 L 2717800,0 l 228600,152400 215900,25400 228600,254000 228600,-279400 228600,-63500 215900,101600 228600,25400 228600,558800 228600,-736600 228600,152400 215900,393700 228600,292100 228600,-12700 228600,-431800 228600,711200 215900,-939800" /></g></g></g><g
       id="g110"><g
         clip-path="url(#clipPath114)"
         id="g112"><g
           transform="matrix(7.874016e-5,0,0,-7.874016e-5,77,293)"
           id="g118"><path
             id="path120"
             style="fill:none;stroke:#ffc000;stroke-width:25400;stroke-linecap:round;stroke-linejoin:round;stroke-miterlimit:10;stroke-dasharray:none;stroke-opacity:1"
             d="m 0,1993900 228600,-749300 228600,-139700 228600,-190500 228600,850900 215900,-596900 228600,-368300 228600,-596900 228600,1587500 215900,-1765300 228600,254000 228600,-215900 228600,38100 228600,-12700 215900,25400 228600,25400 228600,381000 228600,-381000 215900,-38100 228600,-63500 228600,101600 228600,-76200 228600,-63500 215900,1155700 228600,-1054100 228600,1168400 228600,-609600 228600,342900 215900,-101600" /></g></g></g><g
       id="g122"><g
         clip-path="url(#clipPath126)"
         id="g124"><g
           transform="translate(30.70217,36.7215)"
           id="g130"><text
             id="text132"
             style="font-variant:normal;font-weight:normal;font-size:9px;font-family:'Helvetica Neue';-inkscape-font-specification:HelveticaNeue;writing-mode:lr-tb;fill:#595959;fill-opacity:1;fill-rule:nonzero;stroke:none"
             transform="scale(1,-1)"><tspan
               id="tspan134"
               y="0"
               x="0 5.0004001 10.0008 15.0012 20.0016">15000</tspan></text>
</g></g></g><g
       id="g136"><g
         clip-path="url(#clipPath140)"
         id="g138"><g
           transform="translate(30.70217,92.46188)"
           id="g144"><text
             id="text146"
             style="font-variant:normal;font-weight:normal;font-size:9px;font-family:'Helvetica Neue';-inkscape-font-specification:HelveticaNeue;writing-mode:lr-tb;fill:#595959;fill-opacity:1;fill-rule:nonzero;stroke:none"
             transform="scale(1,-1)"><tspan
               id="tspan148"
               y="0"
               x="0 5.0004001 10.0008 15.0012 20.0016">17500</tspan></text>
</g></g></g><g
       id="g150"><g
         clip-path="url(#clipPath154)"
         id="g152"><g
           transform="translate(30.70217,148.2022)"
           id="g158"><text
             id="text160"
             style="font-variant:normal;font-weight:normal;font-size:9px;font-family:'Helvetica Neue';-inkscape-font-specification:HelveticaNeue;writing-mode:lr-tb;fill:#595959;fill-opacity:1;fill-rule:nonzero;stroke:none"
             transform="scale(1,-1)"><tspan
               id="tspan162"
               y="0"
               x="0 5.0004001 10.0008 15.0012 20.0016">20000</tspan></text>
</g></g></g><g
       id="g164"><g
         clip-path="url(#clipPath168)"
         id="g166"><g
           transform="translate(30.70217,203.9426)"
           id="g172"><text
             id="text174"
             style="font-variant:normal;font-weight:normal;font-size:9px;font-family:'Helvetica Neue';-inkscape-font-specification:HelveticaNeue;writing-mode:lr-tb;fill:#595959;fill-opacity:1;fill-rule:nonzero;stroke:none"
             transform="scale(1,-1)"><tspan
               id="tspan176"
               y="0"
               x="0 5.0004001 10.0008 15.0012 20.0016">22500</tspan></text>
</g></g></g><g
       id="g178"><g
         clip-path="url(#clipPath182)"
         id="g180"><g
           transform="translate(30.70217,259.6829)"
           id="g186"><text
             id="text188"
             style="font-variant:normal;font-weight:normal;font-size:9px;font-family:'Helvetica Neue';-inkscape-font-specification:HelveticaNeue;writing-mode:lr-tb;fill:#595959;fill-opacity:1;fill-rule:nonzero;stroke:none"
             transform="scale(1,-1)"><tspan
               id="tspan190"
               y="0"
               x="0 5.0004001 10.0008 15.0012 20.0016">25000</tspan></text>
</g></g></g><g
       id="g192"><g
         clip-path="url(#clipPath196)"
         id="g194"><g
           transform="translate(30.70217,315.4233)"
           id="g200"><text
             id="text202"
             style="font-variant:normal;font-weight:normal;font-size:9px;font-family:'Helvetica Neue';-inkscape-font-specification:HelveticaNeue;writing-mode:lr-tb;fill:#595959;fill-opacity:1;fill-rule:nonzero;stroke:none"
             transform="scale(1,-1)"><tspan
               id="tspan204"
               y="0"
               x="0 5.0004001 10.0008 15.0012 20.0016">27500</tspan></text>
</g></g></g><g
       id="g206"><g
         clip-path="url(#clipPath210)"
         id="g208"><g
           transform="translate(30.70217,371.1636)"
           id="g214"><text
             id="text216"
             style="font-variant:normal;font-weight:normal;font-size:9px;font-family:'Helvetica Neue';-inkscape-font-specification:HelveticaNeue;writing-mode:lr-tb;fill:#595959;fill-opacity:1;fill-rule:nonzero;stroke:none"
             transform="scale(1,-1)"><tspan
               id="tspan218"
               y="0"
               x="0 5.0004001 10.0008 15.0012 20.0016">30000</tspan></text>
</g></g></g><g
       id="g220"><g
         clip-path="url(#clipPath224)"
         id="g222"><g
           transform="translate(562.9801,25.64078)"
           id="g228"><text
             id="text230"
             style="font-variant:normal;font-weight:normal;font-size:9px;font-family:'Helvetica Neue';-inkscape-font-specification:HelveticaNeue;writing-mode:lr-tb;fill:#595959;fill-opacity:1;fill-rule:nonzero;stroke:none"
             transform="scale(1,-1)"><tspan
               id="tspan232"
               y="0"
               x="0 5.0004001 8.0028 13.0032 18.003599 23.004 28.0044">0.03125</tspan></text>
</g></g></g><g
       id="g234"><g
         clip-path="url(#clipPath238)"
         id="g236"><g
           transform="translate(532.417,25.64078)"
           id="g242"><text
             id="text244"
             style="font-variant:normal;font-weight:normal;font-size:9px;font-family:'Helvetica Neue';-inkscape-font-specification:HelveticaNeue;writing-mode:lr-tb;fill:#595959;fill-opacity:1;fill-rule:nonzero;stroke:none"
             transform="scale(1,-1)"><tspan
               id="tspan246"
               y="0"
               x="0 5.0004001 8.0028 13.0032 18.003599">0.125</tspan></text>
</g></g></g><g
       id="g248"><g
         clip-path="url(#clipPath252)"
         id="g250"><g
           transform="translate(501.8541,25.64078)"
           id="g256"><text
             id="text258"
             style="font-variant:normal;font-weight:normal;font-size:9px;font-family:'Helvetica Neue';-inkscape-font-specification:HelveticaNeue;writing-mode:lr-tb;fill:#595959;fill-opacity:1;fill-rule:nonzero;stroke:none"
             transform="scale(1,-1)"><tspan
               id="tspan260"
               y="0"
               x="0 5.0004001 8.0028">0.5</tspan></text>
</g></g></g><g
       id="g262"><g
         clip-path="url(#clipPath266)"
         id="g264"><g
           transform="translate(470.2885,25.64078)"
           id="g270"><text
             id="text272"
             style="font-variant:normal;font-weight:normal;font-size:9px;font-family:'Helvetica Neue';-inkscape-font-specification:HelveticaNeue;writing-mode:lr-tb;fill:#595959;fill-opacity:1;fill-rule:nonzero;stroke:none"
             transform="scale(1,-1)"><tspan
               id="tspan274"
               y="0"
               x="0">2</tspan></text>
</g></g></g><g
       id="g276"><g
         clip-path="url(#clipPath280)"
         id="g278"><g
           transform="translate(434.7256,25.64078)"
           id="g284"><text
             id="text286"
             style="font-variant:normal;font-weight:normal;font-size:9px;font-family:'Helvetica Neue';-inkscape-font-specification:HelveticaNeue;writing-mode:lr-tb;fill:#595959;fill-opacity:1;fill-rule:nonzero;stroke:none"
             transform="scale(1,-1)"><tspan
               id="tspan288"
               y="0"
               x="0">8</tspan></text>
</g></g></g><g
       id="g290"><g
         clip-path="url(#clipPath294)"
         id="g292"><g
           transform="translate(397.165,25.64078)"
           id="g298"><text
             id="text300"
             style="font-variant:normal;font-weight:normal;font-size:9px;font-family:'Helvetica Neue';-inkscape-font-specification:HelveticaNeue;writing-mode:lr-tb;fill:#595959;fill-opacity:1;fill-rule:nonzero;stroke:none"
             transform="scale(1,-1)"><tspan
               id="tspan302"
               y="0"
               x="0 5.0004001">32</tspan></text>
</g></g></g><g
       id="g304"><g
         clip-path="url(#clipPath308)"
         id="g306"><g
           transform="translate(358.5995,25.64078)"
           id="g312"><text
             id="text314"
             style="font-variant:normal;font-weight:normal;font-size:9px;font-family:'Helvetica Neue';-inkscape-font-specification:HelveticaNeue;writing-mode:lr-tb;fill:#595959;fill-opacity:1;fill-rule:nonzero;stroke:none"
             transform="scale(1,-1)"><tspan
               id="tspan316"
               y="0"
               x="0 5.0004001 10.0008">128</tspan></text>
</g></g></g><g
       id="g318"><g
         clip-path="url(#clipPath322)"
         id="g320"><g
           transform="translate(323.0365,25.64078)"
           id="g326"><text
             id="text328"
             style="font-variant:normal;font-weight:normal;font-size:9px;font-family:'Helvetica Neue';-inkscape-font-specification:HelveticaNeue;writing-mode:lr-tb;fill:#595959;fill-opacity:1;fill-rule:nonzero;stroke:none"
             transform="scale(1,-1)"><tspan
               id="tspan330"
               y="0"
               x="0 5.0004001 10.0008">512</tspan></text>
</g></g></g><g
       id="g332"><g
         clip-path="url(#clipPath336)"
         id="g334"><g
           transform="translate(285.4758,25.64078)"
           id="g340"><text
             id="text342"
             style="font-variant:normal;font-weight:normal;font-size:9px;font-family:'Helvetica Neue';-inkscape-font-specification:HelveticaNeue;writing-mode:lr-tb;fill:#595959;fill-opacity:1;fill-rule:nonzero;stroke:none"
             transform="scale(1,-1)"><tspan
               id="tspan344"
               y="0"
               x="0 5.0004001 10.0008 15.0012">2048</tspan></text>
</g></g></g><g
       id="g346"><g
         clip-path="url(#clipPath350)"
         id="g348"><g
           transform="translate(249.9128,25.64078)"
           id="g354"><text
             id="text356"
             style="font-variant:normal;font-weight:normal;font-size:9px;font-family:'Helvetica Neue';-inkscape-font-specification:HelveticaNeue;writing-mode:lr-tb;fill:#595959;fill-opacity:1;fill-rule:nonzero;stroke:none"
             transform="scale(1,-1)"><tspan
               id="tspan358"
               y="0"
               x="0 5.0004001 10.0008 15.0012">8192</tspan></text>
</g></g></g><g
       id="g360"><g
         clip-path="url(#clipPath364)"
         id="g362"><g
           transform="translate(211.3474,25.64078)"
           id="g368"><text
             id="text370"
             style="font-variant:normal;font-weight:normal;font-size:9px;font-family:'Helvetica Neue';-inkscape-font-specification:HelveticaNeue;writing-mode:lr-tb;fill:#595959;fill-opacity:1;fill-rule:nonzero;stroke:none"
             transform="scale(1,-1)"><tspan
               id="tspan372"
               y="0"
               x="0 5.0004001 10.0008 15.0012 20.0016">32768</tspan></text>
</g></g></g><g
       id="g374"><g
         clip-path="url(#clipPath378)"
         id="g376"><g
           transform="translate(173.7869,25.64078)"
           id="g382"><text
             id="text384"
             style="font-variant:normal;font-weight:normal;font-size:9px;font-family:'Helvetica Neue';-inkscape-font-specification:HelveticaNeue;writing-mode:lr-tb;fill:#595959;fill-opacity:1;fill-rule:nonzero;stroke:none"
             transform="scale(1,-1)"><tspan
               id="tspan386"> 128k</tspan></text>
</g></g></g><g
       id="g388"><g
         clip-path="url(#clipPath392)"
         id="g390"><g
           transform="translate(138.2239,25.64078)"
           id="g396"><text
             id="text398"
             style="font-variant:normal;font-weight:normal;font-size:9px;font-family:'Helvetica Neue';-inkscape-font-specification:HelveticaNeue;writing-mode:lr-tb;fill:#595959;fill-opacity:1;fill-rule:nonzero;stroke:none"
             transform="scale(1,-1)"><tspan
               id="tspan400">  512k</tspan></text>
</g></g></g><g
       id="g402"><g
         clip-path="url(#clipPath406)"
         id="g404"><g
           transform="translate(99.65839,25.64078)"
           id="g410"><text
             id="text412"
             style="font-variant:normal;font-weight:normal;font-size:9px;font-family:'Helvetica Neue';-inkscape-font-specification:HelveticaNeue;writing-mode:lr-tb;fill:#595959;fill-opacity:1;fill-rule:nonzero;stroke:none"
             transform="scale(1,-1)"><tspan
               id="tspan414">     2M</tspan></text>
</g></g></g><g
       id="g416"><g
         clip-path="url(#clipPath420)"
         id="g418"><g
           transform="translate(64.09531,25.64078)"
           id="g424"><text
             id="text426"
             style="font-variant:normal;font-weight:normal;font-size:9px;font-family:'Helvetica Neue';-inkscape-font-specification:HelveticaNeue;writing-mode:lr-tb;fill:#595959;fill-opacity:1;fill-rule:nonzero;stroke:none"
             transform="scale(1,-1)"><tspan
               id="tspan428">    8M</tspan></text>
</g></g></g><g
       id="g430"><g
         clip-path="url(#clipPath434)"
         id="g432"><g
           transform="matrix(0,1,-1,0,25.58721,156.195)"
           id="g438"><text
             id="text440"
             style="font-variant:normal;font-weight:normal;font-size:10px;font-family:'Helvetica Neue';-inkscape-font-specification:HelveticaNeue;writing-mode:lr-tb;fill:#595959;fill-opacity:1;fill-rule:nonzero;stroke:none"
             transform="scale(1,-1)"><tspan
               id="tspan442"
               y="0"
               x="0 8 14 19 22 27 30 32 38 44 49 52 58 63 66 69 74 79 84 90 96">Operations per second</tspan></text>
</g></g></g><g
       id="g444"><g
         clip-path="url(#clipPath448)"
         id="g446"><g
           transform="translate(265.5131,10.40576)"
           id="g452"><text
             id="text454"
             style="font-variant:normal;font-weight:normal;font-size:10px;font-family:'Helvetica Neue';-inkscape-font-specification:HelveticaNeue;writing-mode:lr-tb;fill:#595959;fill-opacity:1;fill-rule:nonzero;stroke:none"
             transform="scale(1,-1)"><tspan
               id="tspan456"
               y="0"
               x="0 3 6 11 20 25 27 33 38 41 45 50 56 61 64 70 73 76 81 86 91 94 99 105 110">Items per shard (average)</tspan></text>
</g></g></g><g
       id="g458"><g
         clip-path="url(#clipPath462)"
         id="g460"><g
           transform="translate(149.9653,393.0448)"
           id="g466"><text
             id="text468"
             style="font-variant:normal;font-weight:normal;font-size:14px;font-family:'Helvetica Neue';-inkscape-font-specification:HelveticaNeue;writing-mode:lr-tb;fill:#595959;fill-opacity:1;fill-rule:nonzero;stroke:none"
             transform="scale(1,-1)"><tspan
               id="tspan470"
               y="0"
               x="0 10.0002 19.000799 28.0014 32.001202 40.000801 43.000999 47.000801 51.000599 55.000401 63 67.999397 75.999001 83.998596 91.998199 99.997803 107.9974 115.997 119.9968 123.9966 130.9966 137.9966 141.9964 145.9962 153.9958 161.99541 165.99519 173.9948 176.995 183.995 187.9948 192.9942 200.9938 208.99339 212.99319 220.9928 225.9922 233.99181 236.992 245.9926 248.9928 255.9928 263.9924 271.992 276.99139 284.991 287.99121 295.99081">CAS hit throughput vs. data structure &amp; sharding</tspan></text>
</g></g></g><g
       id="g472"><g
         clip-path="url(#clipPath476)"
         id="g474"><g
           transform="matrix(7.874016e-5,0,0,-7.874016e-5,85,61)"
           id="g480"><path
             id="path482"
             style="fill:none;stroke:#5b9bd5;stroke-width:25400;stroke-linecap:round;stroke-linejoin:round;stroke-miterlimit:10;stroke-dasharray:none;stroke-opacity:1"
             d="M 0,0 241300,1.01738" /></g></g></g><g
       id="g484"><g
         clip-path="url(#clipPath488)"
         id="g486"><g
           transform="translate(105.9034,57.62839)"
           id="g492"><text
             id="text494"
             style="font-variant:normal;font-weight:normal;font-size:9px;font-family:'Helvetica Neue';-inkscape-font-specification:HelveticaNeue;writing-mode:lr-tb;fill:#595959;fill-opacity:1;fill-rule:nonzero;stroke:none"
             transform="scale(1,-1)"><tspan
               id="tspan496"
               y="0"
               x="0 2.9997001 5.0004001 9.9981003">flat</tspan></text>
</g></g></g><g
       id="g498"><g
         clip-path="url(#clipPath502)"
         id="g500"><g
           transform="matrix(7.874016e-5,0,0,-7.874016e-5,128,61)"
           id="g506"><path
             id="path508"
             style="fill:none;stroke:#ed7d31;stroke-width:25400;stroke-linecap:round;stroke-linejoin:round;stroke-miterlimit:10;stroke-dasharray:none;stroke-opacity:1"
             d="M 0,0 241300,1.01738" /></g></g></g><g
       id="g510"><g
         clip-path="url(#clipPath514)"
         id="g512"><g
           transform="translate(148.7837,57.62839)"
           id="g518"><text
             id="text520"
             style="font-variant:normal;font-weight:normal;font-size:9px;font-family:'Helvetica Neue';-inkscape-font-specification:HelveticaNeue;writing-mode:lr-tb;fill:#595959;fill-opacity:1;fill-rule:nonzero;stroke:none"
             transform="scale(1,-1)"><tspan
               id="tspan522"
               y="0"
               x="0 5.0004001 10.0008 15.0012">hash</tspan></text>
</g></g></g><g
       id="g524"><g
         clip-path="url(#clipPath528)"
         id="g526"><g
           transform="matrix(7.874016e-5,0,0,-7.874016e-5,178,61)"
           id="g532"><path
             id="path534"
             style="fill:none;stroke:#a5a5a5;stroke-width:25400;stroke-linecap:round;stroke-linejoin:round;stroke-miterlimit:10;stroke-dasharray:none;stroke-opacity:1"
             d="M 0,0 241300,1.01738" /></g></g></g><g
       id="g536"><g
         clip-path="url(#clipPath540)"
         id="g538"><g
           transform="translate(198.6739,57.62839)"
           id="g544"><text
             id="text546"
             style="font-variant:normal;font-weight:normal;font-size:9px;font-family:'Helvetica Neue';-inkscape-font-specification:HelveticaNeue;writing-mode:lr-tb;fill:#595959;fill-opacity:1;fill-rule:nonzero;stroke:none"
             transform="scale(1,-1)"><tspan
               id="tspan548"
               y="0"
               x="0 5.0004001 10.0008">set</tspan></text>
</g></g></g><g
       id="g550"><g
         clip-path="url(#clipPath554)"
         id="g552"><g
           transform="matrix(7.874016e-5,0,0,-7.874016e-5,220,61)"
           id="g558"><path
             id="path560"
             style="fill:none;stroke:#ffc000;stroke-width:25400;stroke-linecap:round;stroke-linejoin:round;stroke-miterlimit:10;stroke-dasharray:none;stroke-opacity:1"
             d="M 0,0 241300,1.01738" /></g></g></g><g
       id="g562"><g
         clip-path="url(#clipPath566)"
         id="g564"><g
           transform="translate(241.3891,57.62839)"
           id="g570"><text
             id="text572"
             style="font-variant:normal;font-weight:normal;font-size:9px;font-family:'Helvetica Neue';-inkscape-font-specification:HelveticaNeue;writing-mode:lr-tb;fill:#595959;fill-opacity:1;fill-rule:nonzero;stroke:none"
             transform="scale(1,-1)"><tspan
               id="tspan574"
               y="0"
               x="0 3.9995999 8.9982004 13.9968">zset</tspan></text>
</g></g></g><g
       id="g576"><g
         clip-path="url(#clipPath580)"
         id="g578"><g
           transform="matrix(7.874016e-5,0,0,-7.874016e-5,0.5,416.5)"
           id="g584"><path
             id="path586"
             style="fill:none;stroke:#d9d9d9;stroke-width:12700;stroke-linecap:butt;stroke-linejoin:round;stroke-miterlimit:10;stroke-dasharray:none;stroke-opacity:1"
             d="m 0,0 7670801,0 0,5283200 L 0,5283200 0,0 Z" /></g></g></g></g></svg>