<?xml version="1.0" encoding="UTF-8" standalone="no"?>
<svg
   xmlns:dc="http://purl.org/dc/elements/1.1/"
   xmlns:cc="http://creativecommons.org/ns#"
   xmlns:rdf="http://www.w3.org/1999/02/22-rdf-syntax-ns#"
   xmlns:svg="http://www.w3.org/2000/svg"
   xmlns="http://www.w3.org/2000/svg"
   xmlns:sodipodi="http://sodipodi.sourceforge.net/DTD/sodipodi-0.dtd"
   xmlns:inkscape="http://www.inkscape.org/namespaces/inkscape"
   viewBox="0 0 755 521.25"
   height="521.25"
   width="755"
   xml:space="preserve"
   version="1.1"
   id="svg2"
   inkscape:version="0.91 r13725"
   sodipodi:docname="i-cas-miss.svg"><sodipodi:namedview
     pagecolor="#ffffff"
     bordercolor="#666666"
     borderopacity="1"
     objecttolerance="10"
     gridtolerance="10"
     guidetolerance="10"
     inkscape:pageopacity="0"
     inkscape:pageshadow="2"
     inkscape:window-width="1339"
     inkscape:window-height="987"
     id="namedview294"
     showgrid="false"
     inkscape:zoom="1.5021583"
     inkscape:cx="377.5"
     inkscape:cy="260.625"
     inkscape:window-x="0"
     inkscape:window-y="0"
     inkscape:window-maximized="0"
     inkscape:current-layer="svg2" /><metadata
     id="metadata8"><rdf:RDF><cc:Work
         rdf:about=""><dc:format>image/svg+xml</dc:format><dc:type
           rdf:resource="http://purl.org/dc/dcmitype/StillImage" /></cc:Work></rdf:RDF></metadata><defs
     id="defs6"><clipPath
       id="clipPath18"
       clipPathUnits="userSpaceOnUse"><path
         id="path20"
         d="M 0,0 604,0 604,417 0,417 0,0 Z" /></clipPath><clipPath
       id="clipPath30"
       clipPathUnits="userSpaceOnUse"><path
         id="path32"
         d="M 0,1 603,1 603,417 0,417 0,1 Z" /></clipPath><clipPath
       id="clipPath42"
       clipPathUnits="userSpaceOnUse"><path
         id="path44"
         d="M 0,1 603,1 603,417 0,417 0,1 Z" /></clipPath><clipPath
       id="clipPath54"
       clipPathUnits="userSpaceOnUse"><path
         id="path56"
         d="M 0,1 603,1 603,417 0,417 0,1 Z" /></clipPath><clipPath
       id="clipPath66"
       clipPathUnits="userSpaceOnUse"><path
         id="path68"
         d="M 0,1 603,1 603,417 0,417 0,1 Z" /></clipPath><clipPath
       id="clipPath78"
       clipPathUnits="userSpaceOnUse"><path
         id="path80"
         d="m 63,40 517,0 0,335 -517,0 0,-335 z" /></clipPath><clipPath
       id="clipPath90"
       clipPathUnits="userSpaceOnUse"><path
         id="path92"
         d="m 63,40 517,0 0,335 -517,0 0,-335 z" /></clipPath><clipPath
       id="clipPath102"
       clipPathUnits="userSpaceOnUse"><path
         id="path104"
         d="m 63,40 517,0 0,335 -517,0 0,-335 z" /></clipPath><clipPath
       id="clipPath114"
       clipPathUnits="userSpaceOnUse"><path
         id="path116"
         d="m 63,40 517,0 0,335 -517,0 0,-335 z" /></clipPath><clipPath
       id="clipPath126"
       clipPathUnits="userSpaceOnUse"><path
         id="path128"
         d="M 0,1 603,1 603,417 0,417 0,1 Z" /></clipPath><clipPath
       id="clipPath140"
       clipPathUnits="userSpaceOnUse"><path
         id="path142"
         d="M 0,1 603,1 603,417 0,417 0,1 Z" /></clipPath><clipPath
       id="clipPath154"
       clipPathUnits="userSpaceOnUse"><path
         id="path156"
         d="M 0,1 603,1 603,417 0,417 0,1 Z" /></clipPath><clipPath
       id="clipPath168"
       clipPathUnits="userSpaceOnUse"><path
         id="path170"
         d="M 0,1 603,1 603,417 0,417 0,1 Z" /></clipPath><clipPath
       id="clipPath182"
       clipPathUnits="userSpaceOnUse"><path
         id="path184"
         d="M 0,1 603,1 603,417 0,417 0,1 Z" /></clipPath><clipPath
       id="clipPath196"
       clipPathUnits="userSpaceOnUse"><path
         id="path198"
         d="M 0,1 603,1 603,417 0,417 0,1 Z" /></clipPath><clipPath
       id="clipPath210"
       clipPathUnits="userSpaceOnUse"><path
         id="path212"
         d="M 0,1 603,1 603,417 0,417 0,1 Z" /></clipPath><clipPath
       id="clipPath224"
       clipPathUnits="userSpaceOnUse"><path
         id="path226"
         d="M 0,1 603,1 603,417 0,417 0,1 Z" /></clipPath><clipPath
       id="clipPath238"
       clipPathUnits="userSpaceOnUse"><path
         id="path240"
         d="M 0,1 603,1 603,417 0,417 0,1 Z" /></clipPath><clipPath
       id="clipPath252"
       clipPathUnits="userSpaceOnUse"><path
         id="path254"
         d="M 0,1 603,1 603,417 0,417 0,1 Z" /></clipPath><clipPath
       id="clipPath266"
       clipPathUnits="userSpaceOnUse"><path
         id="path268"
         d="M 0,1 603,1 603,417 0,417 0,1 Z" /></clipPath><clipPath
       id="clipPath280"
       clipPathUnits="userSpaceOnUse"><path
         id="path282"
         d="M 0,1 603,1 603,417 0,417 0,1 Z" /></clipPath><clipPath
       id="clipPath294"
       clipPathUnits="userSpaceOnUse"><path
         id="path296"
         d="M 0,1 603,1 603,417 0,417 0,1 Z" /></clipPath><clipPath
       id="clipPath308"
       clipPathUnits="userSpaceOnUse"><path
         id="path310"
         d="M 0,1 603,1 603,417 0,417 0,1 Z" /></clipPath><clipPath
       id="clipPath322"
       clipPathUnits="userSpaceOnUse"><path
         id="path324"
         d="M 0,1 603,1 603,417 0,417 0,1 Z" /></clipPath><clipPath
       id="clipPath336"
       clipPathUnits="userSpaceOnUse"><path
         id="path338"
         d="M 0,1 603,1 603,417 0,417 0,1 Z" /></clipPath><clipPath
       id="clipPath350"
       clipPathUnits="userSpaceOnUse"><path
         id="path352"
         d="M 0,1 603,1 603,417 0,417 0,1 Z" /></clipPath><clipPath
       id="clipPath364"
       clipPathUnits="userSpaceOnUse"><path
         id="path366"
         d="M 0,1 603,1 603,417 0,417 0,1 Z" /></clipPath><clipPath
       id="clipPath378"
       clipPathUnits="userSpaceOnUse"><path
         id="path380"
         d="M 0,1 603,1 603,417 0,417 0,1 Z" /></clipPath><clipPath
       id="clipPath392"
       clipPathUnits="userSpaceOnUse"><path
         id="path394"
         d="M 0,1 603,1 603,417 0,417 0,1 Z" /></clipPath><clipPath
       id="clipPath406"
       clipPathUnits="userSpaceOnUse"><path
         id="path408"
         d="M 0,1 603,1 603,417 0,417 0,1 Z" /></clipPath><clipPath
       id="clipPath420"
       clipPathUnits="userSpaceOnUse"><path
         id="path422"
         d="M 0,1 603,1 603,417 0,417 0,1 Z" /></clipPath><clipPath
       id="clipPath434"
       clipPathUnits="userSpaceOnUse"><path
         id="path436"
         d="M 0,1 603,1 603,417 0,417 0,1 Z" /></clipPath><clipPath
       id="clipPath448"
       clipPathUnits="userSpaceOnUse"><path
         id="path450"
         d="M 0,1 603,1 603,417 0,417 0,1 Z" /></clipPath><clipPath
       id="clipPath462"
       clipPathUnits="userSpaceOnUse"><path
         id="path464"
         d="M 0,1 603,1 603,417 0,417 0,1 Z" /></clipPath><clipPath
       id="clipPath476"
       clipPathUnits="userSpaceOnUse"><path
         id="path478"
         d="M 0,1 603,1 603,417 0,417 0,1 Z" /></clipPath><clipPath
       id="clipPath488"
       clipPathUnits="userSpaceOnUse"><path
         id="path490"
         d="m 66.50591,52.98615 86.34528,0 0,18.8537 -86.34528,0 0,-18.8537 z" /></clipPath><clipPath
       id="clipPath502"
       clipPathUnits="userSpaceOnUse"><path
         id="path504"
         d="M 0,1 603,1 603,417 0,417 0,1 Z" /></clipPath><clipPath
       id="clipPath514"
       clipPathUnits="userSpaceOnUse"><path
         id="path516"
         d="m 88.35618,52.98615 135.4153,0 0,18.8537 -135.4153,0 0,-18.8537 z" /></clipPath><clipPath
       id="clipPath528"
       clipPathUnits="userSpaceOnUse"><path
         id="path530"
         d="M 0,1 603,1 603,417 0,417 0,1 Z" /></clipPath><clipPath
       id="clipPath540"
       clipPathUnits="userSpaceOnUse"><path
         id="path542"
         d="m 159.7715,52.98615 85.19,0 0,18.8537 -85.19,0 0,-18.8537 z" /></clipPath><clipPath
       id="clipPath554"
       clipPathUnits="userSpaceOnUse"><path
         id="path556"
         d="M 0,1 603,1 603,417 0,417 0,1 Z" /></clipPath><clipPath
       id="clipPath566"
       clipPathUnits="userSpaceOnUse"><path
         id="path568"
         d="m 189.5267,52.98615 115.43,0 0,18.8537 -115.43,0 0,-18.8537 z" /></clipPath><clipPath
       id="clipPath580"
       clipPathUnits="userSpaceOnUse"><path
         id="path582"
         d="M 0,0 604,0 604,417 0,417 0,0 Z" /></clipPath></defs><g
     transform="matrix(1.25,0,0,-1.25,0,521.25)"
     id="g10"><g
       id="g12" /><g
       id="g14"><g
         clip-path="url(#clipPath18)"
         id="g16"><path
           id="path22"
           style="fill:#ffffff;fill-opacity:0;fill-rule:nonzero;stroke:none"
           d="M 0,417 604,417 604,0 0,0 0,417 Z" /><path
           id="path24"
           style="fill:#ffffff;fill-opacity:1;fill-rule:nonzero;stroke:none"
           d="m 0,417 604.0001,0 0,-416.0000061 L 0,0.9999939 0,417 Z" /></g></g><g
       id="g26"><g
         clip-path="url(#clipPath30)"
         id="g28"><g
           transform="matrix(7.874016e-5,0,0,-7.874016e-5,63.5,374.5)"
           id="g34"><path
             id="path36"
             style="fill:none;stroke:#d9d9d9;stroke-width:12700;stroke-linecap:butt;stroke-linejoin:round;stroke-miterlimit:10;stroke-dasharray:none;stroke-opacity:1"
             d="m 0,3530600 6553200,0 M 0,2832100 l 6553200,0 M 0,2120900 l 6553200,0 M 0,1409700 l 6553200,0 M 0,698500 l 6553200,0 M 0,0 6553200,0" /></g></g></g><g
       id="g38"><g
         clip-path="url(#clipPath42)"
         id="g40"><g
           transform="matrix(7.874016e-5,0,0,-7.874016e-5,81.5,374.5)"
           id="g46"><path
             id="path48"
             style="fill:none;stroke:#d9d9d9;stroke-width:12700;stroke-linecap:butt;stroke-linejoin:round;stroke-miterlimit:10;stroke-dasharray:none;stroke-opacity:1"
             d="m 6324600,0 0,4241800 M 5867400,0 l 0,4241800 M 5422900,0 l 0,4241800 M 4965700,0 l 0,4241800 M 4521200,0 l 0,4241800 M 4064000,0 l 0,4241800 M 3619500,0 l 0,4241800 M 3162300,0 l 0,4241800 M 2705100,0 l 0,4241800 M 2260600,0 l 0,4241800 M 1803400,0 l 0,4241800 M 1358900,0 l 0,4241800 M 901700,0 l 0,4241800 M 457200,0 l 0,4241800 M 0,0 0,4241800" /></g></g></g><g
       id="g50"><g
         clip-path="url(#clipPath54)"
         id="g52"><g
           transform="matrix(7.874016e-5,0,0,-7.874016e-5,63.5,374.5)"
           id="g58"><path
             id="path60"
             style="fill:none;stroke:#bfbfbf;stroke-width:12700;stroke-linecap:butt;stroke-linejoin:round;stroke-miterlimit:10;stroke-dasharray:none;stroke-opacity:1"
             d="M 0,4241800 1.01738,0" /></g></g></g><g
       id="g62"><g
         clip-path="url(#clipPath66)"
         id="g64"><g
           transform="matrix(7.874016e-5,0,0,-7.874016e-5,63.5,40.5)"
           id="g70"><path
             id="path72"
             style="fill:none;stroke:#bfbfbf;stroke-width:12700;stroke-linecap:butt;stroke-linejoin:round;stroke-miterlimit:10;stroke-dasharray:none;stroke-opacity:1"
             d="M 0,1.01738 6553200,0" /></g></g></g><g
       id="g74"><g
         clip-path="url(#clipPath78)"
         id="g76"><g
           transform="matrix(7.874016e-5,0,0,-7.874016e-5,77,252)"
           id="g82"><path
             id="path84"
             style="fill:none;stroke:#5b9bd5;stroke-width:25400;stroke-linecap:round;stroke-linejoin:round;stroke-miterlimit:10;stroke-dasharray:none;stroke-opacity:1"
             d="m 0,571500 228600,-431800 228600,25400 215900,-38100 228600,330200 228600,-342900 228600,63500 215900,-38100 228600,723900 228600,-736600 228600,-12700 228600,101600 215900,254000 228600,-317500 228600,76200 L 3390900,0 l 228600,1511300 215900,-1358900 228600,-76200 228600,114300 228600,-165100 215900,139700 228600,-127000 228600,419100 228600,-355600 228600,317500 215900,0 228600,-266700 228600,215900" /></g></g></g><g
       id="g86"><g
         clip-path="url(#clipPath90)"
         id="g88"><g
           transform="matrix(7.874016e-5,0,0,-7.874016e-5,77,237)"
           id="g94"><path
             id="path96"
             style="fill:none;stroke:#ed7d31;stroke-width:25400;stroke-linecap:round;stroke-linejoin:round;stroke-miterlimit:10;stroke-dasharray:none;stroke-opacity:1"
             d="m 0,88900 228600,12700 228600,0 L 673100,0 l 228600,215900 228600,-76200 228600,-76200 215900,25400 228600,-63500 228600,101600 228600,12700 228600,101600 215900,-63500 228600,-50800 228600,1003300 228600,-127000 228600,-533400 215900,-114300 228600,25400 228600,-139700 228600,0 215900,-101600 228600,0 228600,0 228600,-25400 228600,279400 215900,190500 228600,-355600 228600,-38100" /></g></g></g><g
       id="g98"><g
         clip-path="url(#clipPath102)"
         id="g100"><g
           transform="matrix(7.874016e-5,0,0,-7.874016e-5,77,236)"
           id="g106"><path
             id="path108"
             style="fill:none;stroke:#a5a5a5;stroke-width:25400;stroke-linecap:round;stroke-linejoin:round;stroke-miterlimit:10;stroke-dasharray:none;stroke-opacity:1"
             d="m 0,76200 228600,254000 228600,-190500 215900,-76200 228600,50800 228600,-76200 228600,12700 215900,50800 228600,25400 228600,38100 228600,-50800 228600,38100 215900,-38100 228600,673100 228600,-622300 228600,50800 228600,-127000 215900,-63500 228600,1257300 228600,-1079500 228600,-63500 215900,-114300 228600,38100 228600,-25400 228600,101600 228600,203200 215900,-139700 228600,330200 L 6324600,0" /></g></g></g><g
       id="g110"><g
         clip-path="url(#clipPath114)"
         id="g112"><g
           transform="matrix(7.874016e-5,0,0,-7.874016e-5,77,206)"
           id="g118"><path
             id="path120"
             style="fill:none;stroke:#ffc000;stroke-width:25400;stroke-linecap:round;stroke-linejoin:round;stroke-miterlimit:10;stroke-dasharray:none;stroke-opacity:1"
             d="m 0,1041400 228600,12700 228600,0 215900,-38100 228600,-63500 228600,12700 228600,0 215900,12700 228600,127000 228600,-292100 228600,228600 228600,-152400 215900,-165100 228600,114300 228600,-215900 228600,-63500 228600,-177800 215900,241300 228600,-88900 228600,-317500 228600,215900 215900,101600 228600,-431800 228600,-76200 228600,38100 228600,165100 215900,-76200 L 6096000,63500 6324600,0" /></g></g></g><g
       id="g122"><g
         clip-path="url(#clipPath126)"
         id="g124"><g
           transform="translate(30.30594,36.85016)"
           id="g130"><text
             id="text132"
             style="font-variant:normal;font-weight:normal;font-size:9px;font-family:'Helvetica Neue';-inkscape-font-specification:HelveticaNeue;writing-mode:lr-tb;fill:#595959;fill-opacity:1;fill-rule:nonzero;stroke:none"
             transform="scale(1,-1)"><tspan
               id="tspan134"
               y="0"
               x="0 5.0004001 10.0008 15.0012 20.0016">15000</tspan></text>
</g></g></g><g
       id="g136"><g
         clip-path="url(#clipPath140)"
         id="g138"><g
           transform="translate(30.30594,92.59055)"
           id="g144"><text
             id="text146"
             style="font-variant:normal;font-weight:normal;font-size:9px;font-family:'Helvetica Neue';-inkscape-font-specification:HelveticaNeue;writing-mode:lr-tb;fill:#595959;fill-opacity:1;fill-rule:nonzero;stroke:none"
             transform="scale(1,-1)"><tspan
               id="tspan148"
               y="0"
               x="0 5.0004001 10.0008 15.0012 20.0016">17500</tspan></text>
</g></g></g><g
       id="g150"><g
         clip-path="url(#clipPath154)"
         id="g152"><g
           transform="translate(30.30594,148.3309)"
           id="g158"><text
             id="text160"
             style="font-variant:normal;font-weight:normal;font-size:9px;font-family:'Helvetica Neue';-inkscape-font-specification:HelveticaNeue;writing-mode:lr-tb;fill:#595959;fill-opacity:1;fill-rule:nonzero;stroke:none"
             transform="scale(1,-1)"><tspan
               id="tspan162"
               y="0"
               x="0 5.0004001 10.0008 15.0012 20.0016">20000</tspan></text>
</g></g></g><g
       id="g164"><g
         clip-path="url(#clipPath168)"
         id="g166"><g
           transform="translate(30.30594,204.0713)"
           id="g172"><text
             id="text174"
             style="font-variant:normal;font-weight:normal;font-size:9px;font-family:'Helvetica Neue';-inkscape-font-specification:HelveticaNeue;writing-mode:lr-tb;fill:#595959;fill-opacity:1;fill-rule:nonzero;stroke:none"
             transform="scale(1,-1)"><tspan
               id="tspan176"
               y="0"
               x="0 5.0004001 10.0008 15.0012 20.0016">22500</tspan></text>
</g></g></g><g
       id="g178"><g
         clip-path="url(#clipPath182)"
         id="g180"><g
           transform="translate(30.30594,259.8116)"
           id="g186"><text
             id="text188"
             style="font-variant:normal;font-weight:normal;font-size:9px;font-family:'Helvetica Neue';-inkscape-font-specification:HelveticaNeue;writing-mode:lr-tb;fill:#595959;fill-opacity:1;fill-rule:nonzero;stroke:none"
             transform="scale(1,-1)"><tspan
               id="tspan190"
               y="0"
               x="0 5.0004001 10.0008 15.0012 20.0016">25000</tspan></text>
</g></g></g><g
       id="g192"><g
         clip-path="url(#clipPath196)"
         id="g194"><g
           transform="translate(30.30594,315.552)"
           id="g200"><text
             id="text202"
             style="font-variant:normal;font-weight:normal;font-size:9px;font-family:'Helvetica Neue';-inkscape-font-specification:HelveticaNeue;writing-mode:lr-tb;fill:#595959;fill-opacity:1;fill-rule:nonzero;stroke:none"
             transform="scale(1,-1)"><tspan
               id="tspan204"
               y="0"
               x="0 5.0004001 10.0008 15.0012 20.0016">27500</tspan></text>
</g></g></g><g
       id="g206"><g
         clip-path="url(#clipPath210)"
         id="g208"><g
           transform="translate(30.30594,371.2923)"
           id="g214"><text
             id="text216"
             style="font-variant:normal;font-weight:normal;font-size:9px;font-family:'Helvetica Neue';-inkscape-font-specification:HelveticaNeue;writing-mode:lr-tb;fill:#595959;fill-opacity:1;fill-rule:nonzero;stroke:none"
             transform="scale(1,-1)"><tspan
               id="tspan218"
               y="0"
               x="0 5.0004001 10.0008 15.0012 20.0016">30000</tspan></text>
</g></g></g><g
       id="g220"><g
         clip-path="url(#clipPath224)"
         id="g222"><g
           transform="translate(562.5839,25.76944)"
           id="g228"><text
             id="text230"
             style="font-variant:normal;font-weight:normal;font-size:9px;font-family:'Helvetica Neue';-inkscape-font-specification:HelveticaNeue;writing-mode:lr-tb;fill:#595959;fill-opacity:1;fill-rule:nonzero;stroke:none"
             transform="scale(1,-1)"><tspan
               id="tspan232"
               y="0"
               x="0 5.0004001 8.0028 13.0032 18.003599 23.004 28.0044">0.03125</tspan></text>
</g></g></g><g
       id="g234"><g
         clip-path="url(#clipPath238)"
         id="g236"><g
           transform="translate(532.0208,25.76944)"
           id="g242"><text
             id="text244"
             style="font-variant:normal;font-weight:normal;font-size:9px;font-family:'Helvetica Neue';-inkscape-font-specification:HelveticaNeue;writing-mode:lr-tb;fill:#595959;fill-opacity:1;fill-rule:nonzero;stroke:none"
             transform="scale(1,-1)"><tspan
               id="tspan246"
               y="0"
               x="0 5.0004001 8.0028 13.0032 18.003599">0.125</tspan></text>
</g></g></g><g
       id="g248"><g
         clip-path="url(#clipPath252)"
         id="g250"><g
           transform="translate(501.4578,25.76944)"
           id="g256"><text
             id="text258"
             style="font-variant:normal;font-weight:normal;font-size:9px;font-family:'Helvetica Neue';-inkscape-font-specification:HelveticaNeue;writing-mode:lr-tb;fill:#595959;fill-opacity:1;fill-rule:nonzero;stroke:none"
             transform="scale(1,-1)"><tspan
               id="tspan260"
               y="0"
               x="0 5.0004001 8.0028">0.5</tspan></text>
</g></g></g><g
       id="g262"><g
         clip-path="url(#clipPath266)"
         id="g264"><g
           transform="translate(469.8923,25.76944)"
           id="g270"><text
             id="text272"
             style="font-variant:normal;font-weight:normal;font-size:9px;font-family:'Helvetica Neue';-inkscape-font-specification:HelveticaNeue;writing-mode:lr-tb;fill:#595959;fill-opacity:1;fill-rule:nonzero;stroke:none"
             transform="scale(1,-1)"><tspan
               id="tspan274"
               y="0"
               x="0">2</tspan></text>
</g></g></g><g
       id="g276"><g
         clip-path="url(#clipPath280)"
         id="g278"><g
           transform="translate(434.3293,25.76944)"
           id="g284"><text
             id="text286"
             style="font-variant:normal;font-weight:normal;font-size:9px;font-family:'Helvetica Neue';-inkscape-font-specification:HelveticaNeue;writing-mode:lr-tb;fill:#595959;fill-opacity:1;fill-rule:nonzero;stroke:none"
             transform="scale(1,-1)"><tspan
               id="tspan288"
               y="0"
               x="0">8</tspan></text>
</g></g></g><g
       id="g290"><g
         clip-path="url(#clipPath294)"
         id="g292"><g
           transform="translate(396.7688,25.76944)"
           id="g298"><text
             id="text300"
             style="font-variant:normal;font-weight:normal;font-size:9px;font-family:'Helvetica Neue';-inkscape-font-specification:HelveticaNeue;writing-mode:lr-tb;fill:#595959;fill-opacity:1;fill-rule:nonzero;stroke:none"
             transform="scale(1,-1)"><tspan
               id="tspan302"
               y="0"
               x="0 5.0004001">32</tspan></text>
</g></g></g><g
       id="g304"><g
         clip-path="url(#clipPath308)"
         id="g306"><g
           transform="translate(358.2033,25.76944)"
           id="g312"><text
             id="text314"
             style="font-variant:normal;font-weight:normal;font-size:9px;font-family:'Helvetica Neue';-inkscape-font-specification:HelveticaNeue;writing-mode:lr-tb;fill:#595959;fill-opacity:1;fill-rule:nonzero;stroke:none"
             transform="scale(1,-1)"><tspan
               id="tspan316"
               y="0"
               x="0 5.0004001 10.0008">128</tspan></text>
</g></g></g><g
       id="g318"><g
         clip-path="url(#clipPath322)"
         id="g320"><g
           transform="translate(322.6403,25.76944)"
           id="g326"><text
             id="text328"
             style="font-variant:normal;font-weight:normal;font-size:9px;font-family:'Helvetica Neue';-inkscape-font-specification:HelveticaNeue;writing-mode:lr-tb;fill:#595959;fill-opacity:1;fill-rule:nonzero;stroke:none"
             transform="scale(1,-1)"><tspan
               id="tspan330"
               y="0"
               x="0 5.0004001 10.0008">512</tspan></text>
</g></g></g><g
       id="g332"><g
         clip-path="url(#clipPath336)"
         id="g334"><g
           transform="translate(285.0796,25.76944)"
           id="g340"><text
             id="text342"
             style="font-variant:normal;font-weight:normal;font-size:9px;font-family:'Helvetica Neue';-inkscape-font-specification:HelveticaNeue;writing-mode:lr-tb;fill:#595959;fill-opacity:1;fill-rule:nonzero;stroke:none"
             transform="scale(1,-1)"><tspan
               id="tspan344"
               y="0"
               x="0 5.0004001 10.0008 15.0012">2048</tspan></text>
</g></g></g><g
       id="g346"><g
         clip-path="url(#clipPath350)"
         id="g348"><g
           transform="translate(249.5166,25.76944)"
           id="g354"><text
             id="text356"
             style="font-variant:normal;font-weight:normal;font-size:9px;font-family:'Helvetica Neue';-inkscape-font-specification:HelveticaNeue;writing-mode:lr-tb;fill:#595959;fill-opacity:1;fill-rule:nonzero;stroke:none"
             transform="scale(1,-1)"><tspan
               id="tspan358"
               y="0"
               x="0 5.0004001 10.0008 15.0012">8192</tspan></text>
</g></g></g><g
       id="g360"><g
         clip-path="url(#clipPath364)"
         id="g362"><g
           transform="translate(210.9512,25.76944)"
           id="g368"><text
             id="text370"
             style="font-variant:normal;font-weight:normal;font-size:9px;font-family:'Helvetica Neue';-inkscape-font-specification:HelveticaNeue;writing-mode:lr-tb;fill:#595959;fill-opacity:1;fill-rule:nonzero;stroke:none"
             transform="scale(1,-1)"><tspan
               id="tspan372"
               y="0"
               x="0 5.0004001 10.0008 15.0012 20.0016">32768</tspan></text>
</g></g></g><g
       id="g374"><g
         clip-path="url(#clipPath378)"
         id="g376"><g
           transform="translate(173.3907,25.76944)"
           id="g382"><text
             id="text384"
             style="font-variant:normal;font-weight:normal;font-size:9px;font-family:'Helvetica Neue';-inkscape-font-specification:HelveticaNeue;writing-mode:lr-tb;fill:#595959;fill-opacity:1;fill-rule:nonzero;stroke:none"
             transform="scale(1,-1)"><tspan
               id="tspan386"> 128k</tspan></text>
</g></g></g><g
       id="g388"><g
         clip-path="url(#clipPath392)"
         id="g390"><g
           transform="translate(137.8277,25.76944)"
           id="g396"><text
             id="text398"
             style="font-variant:normal;font-weight:normal;font-size:9px;font-family:'Helvetica Neue';-inkscape-font-specification:HelveticaNeue;writing-mode:lr-tb;fill:#595959;fill-opacity:1;fill-rule:nonzero;stroke:none"
             transform="scale(1,-1)"><tspan
               id="tspan400">  512k</tspan></text>
</g></g></g><g
       id="g402"><g
         clip-path="url(#clipPath406)"
         id="g404"><g
           transform="translate(99.26217,25.76944)"
           id="g410"><text
             id="text412"
             style="font-variant:normal;font-weight:normal;font-size:9px;font-family:'Helvetica Neue';-inkscape-font-specification:HelveticaNeue;writing-mode:lr-tb;fill:#595959;fill-opacity:1;fill-rule:nonzero;stroke:none"
             transform="scale(1,-1)"><tspan
               id="tspan414">     2M</tspan></text>
</g></g></g><g
       id="g416"><g
         clip-path="url(#clipPath420)"
         id="g418"><g
           transform="translate(63.69909,25.76944)"
           id="g424"><text
             id="text426"
             style="font-variant:normal;font-weight:normal;font-size:9px;font-family:'Helvetica Neue';-inkscape-font-specification:HelveticaNeue;writing-mode:lr-tb;fill:#595959;fill-opacity:1;fill-rule:nonzero;stroke:none"
             transform="scale(1,-1)"><tspan
               id="tspan428">     8M</tspan></text>
</g></g></g><g
       id="g430"><g
         clip-path="url(#clipPath434)"
         id="g432"><g
           transform="matrix(0,1,-1,0,25.19099,156.3237)"
           id="g438"><text
             id="text440"
             style="font-variant:normal;font-weight:normal;font-size:10px;font-family:'Helvetica Neue';-inkscape-font-specification:HelveticaNeue;writing-mode:lr-tb;fill:#595959;fill-opacity:1;fill-rule:nonzero;stroke:none"
             transform="scale(1,-1)"><tspan
               id="tspan442"
               y="0"
               x="0 8 14 19 22 27 30 32 38 44 49 52 58 63 66 69 74 79 84 90 96">Operations per second</tspan></text>
</g></g></g><g
       id="g444"><g
         clip-path="url(#clipPath448)"
         id="g446"><g
           transform="translate(265.1169,10.53442)"
           id="g452"><text
             id="text454"
             style="font-variant:normal;font-weight:normal;font-size:10px;font-family:'Helvetica Neue';-inkscape-font-specification:HelveticaNeue;writing-mode:lr-tb;fill:#595959;fill-opacity:1;fill-rule:nonzero;stroke:none"
             transform="scale(1,-1)"><tspan
               id="tspan456"
               y="0"
               x="0 3 6 11 20 25 27 33 38 41 45 50 56 61 64 70 73 76 81 86 91 94 99 105 110">Items per shard (average)</tspan></text>
</g></g></g><g
       id="g458"><g
         clip-path="url(#clipPath462)"
         id="g460"><g
           transform="translate(142.5667,393.1735)"
           id="g466"><text
             id="text468"
             style="font-variant:normal;font-weight:normal;font-size:14px;font-family:'Helvetica Neue';-inkscape-font-specification:HelveticaNeue;writing-mode:lr-tb;fill:#595959;fill-opacity:1;fill-rule:nonzero;stroke:none"
             transform="scale(1,-1)"><tspan
               id="tspan470"
               y="0"
               x="0 10.0002 19.000799 28.0014 32.001202 44.000599 47.000801 54.000801 61.000801 65.000603 69.000397 77 81.999397 89.999001 97.998596 105.9982 113.9978 121.9974 129.99699 133.9968 137.9966 144.9966 151.9966 155.9964 158.9966 166.9962 174.9958 178.99561 186.99519 190.995 197.995 201.9948 206.9942 214.9938 222.99339 226.99319 234.9928 239.9922 247.99181 250.992 259.99261 262.9928 269.9928 277.9924 285.992 290.99139 298.991 301.99121 309.99081">CAS miss throughput vs. data structure &amp; sharding</tspan></text>
</g></g></g><g
       id="g472"><g
         clip-path="url(#clipPath476)"
         id="g474"><g
           transform="matrix(7.874016e-5,0,0,-7.874016e-5,82,63)"
           id="g480"><path
             id="path482"
             style="fill:none;stroke:#5b9bd5;stroke-width:25400;stroke-linecap:round;stroke-linejoin:round;stroke-miterlimit:10;stroke-dasharray:none;stroke-opacity:1"
             d="M 0,0 254000,1.01738" /></g></g></g><g
       id="g484"><g
         clip-path="url(#clipPath488)"
         id="g486"><g
           transform="translate(103.511,58.78052)"
           id="g492"><text
             id="text494"
             style="font-variant:normal;font-weight:normal;font-size:9px;font-family:'Helvetica Neue';-inkscape-font-specification:HelveticaNeue;writing-mode:lr-tb;fill:#595959;fill-opacity:1;fill-rule:nonzero;stroke:none"
             transform="scale(1,-1)"><tspan
               id="tspan496"
               y="0"
               x="0 2.9997001 5.0004001 9.9981003">flat</tspan></text>
</g></g></g><g
       id="g498"><g
         clip-path="url(#clipPath502)"
         id="g500"><g
           transform="matrix(7.874016e-5,0,0,-7.874016e-5,125,63)"
           id="g506"><path
             id="path508"
             style="fill:none;stroke:#ed7d31;stroke-width:25400;stroke-linecap:round;stroke-linejoin:round;stroke-miterlimit:10;stroke-dasharray:none;stroke-opacity:1"
             d="M 0,0 241300,1.01738" /></g></g></g><g
       id="g510"><g
         clip-path="url(#clipPath514)"
         id="g512"><g
           transform="translate(146.3913,58.78052)"
           id="g518"><text
             id="text520"
             style="font-variant:normal;font-weight:normal;font-size:9px;font-family:'Helvetica Neue';-inkscape-font-specification:HelveticaNeue;writing-mode:lr-tb;fill:#595959;fill-opacity:1;fill-rule:nonzero;stroke:none"
             transform="scale(1,-1)"><tspan
               id="tspan522"
               y="0"
               x="0 5.0004001 10.0008 15.0012">hash</tspan></text>
</g></g></g><g
       id="g524"><g
         clip-path="url(#clipPath528)"
         id="g526"><g
           transform="matrix(7.874016e-5,0,0,-7.874016e-5,175,63)"
           id="g532"><path
             id="path534"
             style="fill:none;stroke:#a5a5a5;stroke-width:25400;stroke-linecap:round;stroke-linejoin:round;stroke-miterlimit:10;stroke-dasharray:none;stroke-opacity:1"
             d="M 0,0 241300,1.01738" /></g></g></g><g
       id="g536"><g
         clip-path="url(#clipPath540)"
         id="g538"><g
           transform="translate(196.2815,58.78052)"
           id="g544"><text
             id="text546"
             style="font-variant:normal;font-weight:normal;font-size:9px;font-family:'Helvetica Neue';-inkscape-font-specification:HelveticaNeue;writing-mode:lr-tb;fill:#595959;fill-opacity:1;fill-rule:nonzero;stroke:none"
             transform="scale(1,-1)"><tspan
               id="tspan548"
               y="0"
               x="0 5.0004001 10.0008">set</tspan></text>
</g></g></g><g
       id="g550"><g
         clip-path="url(#clipPath554)"
         id="g552"><g
           transform="matrix(7.874016e-5,0,0,-7.874016e-5,218,63)"
           id="g558"><path
             id="path560"
             style="fill:none;stroke:#ffc000;stroke-width:25400;stroke-linecap:round;stroke-linejoin:round;stroke-miterlimit:10;stroke-dasharray:none;stroke-opacity:1"
             d="M 0,0 241300,1.01738" /></g></g></g><g
       id="g562"><g
         clip-path="url(#clipPath566)"
         id="g564"><g
           transform="translate(238.9967,58.78052)"
           id="g570"><text
             id="text572"
             style="font-variant:normal;font-weight:normal;font-size:9px;font-family:'Helvetica Neue';-inkscape-font-specification:HelveticaNeue;writing-mode:lr-tb;fill:#595959;fill-opacity:1;fill-rule:nonzero;stroke:none"
             transform="scale(1,-1)"><tspan
               id="tspan574"
               y="0"
               x="0 3.9995999 8.9982004 13.9968">zset</tspan></text>
</g></g></g><g
       id="g576"><g
         clip-path="url(#clipPath580)"
         id="g578"><g
           transform="matrix(7.874016e-5,0,0,-7.874016e-5,0.5,416.5)"
           id="g584"><path
             id="path586"
             style="fill:none;stroke:#d9d9d9;stroke-width:12700;stroke-linecap:butt;stroke-linejoin:round;stroke-miterlimit:10;stroke-dasharray:none;stroke-opacity:1"
             d="m 0,0 7658100,0 0,5283200 L 0,5283200 0,0 Z" /></g></g></g></g></svg>