<?xml version="1.0" encoding="UTF-8" standalone="no"?>
<svg
   xmlns:dc="http://purl.org/dc/elements/1.1/"
   xmlns:cc="http://creativecommons.org/ns#"
   xmlns:rdf="http://www.w3.org/1999/02/22-rdf-syntax-ns#"
   xmlns:svg="http://www.w3.org/2000/svg"
   xmlns="http://www.w3.org/2000/svg"
   xmlns:sodipodi="http://sodipodi.sourceforge.net/DTD/sodipodi-0.dtd"
   xmlns:inkscape="http://www.inkscape.org/namespaces/inkscape"
   viewBox="0 0 755 521.25"
   height="521.25"
   width="755"
   xml:space="preserve"
   version="1.1"
   id="svg2"
   inkscape:version="0.91 r13725"
   sodipodi:docname="i-memory-usage.svg"><sodipodi:namedview
     pagecolor="#ffffff"
     bordercolor="#666666"
     borderopacity="1"
     objecttolerance="10"
     gridtolerance="10"
     guidetolerance="10"
     inkscape:pageopacity="0"
     inkscape:pageshadow="2"
     inkscape:window-width="1225"
     inkscape:window-height="968"
     id="namedview329"
     showgrid="false"
     inkscape:zoom="1.4516556"
     inkscape:cx="377.5"
     inkscape:cy="260.625"
     inkscape:window-x="239"
     inkscape:window-y="5"
     inkscape:window-maximized="0"
     inkscape:current-layer="g10" /><metadata
     id="metadata8"><rdf:RDF><cc:Work
         rdf:about=""><dc:format>image/svg+xml</dc:format><dc:type
           rdf:resource="http://purl.org/dc/dcmitype/StillImage" /></cc:Work></rdf:RDF></metadata><defs
     id="defs6"><clipPath
       id="clipPath18"
       clipPathUnits="userSpaceOnUse"><path
         id="path20"
         d="M 0,0 604,0 604,417 0,417 0,0 Z" /></clipPath><clipPath
       id="clipPath30"
       clipPathUnits="userSpaceOnUse"><path
         id="path32"
         d="M 0,1 603,1 603,417 0,417 0,1 Z" /></clipPath><clipPath
       id="clipPath42"
       clipPathUnits="userSpaceOnUse"><path
         id="path44"
         d="M 0,1 603,1 603,417 0,417 0,1 Z" /></clipPath><clipPath
       id="clipPath54"
       clipPathUnits="userSpaceOnUse"><path
         id="path56"
         d="M 0,1 603,1 603,417 0,417 0,1 Z" /></clipPath><clipPath
       id="clipPath66"
       clipPathUnits="userSpaceOnUse"><path
         id="path68"
         d="M 0,1 603,1 603,417 0,417 0,1 Z" /></clipPath><clipPath
       id="clipPath78"
       clipPathUnits="userSpaceOnUse"><path
         id="path80"
         d="m 59,39 515,0 0,336 -515,0 0,-336 z" /></clipPath><clipPath
       id="clipPath90"
       clipPathUnits="userSpaceOnUse"><path
         id="path92"
         d="m 59,39 515,0 0,336 -515,0 0,-336 z" /></clipPath><clipPath
       id="clipPath102"
       clipPathUnits="userSpaceOnUse"><path
         id="path104"
         d="m 59,39 515,0 0,336 -515,0 0,-336 z" /></clipPath><clipPath
       id="clipPath114"
       clipPathUnits="userSpaceOnUse"><path
         id="path116"
         d="m 59,39 515,0 0,336 -515,0 0,-336 z" /></clipPath><clipPath
       id="clipPath126"
       clipPathUnits="userSpaceOnUse"><path
         id="path128"
         d="M 0,1 603,1 603,417 0,417 0,1 Z" /></clipPath><clipPath
       id="clipPath140"
       clipPathUnits="userSpaceOnUse"><path
         id="path142"
         d="M 0,1 603,1 603,417 0,417 0,1 Z" /></clipPath><clipPath
       id="clipPath154"
       clipPathUnits="userSpaceOnUse"><path
         id="path156"
         d="M 0,1 603,1 603,417 0,417 0,1 Z" /></clipPath><clipPath
       id="clipPath168"
       clipPathUnits="userSpaceOnUse"><path
         id="path170"
         d="M 0,1 603,1 603,417 0,417 0,1 Z" /></clipPath><clipPath
       id="clipPath182"
       clipPathUnits="userSpaceOnUse"><path
         id="path184"
         d="M 0,1 603,1 603,417 0,417 0,1 Z" /></clipPath><clipPath
       id="clipPath196"
       clipPathUnits="userSpaceOnUse"><path
         id="path198"
         d="M 0,1 603,1 603,417 0,417 0,1 Z" /></clipPath><clipPath
       id="clipPath210"
       clipPathUnits="userSpaceOnUse"><path
         id="path212"
         d="M 0,1 603,1 603,417 0,417 0,1 Z" /></clipPath><clipPath
       id="clipPath224"
       clipPathUnits="userSpaceOnUse"><path
         id="path226"
         d="M 0,1 603,1 603,417 0,417 0,1 Z" /></clipPath><clipPath
       id="clipPath238"
       clipPathUnits="userSpaceOnUse"><path
         id="path240"
         d="M 0,1 603,1 603,417 0,417 0,1 Z" /></clipPath><clipPath
       id="clipPath252"
       clipPathUnits="userSpaceOnUse"><path
         id="path254"
         d="M 0,1 603,1 603,417 0,417 0,1 Z" /></clipPath><clipPath
       id="clipPath266"
       clipPathUnits="userSpaceOnUse"><path
         id="path268"
         d="M 0,1 603,1 603,417 0,417 0,1 Z" /></clipPath><clipPath
       id="clipPath280"
       clipPathUnits="userSpaceOnUse"><path
         id="path282"
         d="M 0,1 603,1 603,417 0,417 0,1 Z" /></clipPath><clipPath
       id="clipPath294"
       clipPathUnits="userSpaceOnUse"><path
         id="path296"
         d="M 0,1 603,1 603,417 0,417 0,1 Z" /></clipPath><clipPath
       id="clipPath308"
       clipPathUnits="userSpaceOnUse"><path
         id="path310"
         d="M 0,1 603,1 603,417 0,417 0,1 Z" /></clipPath><clipPath
       id="clipPath322"
       clipPathUnits="userSpaceOnUse"><path
         id="path324"
         d="M 0,1 603,1 603,417 0,417 0,1 Z" /></clipPath><clipPath
       id="clipPath336"
       clipPathUnits="userSpaceOnUse"><path
         id="path338"
         d="M 0,1 603,1 603,417 0,417 0,1 Z" /></clipPath><clipPath
       id="clipPath350"
       clipPathUnits="userSpaceOnUse"><path
         id="path352"
         d="M 0,1 603,1 603,417 0,417 0,1 Z" /></clipPath><clipPath
       id="clipPath364"
       clipPathUnits="userSpaceOnUse"><path
         id="path366"
         d="M 0,1 603,1 603,417 0,417 0,1 Z" /></clipPath><clipPath
       id="clipPath378"
       clipPathUnits="userSpaceOnUse"><path
         id="path380"
         d="M 0,1 603,1 603,417 0,417 0,1 Z" /></clipPath><clipPath
       id="clipPath392"
       clipPathUnits="userSpaceOnUse"><path
         id="path394"
         d="M 0,1 603,1 603,417 0,417 0,1 Z" /></clipPath><clipPath
       id="clipPath406"
       clipPathUnits="userSpaceOnUse"><path
         id="path408"
         d="M 0,1 603,1 603,417 0,417 0,1 Z" /></clipPath><clipPath
       id="clipPath420"
       clipPathUnits="userSpaceOnUse"><path
         id="path422"
         d="M 0,1 603,1 603,417 0,417 0,1 Z" /></clipPath><clipPath
       id="clipPath434"
       clipPathUnits="userSpaceOnUse"><path
         id="path436"
         d="M 0,1 603,1 603,417 0,417 0,1 Z" /></clipPath><clipPath
       id="clipPath448"
       clipPathUnits="userSpaceOnUse"><path
         id="path450"
         d="M 0,1 603,1 603,417 0,417 0,1 Z" /></clipPath><clipPath
       id="clipPath462"
       clipPathUnits="userSpaceOnUse"><path
         id="path464"
         d="M 0,1 603,1 603,417 0,417 0,1 Z" /></clipPath><clipPath
       id="clipPath476"
       clipPathUnits="userSpaceOnUse"><path
         id="path478"
         d="M 0,1 603,1 603,417 0,417 0,1 Z" /></clipPath><clipPath
       id="clipPath490"
       clipPathUnits="userSpaceOnUse"><path
         id="path492"
         d="M 0,1 603,1 603,417 0,417 0,1 Z" /></clipPath><clipPath
       id="clipPath504"
       clipPathUnits="userSpaceOnUse"><path
         id="path506"
         d="M 0,1 603,1 603,417 0,417 0,1 Z" /></clipPath><clipPath
       id="clipPath518"
       clipPathUnits="userSpaceOnUse"><path
         id="path520"
         d="M 0,1 603,1 603,417 0,417 0,1 Z" /></clipPath><clipPath
       id="clipPath532"
       clipPathUnits="userSpaceOnUse"><path
         id="path534"
         d="M 0,1 603,1 603,417 0,417 0,1 Z" /></clipPath><clipPath
       id="clipPath546"
       clipPathUnits="userSpaceOnUse"><path
         id="path548"
         d="M 0,1 603,1 603,417 0,417 0,1 Z" /></clipPath><clipPath
       id="clipPath558"
       clipPathUnits="userSpaceOnUse"><path
         id="path560"
         d="m 59.57658,346.022 86.34527,0 0,18.81 -86.34527,0 0,-18.81 z" /></clipPath><clipPath
       id="clipPath572"
       clipPathUnits="userSpaceOnUse"><path
         id="path574"
         d="M 0,1 603,1 603,417 0,417 0,1 Z" /></clipPath><clipPath
       id="clipPath584"
       clipPathUnits="userSpaceOnUse"><path
         id="path586"
         d="m 81.47684,346.022 135.4153,0 0,18.81 -135.4153,0 0,-18.81 z" /></clipPath><clipPath
       id="clipPath598"
       clipPathUnits="userSpaceOnUse"><path
         id="path600"
         d="M 0,1 603,1 603,417 0,417 0,1 Z" /></clipPath><clipPath
       id="clipPath610"
       clipPathUnits="userSpaceOnUse"><path
         id="path612"
         d="m 152.9423,346.022 85.19,0 0,18.81 -85.19,0 0,-18.81 z" /></clipPath><clipPath
       id="clipPath624"
       clipPathUnits="userSpaceOnUse"><path
         id="path626"
         d="M 0,1 603,1 603,417 0,417 0,1 Z" /></clipPath><clipPath
       id="clipPath636"
       clipPathUnits="userSpaceOnUse"><path
         id="path638"
         d="m 182.7476,346.022 115.43,0 0,18.81 -115.43,0 0,-18.81 z" /></clipPath><clipPath
       id="clipPath650"
       clipPathUnits="userSpaceOnUse"><path
         id="path652"
         d="M 0,0 604,0 604,417 0,417 0,0 Z" /></clipPath></defs><g
     transform="matrix(1.25,0,0,-1.25,0,521.25)"
     id="g10"><g
       id="g12" /><g
       id="g14"><g
         clip-path="url(#clipPath18)"
         id="g16"><path
           id="path22"
           style="fill:#ffffff;fill-opacity:0;fill-rule:nonzero;stroke:none"
           d="M 0,417 604,417 604,0 0,0 0,417 Z" /><path
           id="path24"
           style="fill:#ffffff;fill-opacity:1;fill-rule:nonzero;stroke:none"
           d="m 0,416 604.0001,0 0,-416.000006138347 -604.0001,0 L 0,416 Z" /></g></g><g
       id="g26"><g
         clip-path="url(#clipPath30)"
         id="g28"><g
           transform="matrix(7.874016e-5,0,0,-7.874016e-5,59.5,374.5)"
           id="g34"><path
             id="path36"
             style="fill:none;stroke:#d9d9d9;stroke-width:12700;stroke-linecap:butt;stroke-linejoin:round;stroke-miterlimit:10;stroke-dasharray:none;stroke-opacity:1"
             d="m 0,4254500 6527800,0 M 0,3644900 l 6527800,0 M 0,3048000 l 6527800,0 M 0,2438400 l 6527800,0 M 0,1828800 l 6527800,0 M 0,1219200 l 6527800,0 M 0,609600 l 6527800,0 M 0,0 6527800,0" /></g></g></g><g
       id="g38"><g
         clip-path="url(#clipPath42)"
         id="g40"><g
           transform="matrix(7.874016e-5,0,0,-7.874016e-5,59.5,374.5)"
           id="g46"><path
             id="path48"
             style="fill:none;stroke:#d9d9d9;stroke-width:12700;stroke-linecap:butt;stroke-linejoin:round;stroke-miterlimit:10;stroke-dasharray:none;stroke-opacity:1"
             d="m 469900,0 0,4254500 M 939800,0 l 0,4254500 M 1397000,0 l 0,4254500 M 1866900,0 l 0,4254500 M 2336800,0 l 0,4254500 M 2794000,0 l 0,4254500 M 3263900,0 l 0,4254500 M 3733800,0 l 0,4254500 M 4191000,0 l 0,4254500 M 4660900,0 l 0,4254500 M 5130800,0 l 0,4254500 M 5600700,0 l 0,4254500 M 6057900,0 l 0,4254500 M 6527800,0 l 0,4254500" /></g></g></g><g
       id="g50"><g
         clip-path="url(#clipPath54)"
         id="g52"><g
           transform="matrix(7.874016e-5,0,0,-7.874016e-5,59.5,374.5)"
           id="g58"><path
             id="path60"
             style="fill:none;stroke:#bfbfbf;stroke-width:12700;stroke-linecap:butt;stroke-linejoin:round;stroke-miterlimit:10;stroke-dasharray:none;stroke-opacity:1"
             d="M 0,4254500 1.01738,0" /></g></g></g><g
       id="g62"><g
         clip-path="url(#clipPath66)"
         id="g64"><g
           transform="matrix(7.874016e-5,0,0,-7.874016e-5,59.5,39.5)"
           id="g70"><path
             id="path72"
             style="fill:none;stroke:#bfbfbf;stroke-width:12700;stroke-linecap:butt;stroke-linejoin:round;stroke-miterlimit:10;stroke-dasharray:none;stroke-opacity:1"
             d="M 0,0 6527800,1.01738" /></g></g></g><g
       id="g74"><g
         clip-path="url(#clipPath78)"
         id="g76"><g
           transform="matrix(7.874016e-5,0,0,-7.874016e-5,60,144)"
           id="g82"><path
             id="path84"
             style="fill:none;stroke:#5b9bd5;stroke-width:25400;stroke-linecap:round;stroke-linejoin:round;stroke-miterlimit:10;stroke-dasharray:none;stroke-opacity:1"
             d="m 0,0 228600,0 228600,0 241300,0 228600,0 228600,0 241300,0 228600,0 228600,0 241300,0 228600,0 228600,0 241300,0 228600,0 241300,0 228600,0 228600,0 241300,0 228600,0 228600,0 241300,0 228600,0 228600,0 241300,0 228600,0 228600,0 241300,0 228600,0 228600,0" /></g></g></g><g
       id="g86"><g
         clip-path="url(#clipPath90)"
         id="g88"><g
           transform="matrix(7.874016e-5,0,0,-7.874016e-5,60,180)"
           id="g94"><path
             id="path96"
             style="fill:none;stroke:#ed7d31;stroke-width:25400;stroke-linecap:round;stroke-linejoin:round;stroke-miterlimit:10;stroke-dasharray:none;stroke-opacity:1"
             d="m 0,368300 228600,0 228600,0 241300,0 228600,0 228600,0 241300,0 228600,0 228600,12700 241300,0 228600,0 228600,0 241300,0 228600,12700 241300,38100 228600,863600 228600,-165100 241300,215900 228600,-12700 228600,-25400 241300,-63500 228600,-139700 L 5118100,889000 5359400,635000 5588000,431800 5816600,139700 6057900,63500 6286500,25400 6515100,0" /></g></g></g><g
       id="g98"><g
         clip-path="url(#clipPath102)"
         id="g100"><g
           transform="matrix(7.874016e-5,0,0,-7.874016e-5,60,331)"
           id="g106"><path
             id="path108"
             style="fill:none;stroke:#a5a5a5;stroke-width:25400;stroke-linecap:round;stroke-linejoin:round;stroke-miterlimit:10;stroke-dasharray:none;stroke-opacity:1"
             d="m 0,2286000 228600,0 228600,0 241300,0 228600,0 228600,0 241300,0 228600,0 228600,12700 241300,0 228600,0 228600,0 241300,0 228600,25400 241300,12700 228600,50800 228600,101600 241300,-12700 228600,-12700 228600,-38100 241300,-114300 228600,-215900 228600,-393700 241300,-533400 L 5588000,736600 5816600,292100 6057900,139700 6286500,50800 6515100,0" /></g></g></g><g
       id="g110"><g
         clip-path="url(#clipPath114)"
         id="g112"><g
           transform="matrix(7.874016e-5,0,0,-7.874016e-5,60,202)"
           id="g118"><path
             id="path120"
             style="fill:none;stroke:#ffc000;stroke-width:25400;stroke-linecap:round;stroke-linejoin:round;stroke-miterlimit:10;stroke-dasharray:none;stroke-opacity:1"
             d="m 0,0 228600,0 228600,0 241300,0 228600,0 228600,0 241300,0 228600,0 228600,12700 241300,63500 228600,-25400 228600,-38100 241300,38100 228600,-12700 241300,-12700 228600,12700 228600,101600 241300,1485900 228600,-12700 228600,-25400 241300,-63500 228600,-139700 228600,-215900 241300,-342900 228600,-114300 228600,-292100 241300,-76200 228600,-38100 228600,-25400" /></g></g></g><g
       id="g122"><g
         clip-path="url(#clipPath126)"
         id="g124"><g
           transform="translate(13.51579,35.51913)"
           id="g130"><text
             id="text132"
             style="font-variant:normal;font-weight:normal;font-size:9px;font-family:'Helvetica Neue';-inkscape-font-specification:HelveticaNeue;writing-mode:lr-tb;fill:#595959;fill-opacity:1;fill-rule:nonzero;stroke:none"
             transform="scale(1,-1)"><tspan
               id="tspan134" /></text>
</g></g></g><g
       id="g136"><g
         clip-path="url(#clipPath140)"
         id="g138"><g
           transform="translate(13.51579,83.44315)"
           id="g144"><text
             id="text146"
             style="font-variant:normal;font-weight:normal;font-size:9px;font-family:'Helvetica Neue';-inkscape-font-specification:HelveticaNeue;writing-mode:lr-tb;fill:#595959;fill-opacity:1;fill-rule:nonzero;stroke:none"
             transform="scale(1,-1)"><tspan
               id="tspan148" /></text>
</g></g></g><g
       id="g150"><g
         clip-path="url(#clipPath154)"
         id="g152"><g
           transform="translate(13.51579,131.3671)"
           id="g158"><text
             id="text160"
             style="font-variant:normal;font-weight:normal;font-size:9px;font-family:'Helvetica Neue';-inkscape-font-specification:HelveticaNeue;writing-mode:lr-tb;fill:#595959;fill-opacity:1;fill-rule:nonzero;stroke:none"
             transform="scale(1,-1)"><tspan
               id="tspan162">     1GB</tspan></text>
</g></g></g><g
       id="g164"><g
         clip-path="url(#clipPath168)"
         id="g166"><g
           transform="translate(13.51579,179.2911)"
           id="g172"><text
             id="text174"
             style="font-variant:normal;font-weight:normal;font-size:9px;font-family:'Helvetica Neue';-inkscape-font-specification:HelveticaNeue;writing-mode:lr-tb;fill:#595959;fill-opacity:1;fill-rule:nonzero;stroke:none"
             transform="scale(1,-1)"><tspan
               id="tspan176" /></text>
</g></g></g><g
       id="g178"><g
         clip-path="url(#clipPath182)"
         id="g180"><g
           transform="translate(13.51579,227.215)"
           id="g186"><text
             id="text188"
             style="font-variant:normal;font-weight:normal;font-size:9px;font-family:'Helvetica Neue';-inkscape-font-specification:HelveticaNeue;writing-mode:lr-tb;fill:#595959;fill-opacity:1;fill-rule:nonzero;stroke:none"
             transform="scale(1,-1)"><tspan
               id="tspan190">     2GB</tspan></text>
</g></g></g><g
       id="g192"><g
         clip-path="url(#clipPath196)"
         id="g194"><g
           transform="translate(13.51579,275.139)"
           id="g200"><text
             id="text202"
             style="font-variant:normal;font-weight:normal;font-size:9px;font-family:'Helvetica Neue';-inkscape-font-specification:HelveticaNeue;writing-mode:lr-tb;fill:#595959;fill-opacity:1;fill-rule:nonzero;stroke:none"
             transform="scale(1,-1)"><tspan
               id="tspan204" /></text>
</g></g></g><g
       id="g206"><g
         clip-path="url(#clipPath210)"
         id="g208"><g
           transform="translate(13.51579,323.063)"
           id="g214"><text
             id="text216"
             style="font-variant:normal;font-weight:normal;font-size:9px;font-family:'Helvetica Neue';-inkscape-font-specification:HelveticaNeue;writing-mode:lr-tb;fill:#595959;fill-opacity:1;fill-rule:nonzero;stroke:none"
             transform="scale(1,-1)"><tspan
               id="tspan218">     3GB</tspan></text>
</g></g></g><g
       id="g220"><g
         clip-path="url(#clipPath224)"
         id="g222"><g
           transform="translate(13.51579,370.987)"
           id="g228"><text
             id="text230"
             style="font-variant:normal;font-weight:normal;font-size:9px;font-family:'Helvetica Neue';-inkscape-font-specification:HelveticaNeue;writing-mode:lr-tb;fill:#595959;fill-opacity:1;fill-rule:nonzero;stroke:none"
             transform="scale(1,-1)"><tspan
               id="tspan232" /></text>
</g></g></g><g
       id="g234"><g
         clip-path="url(#clipPath238)"
         id="g236"><g
           transform="translate(56.82744,24.43842)"
           id="g242"><text
             id="text244"
             style="font-variant:normal;font-weight:normal;font-size:9px;font-family:'Helvetica Neue';-inkscape-font-specification:HelveticaNeue;writing-mode:lr-tb;fill:#595959;fill-opacity:1;fill-rule:nonzero;stroke:none"
             transform="scale(1,-1)"><tspan
               id="tspan246"
               y="0"
               x="0">1</tspan></text>
</g></g></g><g
       id="g248"><g
         clip-path="url(#clipPath252)"
         id="g250"><g
           transform="translate(93.52563,24.43842)"
           id="g256"><text
             id="text258"
             style="font-variant:normal;font-weight:normal;font-size:9px;font-family:'Helvetica Neue';-inkscape-font-specification:HelveticaNeue;writing-mode:lr-tb;fill:#595959;fill-opacity:1;fill-rule:nonzero;stroke:none"
             transform="scale(1,-1)"><tspan
               id="tspan260"
               y="0"
               x="0">4</tspan></text>
</g></g></g><g
       id="g262"><g
         clip-path="url(#clipPath266)"
         id="g264"><g
           transform="translate(128.2263,24.43842)"
           id="g270"><text
             id="text272"
             style="font-variant:normal;font-weight:normal;font-size:9px;font-family:'Helvetica Neue';-inkscape-font-specification:HelveticaNeue;writing-mode:lr-tb;fill:#595959;fill-opacity:1;fill-rule:nonzero;stroke:none"
             transform="scale(1,-1)"><tspan
               id="tspan274"
               y="0"
               x="0 5.0004001">16</tspan></text>
</g></g></g><g
       id="g276"><g
         clip-path="url(#clipPath280)"
         id="g278"><g
           transform="translate(164.9245,24.43842)"
           id="g284"><text
             id="text286"
             style="font-variant:normal;font-weight:normal;font-size:9px;font-family:'Helvetica Neue';-inkscape-font-specification:HelveticaNeue;writing-mode:lr-tb;fill:#595959;fill-opacity:1;fill-rule:nonzero;stroke:none"
             transform="scale(1,-1)"><tspan
               id="tspan288"
               y="0"
               x="0 5.0004001">64</tspan></text>
</g></g></g><g
       id="g290"><g
         clip-path="url(#clipPath294)"
         id="g292"><g
           transform="translate(198.6201,24.43842)"
           id="g298"><text
             id="text300"
             style="font-variant:normal;font-weight:normal;font-size:9px;font-family:'Helvetica Neue';-inkscape-font-specification:HelveticaNeue;writing-mode:lr-tb;fill:#595959;fill-opacity:1;fill-rule:nonzero;stroke:none"
             transform="scale(1,-1)"><tspan
               id="tspan302"
               y="0"
               x="0 5.0004001 10.0008">256</tspan></text>
</g></g></g><g
       id="g304"><g
         clip-path="url(#clipPath308)"
         id="g306"><g
           transform="translate(233.3207,24.43842)"
           id="g312"><text
             id="text314"
             style="font-variant:normal;font-weight:normal;font-size:9px;font-family:'Helvetica Neue';-inkscape-font-specification:HelveticaNeue;writing-mode:lr-tb;fill:#595959;fill-opacity:1;fill-rule:nonzero;stroke:none"
             transform="scale(1,-1)"><tspan
               id="tspan316"
               y="0"
               x="0 5.0004001 10.0008 15.0012">1024</tspan></text>
</g></g></g><g
       id="g318"><g
         clip-path="url(#clipPath322)"
         id="g320"><g
           transform="translate(270.0189,24.43842)"
           id="g326"><text
             id="text328"
             style="font-variant:normal;font-weight:normal;font-size:9px;font-family:'Helvetica Neue';-inkscape-font-specification:HelveticaNeue;writing-mode:lr-tb;fill:#595959;fill-opacity:1;fill-rule:nonzero;stroke:none"
             transform="scale(1,-1)"><tspan
               id="tspan330"
               y="0"
               x="0 5.0004001 10.0008 15.0012">4096</tspan></text>
</g></g></g><g
       id="g332"><g
         clip-path="url(#clipPath336)"
         id="g334"><g
           transform="translate(303.7147,24.43842)"
           id="g340"><text
             id="text342"
             style="font-variant:normal;font-weight:normal;font-size:9px;font-family:'Helvetica Neue';-inkscape-font-specification:HelveticaNeue;writing-mode:lr-tb;fill:#595959;fill-opacity:1;fill-rule:nonzero;stroke:none"
             transform="scale(1,-1)"><tspan
               id="tspan344"
               y="0"
               x="0 5.0004001 10.0008 15.0012 20.0016">16384</tspan></text>
</g></g></g><g
       id="g346"><g
         clip-path="url(#clipPath350)"
         id="g348"><g
           transform="translate(340.4128,24.43842)"
           id="g354"><text
             id="text356"
             style="font-variant:normal;font-weight:normal;font-size:9px;font-family:'Helvetica Neue';-inkscape-font-specification:HelveticaNeue;writing-mode:lr-tb;fill:#595959;fill-opacity:1;fill-rule:nonzero;stroke:none"
             transform="scale(1,-1)"><tspan
               id="tspan358"
               y="0"
               x="0 5.0004001 10.0008 15.0012 20.0016">65536</tspan></text>
</g></g></g><g
       id="g360"><g
         clip-path="url(#clipPath364)"
         id="g362"><g
           transform="translate(375.1135,24.43842)"
           id="g368"><text
             id="text370"
             style="font-variant:normal;font-weight:normal;font-size:9px;font-family:'Helvetica Neue';-inkscape-font-specification:HelveticaNeue;writing-mode:lr-tb;fill:#595959;fill-opacity:1;fill-rule:nonzero;stroke:none"
             transform="scale(1,-1)"><tspan
               id="tspan372">  256k</tspan></text>
</g></g></g><g
       id="g374"><g
         clip-path="url(#clipPath378)"
         id="g376"><g
           transform="translate(408.8092,24.43842)"
           id="g382"><text
             id="text384"
             style="font-variant:normal;font-weight:normal;font-size:9px;font-family:'Helvetica Neue';-inkscape-font-specification:HelveticaNeue;writing-mode:lr-tb;fill:#595959;fill-opacity:1;fill-rule:nonzero;stroke:none"
             transform="scale(1,-1)"><tspan
               id="tspan386">    1M</tspan></text>
</g></g></g><g
       id="g388"><g
         clip-path="url(#clipPath392)"
         id="g390"><g
           transform="translate(445.5074,24.43842)"
           id="g396"><text
             id="text398"
             style="font-variant:normal;font-weight:normal;font-size:9px;font-family:'Helvetica Neue';-inkscape-font-specification:HelveticaNeue;writing-mode:lr-tb;fill:#595959;fill-opacity:1;fill-rule:nonzero;stroke:none"
             transform="scale(1,-1)"><tspan
               id="tspan400">     4M</tspan></text>
</g></g></g><g
       id="g402"><g
         clip-path="url(#clipPath406)"
         id="g404"><g
           transform="translate(480.2079,24.43842)"
           id="g410"><text
             id="text412"
             style="font-variant:normal;font-weight:normal;font-size:9px;font-family:'Helvetica Neue';-inkscape-font-specification:HelveticaNeue;writing-mode:lr-tb;fill:#595959;fill-opacity:1;fill-rule:nonzero;stroke:none"
             transform="scale(1,-1)"><tspan
               id="tspan414">     16M</tspan></text>
</g></g></g><g
       id="g416"><g
         clip-path="url(#clipPath420)"
         id="g418"><g
           transform="translate(516.9061,24.43842)"
           id="g424"><text
             id="text426"
             style="font-variant:normal;font-weight:normal;font-size:9px;font-family:'Helvetica Neue';-inkscape-font-specification:HelveticaNeue;writing-mode:lr-tb;fill:#595959;fill-opacity:1;fill-rule:nonzero;stroke:none"
             transform="scale(1,-1)"><tspan
               id="tspan428">     64M</tspan></text>
</g></g></g><g
       id="g430"><g
         clip-path="url(#clipPath434)"
         id="g432"><g
           transform="translate(550.6019,24.43842)"
           id="g438"><text
             id="text440"
             style="font-variant:normal;font-weight:normal;font-size:9px;font-family:'Helvetica Neue';-inkscape-font-specification:HelveticaNeue;writing-mode:lr-tb;fill:#595959;fill-opacity:1;fill-rule:nonzero;stroke:none"
             transform="scale(1,-1)"><tspan
               id="tspan442">     256M</tspan></text>
</g></g></g><g
       id="g444"><g
         clip-path="url(#clipPath448)"
         id="g446"><g
           transform="matrix(0,1,-1,0,11.79516,159.5056)"
           id="g452"><text
             id="text454"
             style="font-variant:normal;font-weight:normal;font-size:10px;font-family:'Helvetica Neue';-inkscape-font-specification:HelveticaNeue;writing-mode:lr-tb;fill:#595959;fill-opacity:1;fill-rule:nonzero;stroke:none"
             transform="scale(1,-1)"><tspan
               id="tspan456"
               y="0"
               x="0 6 12 15 20 22 25 34 39 48 54 57 62 64 67 73 78 81 86 91">Total memory (bytes)</tspan></text>
</g></g></g><g
       id="g458"><g
         clip-path="url(#clipPath462)"
         id="g460"><g
           transform="translate(259.7115,6.160553)"
           id="g466"><text
             id="text468"
             style="font-variant:normal;font-weight:normal;font-size:10px;font-family:'Helvetica Neue';-inkscape-font-specification:HelveticaNeue;writing-mode:lr-tb;fill:#595959;fill-opacity:1;fill-rule:nonzero;stroke:none"
             transform="scale(1,-1)"><tspan
               id="tspan470"
               y="0"
               x="0 7 13 22 28 33 36 39 45 48 50 55 61 66 69 75">Number of shards</tspan></text>
</g></g></g><g
       id="g472"><g
         clip-path="url(#clipPath476)"
         id="g474"><g
           transform="translate(170.661,392.8682)"
           id="g480"><text
             id="text482"
             style="font-variant:normal;font-weight:normal;font-size:14px;font-family:'Helvetica Neue';-inkscape-font-specification:HelveticaNeue;writing-mode:lr-tb;fill:#595959;fill-opacity:1;fill-rule:nonzero;stroke:none"
             transform="scale(1,-1)"><tspan
               id="tspan484"
               y="0"
               x="0 11.9994 19.999001 31.9984 39.998001 44.997398 51.997398 54.997601 58.997398 66.997002 71.996399 75.996201 82.996201 86.996002 94.995598 99.995003 107.9946 115.9942 123.9938 126.994 134.99361 138.99339 142.99319 150.9928">Memory for storage of 10</tspan></text>
</g></g></g><g
       id="g486"><g
         clip-path="url(#clipPath490)"
         id="g488"><g
           transform="translate(329.661,396.8682)"
           id="g494"><text
             id="text496"
             style="font-variant:normal;font-weight:normal;font-size:9px;font-family:'Helvetica Neue';-inkscape-font-specification:HelveticaNeue;writing-mode:lr-tb;fill:#595959;fill-opacity:1;fill-rule:nonzero;stroke:none"
             transform="scale(1,-1)"><tspan
               id="tspan498"
               y="0"
               x="0">7</tspan></text>
</g></g></g><g
       id="g500"><g
         clip-path="url(#clipPath504)"
         id="g502"><g
           transform="translate(338.661,392.8682)"
           id="g508"><text
             id="text510"
             style="font-variant:normal;font-weight:normal;font-size:14px;font-family:'Helvetica Neue';-inkscape-font-specification:HelveticaNeue;writing-mode:lr-tb;fill:#595959;fill-opacity:1;fill-rule:nonzero;stroke:none"
             transform="scale(1,-1)"><tspan
               id="tspan512"
               y="0"
               x="0 7.9995999">32</tspan></text>
</g></g></g><g
       id="g514"><g
         clip-path="url(#clipPath518)"
         id="g516"><g
           transform="translate(354.661,392.8682)"
           id="g522"><text
             id="text524"
             style="font-variant:normal;font-weight:normal;font-size:14px;font-family:'Helvetica Neue';-inkscape-font-specification:HelveticaNeue;writing-mode:lr-tb;fill:#595959;fill-opacity:1;fill-rule:nonzero;stroke:none"
             transform="scale(1,-1)"><tspan
               id="tspan526"
               y="0"
               x="0">-</tspan></text>
</g></g></g><g
       id="g528"><g
         clip-path="url(#clipPath532)"
         id="g530"><g
           transform="translate(359.661,392.8682)"
           id="g536"><text
             id="text538"
             style="font-variant:normal;font-weight:normal;font-size:14px;font-family:'Helvetica Neue';-inkscape-font-specification:HelveticaNeue;writing-mode:lr-tb;fill:#595959;fill-opacity:1;fill-rule:nonzero;stroke:none"
             transform="scale(1,-1)"><tspan
               id="tspan540"
               y="0"
               x="0 7.9995999 14.9996 18.999399 26.999001 30.9988 37.998798 41.9986 46.998001 49.998199 57.997799 65.997398">byte strings</tspan></text>
</g></g></g><g
       id="g542"><g
         clip-path="url(#clipPath546)"
         id="g544"><g
           transform="matrix(7.874016e-5,0,0,-7.874016e-5,75,356)"
           id="g550"><path
             id="path552"
             style="fill:none;stroke:#5b9bd5;stroke-width:25400;stroke-linecap:round;stroke-linejoin:round;stroke-miterlimit:10;stroke-dasharray:none;stroke-opacity:1"
             d="M 0,0 254000,1.16272" /></g></g></g><g
       id="g554"><g
         clip-path="url(#clipPath558)"
         id="g556"><g
           transform="translate(96.5817,351.7946)"
           id="g562"><text
             id="text564"
             style="font-variant:normal;font-weight:normal;font-size:9px;font-family:'Helvetica Neue';-inkscape-font-specification:HelveticaNeue;writing-mode:lr-tb;fill:#595959;fill-opacity:1;fill-rule:nonzero;stroke:none"
             transform="scale(1,-1)"><tspan
               id="tspan566"
               y="0"
               x="0 2.9997001 5.0004001 9.9981003">flat</tspan></text>
</g></g></g><g
       id="g568"><g
         clip-path="url(#clipPath572)"
         id="g570"><g
           transform="matrix(7.874016e-5,0,0,-7.874016e-5,118,356)"
           id="g576"><path
             id="path578"
             style="fill:none;stroke:#ed7d31;stroke-width:25400;stroke-linecap:round;stroke-linejoin:round;stroke-miterlimit:10;stroke-dasharray:none;stroke-opacity:1"
             d="M 0,0 254000,1.16272" /></g></g></g><g
       id="g580"><g
         clip-path="url(#clipPath584)"
         id="g582"><g
           transform="translate(139.512,351.7946)"
           id="g588"><text
             id="text590"
             style="font-variant:normal;font-weight:normal;font-size:9px;font-family:'Helvetica Neue';-inkscape-font-specification:HelveticaNeue;writing-mode:lr-tb;fill:#595959;fill-opacity:1;fill-rule:nonzero;stroke:none"
             transform="scale(1,-1)"><tspan
               id="tspan592"
               y="0"
               x="0 5.0004001 10.0008 15.0012">hash</tspan></text>
</g></g></g><g
       id="g594"><g
         clip-path="url(#clipPath598)"
         id="g596"><g
           transform="matrix(7.874016e-5,0,0,-7.874016e-5,168,356)"
           id="g602"><path
             id="path604"
             style="fill:none;stroke:#a5a5a5;stroke-width:25400;stroke-linecap:round;stroke-linejoin:round;stroke-miterlimit:10;stroke-dasharray:none;stroke-opacity:1"
             d="M 0,0 254000,1.16272" /></g></g></g><g
       id="g606"><g
         clip-path="url(#clipPath610)"
         id="g608"><g
           transform="translate(189.4523,351.7946)"
           id="g614"><text
             id="text616"
             style="font-variant:normal;font-weight:normal;font-size:9px;font-family:'Helvetica Neue';-inkscape-font-specification:HelveticaNeue;writing-mode:lr-tb;fill:#595959;fill-opacity:1;fill-rule:nonzero;stroke:none"
             transform="scale(1,-1)"><tspan
               id="tspan618"
               y="0"
               x="0 5.0004001 10.0008">set</tspan></text>
</g></g></g><g
       id="g620"><g
         clip-path="url(#clipPath624)"
         id="g622"><g
           transform="matrix(7.874016e-5,0,0,-7.874016e-5,211,356)"
           id="g628"><path
             id="path630"
             style="fill:none;stroke:#ffc000;stroke-width:25400;stroke-linecap:round;stroke-linejoin:round;stroke-miterlimit:10;stroke-dasharray:none;stroke-opacity:1"
             d="M 0,0 241300,1.16272" /></g></g></g><g
       id="g632"><g
         clip-path="url(#clipPath636)"
         id="g634"><g
           transform="translate(232.2176,351.7946)"
           id="g640"><text
             id="text642"
             style="font-variant:normal;font-weight:normal;font-size:9px;font-family:'Helvetica Neue';-inkscape-font-specification:HelveticaNeue;writing-mode:lr-tb;fill:#595959;fill-opacity:1;fill-rule:nonzero;stroke:none"
             transform="scale(1,-1)"><tspan
               id="tspan644"
               y="0"
               x="0 3.9995999 8.9982004 13.9968">zset</tspan></text>
</g></g></g><g
       id="g646"><g
         clip-path="url(#clipPath650)"
         id="g648"><g
           transform="matrix(7.874016e-5,0,0,-7.874016e-5,0.5,416.5)"
           id="g654"><path
             id="path656"
             style="fill:none;stroke:#d9d9d9;stroke-width:12700;stroke-linecap:butt;stroke-linejoin:round;stroke-miterlimit:10;stroke-dasharray:none;stroke-opacity:1"
             d="m 0,0 7658100,0 0,5283200 L 0,5283200 0,0 Z" /></g></g></g><text
       xml:space="preserve"
       style="font-style:normal;font-weight:normal;font-size:32px;line-height:125%;font-family:Sans;letter-spacing:0px;word-spacing:0px;fill:#000000;fill-opacity:1;stroke:none;stroke-width:1px;stroke-linecap:butt;stroke-linejoin:miter;stroke-opacity:1"
       x="530.70441"
       y="-27.554737"
       id="text3657"
       sodipodi:linespacing="125%"
       transform="scale(1,-1)"><tspan
         sodipodi:role="line"
         id="tspan3659"
         x="530.70441"
         y="-27.554737"> </tspan></text>
</g></svg>