<?xml version="1.0" encoding="UTF-8" standalone="no"?>
<svg
   xmlns:dc="http://purl.org/dc/elements/1.1/"
   xmlns:cc="http://creativecommons.org/ns#"
   xmlns:rdf="http://www.w3.org/1999/02/22-rdf-syntax-ns#"
   xmlns:svg="http://www.w3.org/2000/svg"
   xmlns="http://www.w3.org/2000/svg"
   xmlns:sodipodi="http://sodipodi.sourceforge.net/DTD/sodipodi-0.dtd"
   xmlns:inkscape="http://www.inkscape.org/namespaces/inkscape"
   viewBox="0 0 756.25 521.25"
   height="521.25"
   width="756.25"
   xml:space="preserve"
   version="1.1"
   id="svg2"
   inkscape:version="0.91 r13725"
   sodipodi:docname="i-overhead.svg"><sodipodi:namedview
     pagecolor="#ffffff"
     bordercolor="#666666"
     borderopacity="1"
     objecttolerance="10"
     gridtolerance="10"
     guidetolerance="10"
     inkscape:pageopacity="0"
     inkscape:pageshadow="2"
     inkscape:window-width="1242"
     inkscape:window-height="887"
     id="namedview322"
     showgrid="false"
     inkscape:zoom="1.3103118"
     inkscape:cx="378.125"
     inkscape:cy="260.625"
     inkscape:window-x="527"
     inkscape:window-y="129"
     inkscape:window-maximized="0"
     inkscape:current-layer="g10" /><metadata
     id="metadata8"><rdf:RDF><cc:Work
         rdf:about=""><dc:format>image/svg+xml</dc:format><dc:type
           rdf:resource="http://purl.org/dc/dcmitype/StillImage" /></cc:Work></rdf:RDF></metadata><defs
     id="defs6"><clipPath
       id="clipPath18"
       clipPathUnits="userSpaceOnUse"><path
         id="path20"
         d="M 0,0 605,0 605,417 0,417 0,0 Z" /></clipPath><clipPath
       id="clipPath30"
       clipPathUnits="userSpaceOnUse"><path
         id="path32"
         d="M 0,1 604,1 604,417 0,417 0,1 Z" /></clipPath><clipPath
       id="clipPath42"
       clipPathUnits="userSpaceOnUse"><path
         id="path44"
         d="M 0,1 604,1 604,417 0,417 0,1 Z" /></clipPath><clipPath
       id="clipPath54"
       clipPathUnits="userSpaceOnUse"><path
         id="path56"
         d="M 0,1 604,1 604,417 0,417 0,1 Z" /></clipPath><clipPath
       id="clipPath66"
       clipPathUnits="userSpaceOnUse"><path
         id="path68"
         d="M 0,1 604,1 604,417 0,417 0,1 Z" /></clipPath><clipPath
       id="clipPath78"
       clipPathUnits="userSpaceOnUse"><path
         id="path80"
         d="m 54,39 526,0 0,336 -526,0 0,-336 z" /></clipPath><clipPath
       id="clipPath90"
       clipPathUnits="userSpaceOnUse"><path
         id="path92"
         d="m 54,39 526,0 0,336 -526,0 0,-336 z" /></clipPath><clipPath
       id="clipPath102"
       clipPathUnits="userSpaceOnUse"><path
         id="path104"
         d="m 54,39 526,0 0,336 -526,0 0,-336 z" /></clipPath><clipPath
       id="clipPath114"
       clipPathUnits="userSpaceOnUse"><path
         id="path116"
         d="m 54,39 526,0 0,336 -526,0 0,-336 z" /></clipPath><clipPath
       id="clipPath126"
       clipPathUnits="userSpaceOnUse"><path
         id="path128"
         d="M 0,1 604,1 604,417 0,417 0,1 Z" /></clipPath><clipPath
       id="clipPath140"
       clipPathUnits="userSpaceOnUse"><path
         id="path142"
         d="M 0,1 604,1 604,417 0,417 0,1 Z" /></clipPath><clipPath
       id="clipPath154"
       clipPathUnits="userSpaceOnUse"><path
         id="path156"
         d="M 0,1 604,1 604,417 0,417 0,1 Z" /></clipPath><clipPath
       id="clipPath168"
       clipPathUnits="userSpaceOnUse"><path
         id="path170"
         d="M 0,1 604,1 604,417 0,417 0,1 Z" /></clipPath><clipPath
       id="clipPath182"
       clipPathUnits="userSpaceOnUse"><path
         id="path184"
         d="M 0,1 604,1 604,417 0,417 0,1 Z" /></clipPath><clipPath
       id="clipPath196"
       clipPathUnits="userSpaceOnUse"><path
         id="path198"
         d="M 0,1 604,1 604,417 0,417 0,1 Z" /></clipPath><clipPath
       id="clipPath210"
       clipPathUnits="userSpaceOnUse"><path
         id="path212"
         d="M 0,1 604,1 604,417 0,417 0,1 Z" /></clipPath><clipPath
       id="clipPath224"
       clipPathUnits="userSpaceOnUse"><path
         id="path226"
         d="M 0,1 604,1 604,417 0,417 0,1 Z" /></clipPath><clipPath
       id="clipPath238"
       clipPathUnits="userSpaceOnUse"><path
         id="path240"
         d="M 0,1 604,1 604,417 0,417 0,1 Z" /></clipPath><clipPath
       id="clipPath252"
       clipPathUnits="userSpaceOnUse"><path
         id="path254"
         d="M 0,1 604,1 604,417 0,417 0,1 Z" /></clipPath><clipPath
       id="clipPath266"
       clipPathUnits="userSpaceOnUse"><path
         id="path268"
         d="M 0,1 604,1 604,417 0,417 0,1 Z" /></clipPath><clipPath
       id="clipPath280"
       clipPathUnits="userSpaceOnUse"><path
         id="path282"
         d="M 0,1 604,1 604,417 0,417 0,1 Z" /></clipPath><clipPath
       id="clipPath294"
       clipPathUnits="userSpaceOnUse"><path
         id="path296"
         d="M 0,1 604,1 604,417 0,417 0,1 Z" /></clipPath><clipPath
       id="clipPath308"
       clipPathUnits="userSpaceOnUse"><path
         id="path310"
         d="M 0,1 604,1 604,417 0,417 0,1 Z" /></clipPath><clipPath
       id="clipPath322"
       clipPathUnits="userSpaceOnUse"><path
         id="path324"
         d="M 0,1 604,1 604,417 0,417 0,1 Z" /></clipPath><clipPath
       id="clipPath336"
       clipPathUnits="userSpaceOnUse"><path
         id="path338"
         d="M 0,1 604,1 604,417 0,417 0,1 Z" /></clipPath><clipPath
       id="clipPath350"
       clipPathUnits="userSpaceOnUse"><path
         id="path352"
         d="M 0,1 604,1 604,417 0,417 0,1 Z" /></clipPath><clipPath
       id="clipPath364"
       clipPathUnits="userSpaceOnUse"><path
         id="path366"
         d="M 0,1 604,1 604,417 0,417 0,1 Z" /></clipPath><clipPath
       id="clipPath378"
       clipPathUnits="userSpaceOnUse"><path
         id="path380"
         d="M 0,1 604,1 604,417 0,417 0,1 Z" /></clipPath><clipPath
       id="clipPath392"
       clipPathUnits="userSpaceOnUse"><path
         id="path394"
         d="M 0,1 604,1 604,417 0,417 0,1 Z" /></clipPath><clipPath
       id="clipPath406"
       clipPathUnits="userSpaceOnUse"><path
         id="path408"
         d="M 0,1 604,1 604,417 0,417 0,1 Z" /></clipPath><clipPath
       id="clipPath420"
       clipPathUnits="userSpaceOnUse"><path
         id="path422"
         d="M 0,1 604,1 604,417 0,417 0,1 Z" /></clipPath><clipPath
       id="clipPath434"
       clipPathUnits="userSpaceOnUse"><path
         id="path436"
         d="M 0,1 604,1 604,417 0,417 0,1 Z" /></clipPath><clipPath
       id="clipPath448"
       clipPathUnits="userSpaceOnUse"><path
         id="path450"
         d="M 0,1 604,1 604,417 0,417 0,1 Z" /></clipPath><clipPath
       id="clipPath462"
       clipPathUnits="userSpaceOnUse"><path
         id="path464"
         d="M 0,1 604,1 604,417 0,417 0,1 Z" /></clipPath><clipPath
       id="clipPath476"
       clipPathUnits="userSpaceOnUse"><path
         id="path478"
         d="M 0,1 604,1 604,417 0,417 0,1 Z" /></clipPath><clipPath
       id="clipPath490"
       clipPathUnits="userSpaceOnUse"><path
         id="path492"
         d="M 0,1 604,1 604,417 0,417 0,1 Z" /></clipPath><clipPath
       id="clipPath504"
       clipPathUnits="userSpaceOnUse"><path
         id="path506"
         d="M 0,1 604,1 604,417 0,417 0,1 Z" /></clipPath><clipPath
       id="clipPath518"
       clipPathUnits="userSpaceOnUse"><path
         id="path520"
         d="M 0,1 604,1 604,417 0,417 0,1 Z" /></clipPath><clipPath
       id="clipPath532"
       clipPathUnits="userSpaceOnUse"><path
         id="path534"
         d="M 0,1 604,1 604,417 0,417 0,1 Z" /></clipPath><clipPath
       id="clipPath544"
       clipPathUnits="userSpaceOnUse"><path
         id="path546"
         d="m 59.53665,346.7478 86.34528,0 0,18.38016 -86.34528,0 0,-18.38016 z" /></clipPath><clipPath
       id="clipPath558"
       clipPathUnits="userSpaceOnUse"><path
         id="path560"
         d="M 0,1 604,1 604,417 0,417 0,1 Z" /></clipPath><clipPath
       id="clipPath570"
       clipPathUnits="userSpaceOnUse"><path
         id="path572"
         d="m 81.09519,346.7478 135.4153,0 0,18.38016 -135.4153,0 0,-18.38016 z" /></clipPath><clipPath
       id="clipPath584"
       clipPathUnits="userSpaceOnUse"><path
         id="path586"
         d="M 0,1 604,1 604,417 0,417 0,1 Z" /></clipPath><clipPath
       id="clipPath596"
       clipPathUnits="userSpaceOnUse"><path
         id="path598"
         d="m 152.2189,346.7478 85.19,0 0,18.38016 -85.19,0 0,-18.38016 z" /></clipPath><clipPath
       id="clipPath610"
       clipPathUnits="userSpaceOnUse"><path
         id="path612"
         d="M 0,1 604,1 604,417 0,417 0,1 Z" /></clipPath><clipPath
       id="clipPath622"
       clipPathUnits="userSpaceOnUse"><path
         id="path624"
         d="m 181.6825,346.7478 115.43,0 0,18.38016 -115.43,0 0,-18.38016 z" /></clipPath><clipPath
       id="clipPath636"
       clipPathUnits="userSpaceOnUse"><path
         id="path638"
         d="M 0,0 605,0 605,417 0,417 0,0 Z" /></clipPath></defs><g
     transform="matrix(1.25,0,0,-1.25,0,521.25)"
     id="g10"><g
       id="g12" /><g
       id="g14"><g
         clip-path="url(#clipPath18)"
         id="g16"><path
           id="path22"
           style="fill:#ffffff;fill-opacity:0;fill-rule:nonzero;stroke:none"
           d="M 0,417 605,417 605,0 0,0 0,417 Z" /><path
           id="path24"
           style="fill:#ffffff;fill-opacity:1;fill-rule:nonzero;stroke:none"
           d="m 1,417 603,0 0,-416.0000061 -603,0 L 1,417 Z" /></g></g><g
       id="g26"><g
         clip-path="url(#clipPath30)"
         id="g28"><g
           transform="matrix(7.874016e-5,0,0,-7.874016e-5,54.5,374.5)"
           id="g34"><path
             id="path36"
             style="fill:none;stroke:#d9d9d9;stroke-width:12700;stroke-linecap:butt;stroke-linejoin:round;stroke-miterlimit:10;stroke-dasharray:none;stroke-opacity:1"
             d="m 0,4254500 6667500,0 M 0,3543300 l 6667500,0 M 0,2832100 l 6667500,0 M 0,2120900 l 6667500,0 M 0,1409700 l 6667500,0 M 0,698500 l 6667500,0 M 0,0 6667500,0" /></g></g></g><g
       id="g38"><g
         clip-path="url(#clipPath42)"
         id="g40"><g
           transform="matrix(7.874016e-5,0,0,-7.874016e-5,72.5,374.5)"
           id="g46"><path
             id="path48"
             style="fill:none;stroke:#d9d9d9;stroke-width:12700;stroke-linecap:butt;stroke-linejoin:round;stroke-miterlimit:10;stroke-dasharray:none;stroke-opacity:1"
             d="m 6438900,0 0,4254500 M 5981700,0 l 0,4254500 M 5524500,0 l 0,4254500 M 5067300,0 l 0,4254500 M 4597400,0 l 0,4254500 M 4140200,0 l 0,4254500 M 3683000,0 l 0,4254500 M 3213100,0 l 0,4254500 M 2755900,0 l 0,4254500 M 2298700,0 l 0,4254500 M 1841500,0 l 0,4254500 M 1371600,0 l 0,4254500 M 914400,0 l 0,4254500 M 457200,0 l 0,4254500 M 0,0 0,4254500" /></g></g></g><g
       id="g50"><g
         clip-path="url(#clipPath54)"
         id="g52"><g
           transform="matrix(7.874016e-5,0,0,-7.874016e-5,54.5,374.5)"
           id="g58"><path
             id="path60"
             style="fill:none;stroke:#bfbfbf;stroke-width:12700;stroke-linecap:butt;stroke-linejoin:round;stroke-miterlimit:10;stroke-dasharray:none;stroke-opacity:1"
             d="M 0,4254500 1.01738,0" /></g></g></g><g
       id="g62"><g
         clip-path="url(#clipPath66)"
         id="g64"><g
           transform="matrix(7.874016e-5,0,0,-7.874016e-5,54.5,39.5)"
           id="g70"><path
             id="path72"
             style="fill:none;stroke:#bfbfbf;stroke-width:12700;stroke-linecap:butt;stroke-linejoin:round;stroke-miterlimit:10;stroke-dasharray:none;stroke-opacity:1"
             d="M 0,1.01738 6667500,0" /></g></g></g><g
       id="g74"><g
         clip-path="url(#clipPath78)"
         id="g76"><g
           transform="matrix(7.874016e-5,0,0,-7.874016e-5,68,126)"
           id="g82"><path
             id="path84"
             style="fill:none;stroke:#5b9bd5;stroke-width:25400;stroke-linecap:round;stroke-linejoin:round;stroke-miterlimit:10;stroke-dasharray:none;stroke-opacity:1"
             d="m 0,0 228600,0 228600,0 228600,0 228600,0 228600,0 228600,0 228600,0 241300,0 228600,0 228600,0 228600,0 228600,0 228600,0 228600,0 241300,0 228600,0 228600,0 228600,0 228600,0 228600,0 228600,0 228600,0 241300,0 228600,0 228600,0 228600,0 228600,0 228600,0" /></g></g></g><g
       id="g86"><g
         clip-path="url(#clipPath90)"
         id="g88"><g
           transform="matrix(7.874016e-5,0,0,-7.874016e-5,68,167)"
           id="g94"><path
             id="path96"
             style="fill:none;stroke:#ed7d31;stroke-width:25400;stroke-linecap:round;stroke-linejoin:round;stroke-miterlimit:10;stroke-dasharray:none;stroke-opacity:1"
             d="m 0,419100 228600,0 228600,0 228600,0 228600,0 228600,0 228600,0 228600,0 241300,0 228600,12700 228600,0 228600,0 228600,0 228600,12700 228600,50800 241300,1003300 228600,-190500 228600,241300 228600,-12700 228600,-25400 228600,-76200 228600,-165100 228600,-241300 L 5295900,723900 5524500,495300 5753100,152400 5981700,63500 6210300,12700 6438900,0" /></g></g></g><g
       id="g98"><g
         clip-path="url(#clipPath102)"
         id="g100"><g
           transform="matrix(7.874016e-5,0,0,-7.874016e-5,68,344)"
           id="g106"><path
             id="path108"
             style="fill:none;stroke:#a5a5a5;stroke-width:25400;stroke-linecap:round;stroke-linejoin:round;stroke-miterlimit:10;stroke-dasharray:none;stroke-opacity:1"
             d="m 0,2667000 228600,0 228600,0 228600,0 228600,0 228600,0 228600,0 228600,0 241300,0 228600,12700 228600,0 228600,0 228600,0 228600,25400 228600,25400 241300,50800 228600,114300 228600,-12700 228600,-12700 228600,-50800 228600,-127000 228600,-254000 228600,-457200 241300,-622300 L 5524500,863600 5753100,342900 5981700,152400 6210300,50800 6438900,0" /></g></g></g><g
       id="g110"><g
         clip-path="url(#clipPath114)"
         id="g112"><g
           transform="matrix(7.874016e-5,0,0,-7.874016e-5,68,193)"
           id="g118"><path
             id="path120"
             style="fill:none;stroke:#ffc000;stroke-width:25400;stroke-linecap:round;stroke-linejoin:round;stroke-miterlimit:10;stroke-dasharray:none;stroke-opacity:1"
             d="m 0,0 228600,0 228600,0 228600,0 228600,0 228600,0 228600,0 228600,0 241300,0 228600,76200 228600,-25400 228600,-38100 228600,38100 228600,-25400 228600,0 241300,12700 228600,127000 228600,1714500 228600,-12700 228600,-25400 228600,-76200 228600,-165100 228600,-241300 241300,-406400 228600,-127000 228600,-342900 228600,-88900 228600,-50800 228600,-12700" /></g></g></g><g
       id="g122"><g
         clip-path="url(#clipPath126)"
         id="g124"><g
           transform="translate(40.62445,35.81516)"
           id="g130"><text
             id="text132"
             style="font-variant:normal;font-weight:normal;font-size:9px;font-family:'Helvetica Neue';-inkscape-font-specification:HelveticaNeue;writing-mode:lr-tb;fill:#595959;fill-opacity:1;fill-rule:nonzero;stroke:none"
             transform="scale(1,-1)"><tspan
               id="tspan134"
               y="0"
               x="0">0</tspan></text>
</g></g></g><g
       id="g136"><g
         clip-path="url(#clipPath140)"
         id="g138"><g
           transform="translate(36.12445,91.7265)"
           id="g144"><text
             id="text146"
             style="font-variant:normal;font-weight:normal;font-size:9px;font-family:'Helvetica Neue';-inkscape-font-specification:HelveticaNeue;writing-mode:lr-tb;fill:#595959;fill-opacity:1;fill-rule:nonzero;stroke:none"
             transform="scale(1,-1)"><tspan
               id="tspan148"
               y="0"
               x="0 5.0004001">50</tspan></text>
</g></g></g><g
       id="g150"><g
         clip-path="url(#clipPath154)"
         id="g152"><g
           transform="translate(30.61941,147.6378)"
           id="g158"><text
             id="text160"
             style="font-variant:normal;font-weight:normal;font-size:9px;font-family:'Helvetica Neue';-inkscape-font-specification:HelveticaNeue;writing-mode:lr-tb;fill:#595959;fill-opacity:1;fill-rule:nonzero;stroke:none"
             transform="scale(1,-1)"><tspan
               id="tspan162"
               y="0"
               x="0 5.0004001 10.0008">100</tspan></text>
</g></g></g><g
       id="g164"><g
         clip-path="url(#clipPath168)"
         id="g166"><g
           transform="translate(30.61941,203.5491)"
           id="g172"><text
             id="text174"
             style="font-variant:normal;font-weight:normal;font-size:9px;font-family:'Helvetica Neue';-inkscape-font-specification:HelveticaNeue;writing-mode:lr-tb;fill:#595959;fill-opacity:1;fill-rule:nonzero;stroke:none"
             transform="scale(1,-1)"><tspan
               id="tspan176"
               y="0"
               x="0 5.0004001 10.0008">150</tspan></text>
</g></g></g><g
       id="g178"><g
         clip-path="url(#clipPath182)"
         id="g180"><g
           transform="translate(30.61941,259.4604)"
           id="g186"><text
             id="text188"
             style="font-variant:normal;font-weight:normal;font-size:9px;font-family:'Helvetica Neue';-inkscape-font-specification:HelveticaNeue;writing-mode:lr-tb;fill:#595959;fill-opacity:1;fill-rule:nonzero;stroke:none"
             transform="scale(1,-1)"><tspan
               id="tspan190"
               y="0"
               x="0 5.0004001 10.0008">200</tspan></text>
</g></g></g><g
       id="g192"><g
         clip-path="url(#clipPath196)"
         id="g194"><g
           transform="translate(30.61941,315.3717)"
           id="g200"><text
             id="text202"
             style="font-variant:normal;font-weight:normal;font-size:9px;font-family:'Helvetica Neue';-inkscape-font-specification:HelveticaNeue;writing-mode:lr-tb;fill:#595959;fill-opacity:1;fill-rule:nonzero;stroke:none"
             transform="scale(1,-1)"><tspan
               id="tspan204"
               y="0"
               x="0 5.0004001 10.0008">250</tspan></text>
</g></g></g><g
       id="g206"><g
         clip-path="url(#clipPath210)"
         id="g208"><g
           transform="translate(30.61941,371.283)"
           id="g214"><text
             id="text216"
             style="font-variant:normal;font-weight:normal;font-size:9px;font-family:'Helvetica Neue';-inkscape-font-specification:HelveticaNeue;writing-mode:lr-tb;fill:#595959;fill-opacity:1;fill-rule:nonzero;stroke:none"
             transform="scale(1,-1)"><tspan
               id="tspan218"
               y="0"
               x="0 5.0004001 10.0008">300</tspan></text>
</g></g></g><g
       id="g220"><g
         clip-path="url(#clipPath224)"
         id="g222"><g
           transform="translate(562.9802,24.73444)"
           id="g228"><text
             id="text230"
             style="font-variant:normal;font-weight:normal;font-size:9px;font-family:'Helvetica Neue';-inkscape-font-specification:HelveticaNeue;writing-mode:lr-tb;fill:#595959;fill-opacity:1;fill-rule:nonzero;stroke:none"
             transform="scale(1,-1)"><tspan
               id="tspan232"
               y="0"
               x="0 5.0004001 8.0028 13.0032 18.003599 23.004 28.0044">0.03125</tspan></text>
</g></g></g><g
       id="g234"><g
         clip-path="url(#clipPath238)"
         id="g236"><g
           transform="translate(531.7213,24.73444)"
           id="g242"><text
             id="text244"
             style="font-variant:normal;font-weight:normal;font-size:9px;font-family:'Helvetica Neue';-inkscape-font-specification:HelveticaNeue;writing-mode:lr-tb;fill:#595959;fill-opacity:1;fill-rule:nonzero;stroke:none"
             transform="scale(1,-1)"><tspan
               id="tspan246"
               y="0"
               x="0 5.0004001 8.0028 13.0032 18.003599">0.125</tspan></text>
</g></g></g><g
       id="g248"><g
         clip-path="url(#clipPath252)"
         id="g250"><g
           transform="translate(500.4627,24.73444)"
           id="g256"><text
             id="text258"
             style="font-variant:normal;font-weight:normal;font-size:9px;font-family:'Helvetica Neue';-inkscape-font-specification:HelveticaNeue;writing-mode:lr-tb;fill:#595959;fill-opacity:1;fill-rule:nonzero;stroke:none"
             transform="scale(1,-1)"><tspan
               id="tspan260"
               y="0"
               x="0 5.0004001 8.0028">0.5</tspan></text>
</g></g></g><g
       id="g262"><g
         clip-path="url(#clipPath266)"
         id="g264"><g
           transform="translate(468.2014,24.73444)"
           id="g270"><text
             id="text272"
             style="font-variant:normal;font-weight:normal;font-size:9px;font-family:'Helvetica Neue';-inkscape-font-specification:HelveticaNeue;writing-mode:lr-tb;fill:#595959;fill-opacity:1;fill-rule:nonzero;stroke:none"
             transform="scale(1,-1)"><tspan
               id="tspan274"
               y="0"
               x="0">2</tspan></text>
</g></g></g><g
       id="g276"><g
         clip-path="url(#clipPath280)"
         id="g278"><g
           transform="translate(431.9428,24.73444)"
           id="g284"><text
             id="text286"
             style="font-variant:normal;font-weight:normal;font-size:9px;font-family:'Helvetica Neue';-inkscape-font-specification:HelveticaNeue;writing-mode:lr-tb;fill:#595959;fill-opacity:1;fill-rule:nonzero;stroke:none"
             transform="scale(1,-1)"><tspan
               id="tspan288"
               y="0"
               x="0">8</tspan></text>
</g></g></g><g
       id="g290"><g
         clip-path="url(#clipPath294)"
         id="g292"><g
           transform="translate(393.6866,24.73444)"
           id="g298"><text
             id="text300"
             style="font-variant:normal;font-weight:normal;font-size:9px;font-family:'Helvetica Neue';-inkscape-font-specification:HelveticaNeue;writing-mode:lr-tb;fill:#595959;fill-opacity:1;fill-rule:nonzero;stroke:none"
             transform="scale(1,-1)"><tspan
               id="tspan302"
               y="0"
               x="0 5.0004001">32</tspan></text>
</g></g></g><g
       id="g304"><g
         clip-path="url(#clipPath308)"
         id="g306"><g
           transform="translate(354.4253,24.73444)"
           id="g312"><text
             id="text314"
             style="font-variant:normal;font-weight:normal;font-size:9px;font-family:'Helvetica Neue';-inkscape-font-specification:HelveticaNeue;writing-mode:lr-tb;fill:#595959;fill-opacity:1;fill-rule:nonzero;stroke:none"
             transform="scale(1,-1)"><tspan
               id="tspan316"
               y="0"
               x="0 5.0004001 10.0008">128</tspan></text>
</g></g></g><g
       id="g318"><g
         clip-path="url(#clipPath322)"
         id="g320"><g
           transform="translate(318.1666,24.73444)"
           id="g326"><text
             id="text328"
             style="font-variant:normal;font-weight:normal;font-size:9px;font-family:'Helvetica Neue';-inkscape-font-specification:HelveticaNeue;writing-mode:lr-tb;fill:#595959;fill-opacity:1;fill-rule:nonzero;stroke:none"
             transform="scale(1,-1)"><tspan
               id="tspan330"
               y="0"
               x="0 5.0004001 10.0008">512</tspan></text>
</g></g></g><g
       id="g332"><g
         clip-path="url(#clipPath336)"
         id="g334"><g
           transform="translate(279.9102,24.73444)"
           id="g340"><text
             id="text342"
             style="font-variant:normal;font-weight:normal;font-size:9px;font-family:'Helvetica Neue';-inkscape-font-specification:HelveticaNeue;writing-mode:lr-tb;fill:#595959;fill-opacity:1;fill-rule:nonzero;stroke:none"
             transform="scale(1,-1)"><tspan
               id="tspan344"
               y="0"
               x="0 5.0004001 10.0008 15.0012">2048</tspan></text>
</g></g></g><g
       id="g346"><g
         clip-path="url(#clipPath350)"
         id="g348"><g
           transform="translate(243.6515,24.73444)"
           id="g354"><text
             id="text356"
             style="font-variant:normal;font-weight:normal;font-size:9px;font-family:'Helvetica Neue';-inkscape-font-specification:HelveticaNeue;writing-mode:lr-tb;fill:#595959;fill-opacity:1;fill-rule:nonzero;stroke:none"
             transform="scale(1,-1)"><tspan
               id="tspan358"
               y="0"
               x="0 5.0004001 10.0008 15.0012">8192</tspan></text>
</g></g></g><g
       id="g360"><g
         clip-path="url(#clipPath364)"
         id="g362"><g
           transform="translate(204.3904,24.73444)"
           id="g368"><text
             id="text370"
             style="font-variant:normal;font-weight:normal;font-size:9px;font-family:'Helvetica Neue';-inkscape-font-specification:HelveticaNeue;writing-mode:lr-tb;fill:#595959;fill-opacity:1;fill-rule:nonzero;stroke:none"
             transform="scale(1,-1)"><tspan
               id="tspan372"
               y="0"
               x="0 5.0004001 10.0008 15.0012 20.0016">32768</tspan></text>
</g></g></g><g
       id="g374"><g
         clip-path="url(#clipPath378)"
         id="g376"><g
           transform="translate(166.1342,24.73444)"
           id="g382"><text
             id="text384"
             style="font-variant:normal;font-weight:normal;font-size:9px;font-family:'Helvetica Neue';-inkscape-font-specification:HelveticaNeue;writing-mode:lr-tb;fill:#595959;fill-opacity:1;fill-rule:nonzero;stroke:none"
             transform="scale(1,-1)"><tspan
               id="tspan386"> 128k</tspan></text>
</g></g></g><g
       id="g388"><g
         clip-path="url(#clipPath392)"
         id="g390"><g
           transform="translate(129.8755,24.73444)"
           id="g396"><text
             id="text398"
             style="font-variant:normal;font-weight:normal;font-size:9px;font-family:'Helvetica Neue';-inkscape-font-specification:HelveticaNeue;writing-mode:lr-tb;fill:#595959;fill-opacity:1;fill-rule:nonzero;stroke:none"
             transform="scale(1,-1)"><tspan
               id="tspan400">  512k</tspan></text>
</g></g></g><g
       id="g402"><g
         clip-path="url(#clipPath406)"
         id="g404"><g
           transform="translate(90.61421,24.73444)"
           id="g410"><text
             id="text412"
             style="font-variant:normal;font-weight:normal;font-size:9px;font-family:'Helvetica Neue';-inkscape-font-specification:HelveticaNeue;writing-mode:lr-tb;fill:#595959;fill-opacity:1;fill-rule:nonzero;stroke:none"
             transform="scale(1,-1)"><tspan
               id="tspan414">    2M</tspan></text>
</g></g></g><g
       id="g416"><g
         clip-path="url(#clipPath420)"
         id="g418"><g
           transform="translate(54.35547,24.73444)"
           id="g424"><text
             id="text426"
             style="font-variant:normal;font-weight:normal;font-size:9px;font-family:'Helvetica Neue';-inkscape-font-specification:HelveticaNeue;writing-mode:lr-tb;fill:#595959;fill-opacity:1;fill-rule:nonzero;stroke:none"
             transform="scale(1,-1)"><tspan
               id="tspan428">    8M</tspan></text>
</g></g></g><g
       id="g430"><g
         clip-path="url(#clipPath434)"
         id="g432"><g
           transform="matrix(0,1,-1,0,25.50941,154.8017)"
           id="g438"><text
             id="text440"
             style="font-variant:normal;font-weight:normal;font-size:10px;font-family:'Helvetica Neue';-inkscape-font-specification:HelveticaNeue;writing-mode:lr-tb;fill:#595959;fill-opacity:1;fill-rule:nonzero;stroke:none"
             transform="scale(1,-1)"><tspan
               id="tspan442"
               y="0"
               x="0 8 13 18 21 27 32 37 43 46 49 52 54 57 62 71 74 77 83 88 91 96 101">Overhead / item (bytes)</tspan></text>
</g></g></g><g
       id="g444"><g
         clip-path="url(#clipPath448)"
         id="g446"><g
           transform="translate(260.5834,6.456604)"
           id="g452"><text
             id="text454"
             style="font-variant:normal;font-weight:normal;font-size:10px;font-family:'Helvetica Neue';-inkscape-font-specification:HelveticaNeue;writing-mode:lr-tb;fill:#595959;fill-opacity:1;fill-rule:nonzero;stroke:none"
             transform="scale(1,-1)"><tspan
               id="tspan456"
               y="0"
               x="0 3 6 11 20 25 27 33 38 41 45 50 56 61 64 70 73 76 81 86 91 94 99 105 110">Items per shard (average)</tspan></text>
</g></g></g><g
       id="g458"><g
         clip-path="url(#clipPath462)"
         id="g460"><g
           transform="translate(178.9629,393.1642)"
           id="g466"><text
             id="text468"
             style="font-variant:normal;font-weight:normal;font-size:14px;font-family:'Helvetica Neue';-inkscape-font-specification:HelveticaNeue;writing-mode:lr-tb;fill:#595959;fill-opacity:1;fill-rule:nonzero;stroke:none"
             transform="scale(1,-1)"><tspan
               id="tspan470"
               y="0"
               x="0 10.9998 17.9998 25.999399 30.9988 38.998402 46.998001 54.997601 62.9972 65.997398 73.997002 77.996803 80.997002 87.997002 91.996803 99.996399 104.9958 107.996 115.9956 123.9952 127.995 135.9946">Overhead of storing 10</tspan></text>
</g></g></g><g
       id="g472"><g
         clip-path="url(#clipPath476)"
         id="g474"><g
           transform="translate(322.9629,397.1642)"
           id="g480"><text
             id="text482"
             style="font-variant:normal;font-weight:normal;font-size:9px;font-family:'Helvetica Neue';-inkscape-font-specification:HelveticaNeue;writing-mode:lr-tb;fill:#595959;fill-opacity:1;fill-rule:nonzero;stroke:none"
             transform="scale(1,-1)"><tspan
               id="tspan484"
               y="0"
               x="0">7</tspan></text>
</g></g></g><g
       id="g486"><g
         clip-path="url(#clipPath490)"
         id="g488"><g
           transform="translate(330.9629,393.1642)"
           id="g494"><text
             id="text496"
             style="font-variant:normal;font-weight:normal;font-size:14px;font-family:'Helvetica Neue';-inkscape-font-specification:HelveticaNeue;writing-mode:lr-tb;fill:#595959;fill-opacity:1;fill-rule:nonzero;stroke:none"
             transform="scale(1,-1)"><tspan
               id="tspan498"
               y="0"
               x="0 7.9995999">32</tspan></text>
</g></g></g><g
       id="g500"><g
         clip-path="url(#clipPath504)"
         id="g502"><g
           transform="translate(346.9629,393.1642)"
           id="g508"><text
             id="text510"
             style="font-variant:normal;font-weight:normal;font-size:14px;font-family:'Helvetica Neue';-inkscape-font-specification:HelveticaNeue;writing-mode:lr-tb;fill:#595959;fill-opacity:1;fill-rule:nonzero;stroke:none"
             transform="scale(1,-1)"><tspan
               id="tspan512"
               y="0"
               x="0">-</tspan></text>
</g></g></g><g
       id="g514"><g
         clip-path="url(#clipPath518)"
         id="g516"><g
           transform="translate(351.9629,393.1642)"
           id="g522"><text
             id="text524"
             style="font-variant:normal;font-weight:normal;font-size:14px;font-family:'Helvetica Neue';-inkscape-font-specification:HelveticaNeue;writing-mode:lr-tb;fill:#595959;fill-opacity:1;fill-rule:nonzero;stroke:none"
             transform="scale(1,-1)"><tspan
               id="tspan526"
               y="0"
               x="0 7.9995999 14.9996 18.999399 26.999001 31.9984 38.998402 42.998199 47.997601 50.997799 58.997398 66.997002">byte strings</tspan></text>
</g></g></g><g
       id="g528"><g
         clip-path="url(#clipPath532)"
         id="g530"><g
           transform="matrix(7.874016e-5,0,0,-7.874016e-5,75,356)"
           id="g536"><path
             id="path538"
             style="fill:none;stroke:#5b9bd5;stroke-width:25400;stroke-linecap:round;stroke-linejoin:round;stroke-miterlimit:10;stroke-dasharray:none;stroke-opacity:1"
             d="M 0,0 254000,1.16272" /></g></g></g><g
       id="g540"><g
         clip-path="url(#clipPath544)"
         id="g542"><g
           transform="translate(96.54177,352.3054)"
           id="g548"><text
             id="text550"
             style="font-variant:normal;font-weight:normal;font-size:9px;font-family:'Helvetica Neue';-inkscape-font-specification:HelveticaNeue;writing-mode:lr-tb;fill:#595959;fill-opacity:1;fill-rule:nonzero;stroke:none"
             transform="scale(1,-1)"><tspan
               id="tspan552"
               y="0"
               x="0 2.9997001 5.0004001 9.9981003">flat</tspan></text>
</g></g></g><g
       id="g554"><g
         clip-path="url(#clipPath558)"
         id="g556"><g
           transform="matrix(7.874016e-5,0,0,-7.874016e-5,118,356)"
           id="g562"><path
             id="path564"
             style="fill:none;stroke:#ed7d31;stroke-width:25400;stroke-linecap:round;stroke-linejoin:round;stroke-miterlimit:10;stroke-dasharray:none;stroke-opacity:1"
             d="M 0,0 241300,1.16272" /></g></g></g><g
       id="g566"><g
         clip-path="url(#clipPath570)"
         id="g568"><g
           transform="translate(139.1303,352.3054)"
           id="g574"><text
             id="text576"
             style="font-variant:normal;font-weight:normal;font-size:9px;font-family:'Helvetica Neue';-inkscape-font-specification:HelveticaNeue;writing-mode:lr-tb;fill:#595959;fill-opacity:1;fill-rule:nonzero;stroke:none"
             transform="scale(1,-1)"><tspan
               id="tspan578"
               y="0"
               x="0 5.0004001 10.0008 15.0012">hash</tspan></text>
</g></g></g><g
       id="g580"><g
         clip-path="url(#clipPath584)"
         id="g582"><g
           transform="matrix(7.874016e-5,0,0,-7.874016e-5,168,356)"
           id="g588"><path
             id="path590"
             style="fill:none;stroke:#a5a5a5;stroke-width:25400;stroke-linecap:round;stroke-linejoin:round;stroke-miterlimit:10;stroke-dasharray:none;stroke-opacity:1"
             d="M 0,0 241300,1.16272" /></g></g></g><g
       id="g592"><g
         clip-path="url(#clipPath596)"
         id="g594"><g
           transform="translate(188.7289,352.3054)"
           id="g600"><text
             id="text602"
             style="font-variant:normal;font-weight:normal;font-size:9px;font-family:'Helvetica Neue';-inkscape-font-specification:HelveticaNeue;writing-mode:lr-tb;fill:#595959;fill-opacity:1;fill-rule:nonzero;stroke:none"
             transform="scale(1,-1)"><tspan
               id="tspan604"
               y="0"
               x="0 5.0004001 10.0008">set</tspan></text>
</g></g></g><g
       id="g606"><g
         clip-path="url(#clipPath610)"
         id="g608"><g
           transform="matrix(7.874016e-5,0,0,-7.874016e-5,210,356)"
           id="g614"><path
             id="path616"
             style="fill:none;stroke:#ffc000;stroke-width:25400;stroke-linecap:round;stroke-linejoin:round;stroke-miterlimit:10;stroke-dasharray:none;stroke-opacity:1"
             d="M 0,0 241300,1.16272" /></g></g></g><g
       id="g618"><g
         clip-path="url(#clipPath622)"
         id="g620"><g
           transform="translate(231.1525,352.3054)"
           id="g626"><text
             id="text628"
             style="font-variant:normal;font-weight:normal;font-size:9px;font-family:'Helvetica Neue';-inkscape-font-specification:HelveticaNeue;writing-mode:lr-tb;fill:#595959;fill-opacity:1;fill-rule:nonzero;stroke:none"
             transform="scale(1,-1)"><tspan
               id="tspan630"
               y="0"
               x="0 3.9995999 8.9982004 13.9968">zset</tspan></text>
</g></g></g><g
       id="g632"><g
         clip-path="url(#clipPath636)"
         id="g634"><g
           transform="matrix(7.874016e-5,0,0,-7.874016e-5,0.5,416.5)"
           id="g640"><path
             id="path642"
             style="fill:none;stroke:#d9d9d9;stroke-width:12700;stroke-linecap:butt;stroke-linejoin:round;stroke-miterlimit:10;stroke-dasharray:none;stroke-opacity:1"
             d="m 0,0 7670801,0 0,5283200 L 0,5283200 0,0 Z" /></g></g></g></g></svg>